<?xml version="1.0" encoding="UTF-8" standalone="no"?>
<!-- Created with Inkscape (http://www.inkscape.org/) -->

<svg
   width="260pt"
   height="50pt"
   viewBox="0 0 260 50"
   version="1.1"
   id="svg1"
   inkscape:version="1.3.2 (091e20e, 2023-11-25)"
   sodipodi:docname="logo.svg"
   xml:space="preserve"
   xmlns:inkscape="http://www.inkscape.org/namespaces/inkscape"
   xmlns:sodipodi="http://sodipodi.sourceforge.net/DTD/sodipodi-0.dtd"
   xmlns="http://www.w3.org/2000/svg"
   xmlns:svg="http://www.w3.org/2000/svg"><sodipodi:namedview
     id="namedview1"
     pagecolor="#ffffff"
     bordercolor="#000000"
     borderopacity="0.25"
     inkscape:showpageshadow="2"
     inkscape:pageopacity="0.0"
     inkscape:pagecheckerboard="false"
     inkscape:deskcolor="#d1d1d1"
     inkscape:document-units="pt"
     inkscape:zoom="1.7459544"
     inkscape:cx="154.92959"
     inkscape:cy="86.199272"
     inkscape:window-width="1512"
     inkscape:window-height="916"
     inkscape:window-x="0"
     inkscape:window-y="38"
     inkscape:window-maximized="1"
     inkscape:current-layer="g2" /><defs
     id="defs1"><rect
       x="26.86817"
       y="-168.78722"
       width="418.86789"
       height="128.1405"
       id="rect7" /><rect
       x="80.007"
       y="-83.466763"
       width="194.17915"
       height="51.463962"
       id="rect6" /><rect
       x="71.980596"
       y="-53.499092"
       width="287.43603"
       height="34.531232"
       id="rect5" /><rect
       x="900.46033"
       y="408.45621"
       width="696.23218"
       height="301.70062"
       id="rect1" /></defs><g
     inkscape:label="Layer 1"
     inkscape:groupmode="layer"
     id="layer1"
     transform="translate(-350.79915,-133.86149)"><g
       id="g1"
       transform="translate(-22.33735,1.7499985)"><g
         id="g2"
         transform="translate(2.5000039)"><text
           xml:space="preserve"
           style="font-weight:300;font-size:9px;line-height:0;font-family:'Helvetica Neue';-inkscape-font-specification:'Helvetica Neue Light';letter-spacing:-18.75px;word-spacing:75px;fill:#ffffff;stroke-width:0"
           x="446.50793"
           y="108.40166"
           id="text4"><tspan
             sodipodi:role="line"
             id="tspan4"
             style="stroke-width:0"
             x="446.50793"
             y="108.40166" /></text><g
           id="g7"
           transform="translate(1.1439402,-1.3362048)"><g
             style="fill:none;stroke:currentColor;stroke-width:2;stroke-linecap:round;stroke-linejoin:round"
             id="g3"
             transform="matrix(2.0819594,0,0,1.9783637,375.132,134.7151)"><g
               id="g4"><path
                 d="m 15,12 -8.373,8.373 a 2.1213203,2.1213203 0 1 1 -3,-3 L 12,9"
                 key="eefl8a"
                 id="path1" /><path
                 d="m 18,15 4,-4"
                 key="16gjal"
                 id="path2" /><path
                 d="M 21.5,11.5 19.586,9.586 A 2,2 0 0 1 19,8.172 V 7 L 16.74,4.74 A 6,6 0 0 0 12.538,2.984 L 9,2.96 9.92,3.78 A 6.18,6.18 0 0 1 12,8.4 V 10 l 2,2 h 1.172 a 2,2 0 0 1 1.414,0.586 L 18.5,14.5"
                 key="b7pghm"
                 id="path3" /></g></g></g><path
           d="m 32.85872,-151.30811 q 1.067708,0 1.692708,-0.65104 0.651041,-0.65104 0.651041,-1.77083 v -15.05208 h 20.624988 v 15.05208 q 0,1.11979 0.624999,1.77083 0.651042,0.65104 1.718749,0.65104 1.067708,0 1.692708,-0.65104 0.651041,-0.65104 0.651041,-1.77083 v -33.46352 q 0,-1.11979 -0.651041,-1.77084 -0.625,-0.65104 -1.692708,-0.65104 -1.067707,0 -1.718749,0.65104 -0.624999,0.65105 -0.624999,1.77084 v 14.1927 H 35.202469 v -14.1927 q 0,-1.11979 -0.651041,-1.77084 -0.625,-0.65104 -1.692708,-0.65104 -1.067707,0 -1.718749,0.65104 -0.624999,0.65105 -0.624999,1.77084 v 33.46352 q 0,1.11979 0.624999,1.77083 0.651042,0.65104 1.718749,0.65104 z m 43.598932,0.10417 q 3.723956,0 6.45833,-1.48438 2.734373,-1.51041 4.036456,-4.27083 0.338541,-0.80729 0.338541,-1.32812 0,-0.91146 -0.546875,-1.43229 -0.546874,-0.54688 -1.458332,-0.54688 -0.520833,0 -0.9375,0.20834 -0.390624,0.20833 -0.755207,0.70312 -1.588541,2.29167 -3.255207,3.25521 -1.640624,0.96354 -4.062497,0.96354 -3.61979,0 -5.729164,-2.36979 -2.109373,-2.39583 -2.109373,-6.48437 0,0 0,0 0,0 0,0 h 16.927073 q 1.171874,0 1.822915,-0.70313 0.677083,-0.70312 0.677083,-1.92708 0,-3.72396 -1.510415,-6.5625 -1.510416,-2.83854 -4.166665,-4.42708 -2.656248,-1.61458 -6.119788,-1.61458 -3.723956,0 -6.510412,1.74479 -2.760415,1.74479 -4.270831,4.92187 -1.510416,3.17709 -1.510416,7.44792 0,6.56249 3.333331,10.23437 3.359373,3.67187 9.348953,3.67187 z m -7.994787,-16.32812 q 0.15625,-2.34375 1.145833,-4.08854 0.989583,-1.74479 2.630207,-2.70833 1.640624,-0.96354 3.749997,-0.96354 2.109374,0 3.697915,0.96354 1.588541,0.96354 2.499998,2.70833 0.9375,1.74479 0.989583,4.08854 z m 24.223943,25.41665 q 0.989582,0 1.614582,-0.67708 0.651041,-0.67708 0.651041,-1.74479 v -11.53645 h 0.104167 q 0.807291,1.48437 2.083332,2.57812 1.276041,1.09375 2.94271,1.69271 1.66666,0.59896 3.59374,0.59896 3.41146,0 5.98958,-1.71875 2.60417,-1.74479 4.03646,-4.89583 1.45833,-3.15104 1.45833,-7.39583 0,-4.24479 -1.45833,-7.39583 -1.45833,-3.15104 -4.0625,-4.86979 -2.60416,-1.74479 -6.0677,-1.74479 -1.95313,0 -3.645833,0.625 -1.666666,0.625 -2.968749,1.77083 -1.302082,1.11979 -2.135415,2.65625 h -0.104167 v -2.76041 q 0,-1.01563 -0.598957,-1.64063 -0.598958,-0.65104 -1.536458,-0.65104 -0.963541,0 -1.562499,0.65104 -0.598958,0.625 -0.598958,1.64063 v 32.39581 q 0,1.06771 0.625,1.74479 0.651041,0.67708 1.640624,0.67708 z m 9.999992,-13.0729 q -2.31771,0 -4.062496,-1.25 -1.74479,-1.25 -2.734373,-3.48959 -0.963541,-2.26562 -0.963541,-5.28645 0,-3.02083 0.963541,-5.26041 0.989583,-2.26563 2.734373,-3.51563 1.744786,-1.25 4.062496,-1.25 2.42188,0 4.16667,1.25 1.77083,1.22396 2.70833,3.46354 0.96354,2.23958 0.96354,5.3125 0,3.07291 -0.96354,5.33854 -0.9375,2.23958 -2.70833,3.46354 -1.74479,1.22396 -4.16667,1.22396 z m 17.53124,3.98437 q 0.98959,0 1.61458,-0.67708 0.65105,-0.67709 0.65105,-1.7448 v -13.82811 q 0,-2.34375 0.88541,-4.08854 0.88542,-1.74479 2.52604,-2.70833 1.64063,-0.96354 3.88021,-0.96354 3.17708,0 4.79166,1.82291 1.61458,1.82292 1.61458,5.05208 v 14.71353 q 0,1.06771 0.625,1.7448 0.65105,0.67708 1.64063,0.67708 0.98958,0 1.61458,-0.67708 0.65104,-0.67709 0.65104,-1.7448 v -15.54686 q 0,-4.53125 -2.55208,-7.29166 -2.52604,-2.76042 -6.97916,-2.76042 -3.07292,0 -5.26042,1.27604 -2.18749,1.25 -3.33333,3.51563 h -0.10416 v -12.91666 q 0,-1.06771 -0.625,-1.71875 -0.59896,-0.65104 -1.64063,-0.65104 -1.01562,0 -1.64062,0.65104 -0.625,0.65104 -0.625,1.71875 v 33.72393 q 0,1.06771 0.625,1.7448 0.65104,0.67708 1.64062,0.67708 z m 32.1406,0 q 1.82292,0 3.51562,-0.625 1.69271,-0.65104 3.04688,-1.79688 1.35416,-1.17187 2.16145,-2.70833 h 0.10417 q 0,0.70313 0,1.43229 0,0.70313 0,1.40625 0,1.01563 0.59896,1.66667 0.59896,0.625 1.5625,0.625 0.9375,0 1.53646,-0.625 0.59895,-0.65104 0.59895,-1.66667 v -16.90103 q 0,-2.70833 -1.27604,-4.6875 -1.25,-1.97916 -3.59375,-3.04687 -2.3177,-1.09375 -5.49478,-1.09375 -3.30729,0 -6.04167,1.35417 -2.70833,1.32812 -3.85416,3.5677 -0.54688,0.96354 -0.54688,1.875 0,0.91146 0.54688,1.48438 0.57292,0.54687 1.45833,0.54687 1.27604,0 1.875,-1.09375 1.14583,-2.00521 2.68229,-2.86458 1.5625,-0.88542 3.77604,-0.88542 2.8125,0 4.375,1.40625 1.5625,1.40625 1.5625,3.88021 v 2.26562 l -7.78646,0.44271 q -4.68749,0.26042 -7.26562,2.34375 -2.55208,2.08333 -2.55208,5.57291 0,2.42188 1.11979,4.27083 1.14583,1.82292 3.17708,2.83854 2.03125,1.01563 4.71354,1.01563 z m 1.01563,-3.85417 q -2.44792,0 -3.93229,-1.17187 -1.48438,-1.17187 -1.48438,-3.09896 0,-1.92708 1.48438,-3.07291 1.51041,-1.14583 4.24479,-1.32813 l 7.26562,-0.4427 v 2.21354 q 0,1.95312 -1.01563,3.51562 -0.98958,1.5625 -2.70833,2.47396 -1.71875,0.91145 -3.85416,0.91145 z m 27.21874,3.85417 q 3.72396,0 6.45833,-1.48438 2.73437,-1.51041 4.03645,-4.27083 0.33855,-0.80729 0.33855,-1.32812 0,-0.91146 -0.54688,-1.43229 -0.54687,-0.54688 -1.45833,-0.54688 -0.52083,0 -0.9375,0.20834 -0.39063,0.20833 -0.75521,0.70312 -1.58854,2.29167 -3.2552,3.25521 -1.64063,0.96354 -4.0625,0.96354 -3.61979,0 -5.72917,-2.36979 -2.10937,-2.39583 -2.10937,-6.48437 0,0 0,0 0,0 0,0 h 16.92707 q 1.17188,0 1.82292,-0.70313 0.67708,-0.70312 0.67708,-1.92708 0,-3.72396 -1.51041,-6.5625 -1.51042,-2.83854 -4.16667,-4.42708 -2.65625,-1.61458 -6.11979,-1.61458 -3.72395,0 -6.51041,1.74479 -2.76041,1.74479 -4.27083,4.92187 -1.51042,3.17709 -1.51042,7.44792 0,6.56249 3.33334,10.23437 3.35937,3.67187 9.34895,3.67187 z m -7.99479,-16.32812 q 0.15625,-2.34375 1.14583,-4.08854 0.98959,-1.74479 2.63021,-2.70833 1.64063,-0.96354 3.75,-0.96354 2.10937,0 3.69791,0.96354 1.58854,0.96354 2.5,2.70833 0.9375,1.74479 0.98959,4.08854 z m 31.35935,16.32812 q 3.22917,0 5.65104,-1.01563 2.42188,-1.01562 3.77604,-2.83854 1.35417,-1.82291 1.35417,-4.24479 0,-2.99479 -1.74479,-4.63541 -1.74479,-1.66667 -5.98958,-2.70833 l -4.03646,-0.98958 q -2.21354,-0.54688 -3.33333,-1.51042 -1.09375,-0.98958 -1.09375,-2.39583 0,-1.74479 1.53646,-2.83854 1.53645,-1.11979 3.98437,-1.11979 2.08333,0 3.4375,0.78125 1.35416,0.78125 2.23958,2.47395 0.36458,0.70313 0.85937,0.96354 0.4948,0.26042 1.14584,0.26042 0.83333,0 1.30208,-0.46875 0.46875,-0.49479 0.46875,-1.30208 0,-0.28646 -0.0781,-0.67708 -0.33854,-1.64063 -1.66666,-2.94271 -1.32813,-1.30208 -3.28125,-2.05729 -1.92708,-0.75521 -4.16666,-0.75521 -4.58333,0 -7.42187,2.1875 -2.83854,2.1875 -2.83854,5.72916 0,2.83854 1.90104,4.71354 1.92708,1.875 5.85937,2.86458 l 4.14062,1.04167 q 2.29167,0.57292 3.22917,1.43229 0.93749,0.85938 0.93749,2.31771 0,1.25 -0.72916,2.16145 -0.72917,0.91146 -2.03125,1.40625 -1.30208,0.46875 -3.04687,0.46875 -2.60417,0 -4.01042,-0.83333 -1.40625,-0.83333 -2.42187,-2.60416 -0.75521,-1.35417 -1.97917,-1.35417 -0.88541,0 -1.48437,0.49479 -0.57292,0.46875 -0.57292,1.38021 0,0.54687 0.20834,1.06771 0.98958,2.52604 3.61979,4.03645 2.65624,1.51042 6.27603,1.51042 z m 14.87499,-6.71875 q 0,3.22917 1.64062,4.84375 1.64063,1.61458 4.92187,1.61458 h 0.28646 q 1.27604,0 1.97917,-0.23437 0.72916,-0.23438 1.01562,-0.70313 0.3125,-0.49479 0.3125,-1.17187 0,-0.80729 -0.52083,-1.25 -0.52083,-0.44271 -1.64063,-0.52083 l -0.39062,-0.026 q -1.69271,-0.1302 -2.39583,-0.96354 -0.67709,-0.85937 -0.67709,-2.57812 v -16.11978 h 3.48959 q 0.98958,0 1.51041,-0.49479 0.52083,-0.4948 0.52083,-1.38021 0,-0.88542 -0.52083,-1.35417 -0.52083,-0.49479 -1.51041,-0.49479 h -3.48959 v -4.63541 q 0,-1.06771 -0.65104,-1.74479 -0.625,-0.67709 -1.61458,-0.67709 -0.98958,0 -1.64062,0.67709 -0.625,0.67708 -0.625,1.74479 v 4.63541 h -2.26563 q -0.96354,0 -1.51041,0.49479 -0.52083,0.46875 -0.52083,1.35417 0,0.88541 0.52083,1.38021 0.54687,0.49479 1.51041,0.49479 h 2.26563 z m 21.85415,6.71875 q 2.08334,0 3.72396,-0.54688 1.64062,-0.57291 2.83854,-1.66666 1.22396,-1.09375 2.03125,-2.65625 h 0.10417 v 2.57812 q 0,0.96354 0.59895,1.64063 0.59896,0.65104 1.5625,0.65104 0.98959,0 1.5625,-0.65104 0.57292,-0.67709 0.57292,-1.64063 v -23.30728 q 0,-1.0677 -0.65104,-1.74479 -0.625,-0.67708 -1.61459,-0.67708 -0.98958,0 -1.64062,0.67708 -0.625,0.67709 -0.625,1.74479 v 13.95833 q 0,2.29167 -0.85937,4.01041 -0.83334,1.71875 -2.42188,2.68229 -1.5625,0.9375 -3.77604,0.9375 -3.15104,0 -4.71354,-1.71875 -1.53645,-1.74479 -1.53645,-5.05208 v -14.8177 q 0,-1.0677 -0.65104,-1.74479 -0.625,-0.67708 -1.61459,-0.67708 -0.98958,0 -1.64062,0.67708 -0.625,0.67709 -0.625,1.74479 v 15.625 q 0,3.07291 1.09375,5.31249 1.11979,2.23958 3.22916,3.46354 2.10938,1.19792 5.05208,1.19792 z m 26.25519,0 q 3.22917,0 5.65104,-1.01563 2.42187,-1.01562 3.77604,-2.83854 1.35417,-1.82291 1.35417,-4.24479 0,-2.99479 -1.74479,-4.63541 -1.7448,-1.66667 -5.98958,-2.70833 l -4.03646,-0.98958 q -2.21354,-0.54688 -3.33333,-1.51042 -1.09375,-0.98958 -1.09375,-2.39583 0,-1.74479 1.53646,-2.83854 1.53645,-1.11979 3.98437,-1.11979 2.08333,0 3.4375,0.78125 1.35416,0.78125 2.23958,2.47395 0.36458,0.70313 0.85937,0.96354 0.49479,0.26042 1.14584,0.26042 0.83333,0 1.30208,-0.46875 0.46875,-0.49479 0.46875,-1.30208 0,-0.28646 -0.0781,-0.67708 -0.33854,-1.64063 -1.66666,-2.94271 -1.32813,-1.30208 -3.28125,-2.05729 -1.92708,-0.75521 -4.16666,-0.75521 -4.58334,0 -7.42188,2.1875 -2.83854,2.1875 -2.83854,5.72916 0,2.83854 1.90105,4.71354 1.92708,1.875 5.85937,2.86458 l 4.14062,1.04167 q 2.29166,0.57292 3.22916,1.43229 0.9375,0.85938 0.9375,2.31771 0,1.25 -0.72916,2.16145 -0.72917,0.91146 -2.03125,1.40625 -1.30208,0.46875 -3.04687,0.46875 -2.60417,0 -4.01042,-0.83333 -1.40625,-0.83333 -2.42187,-2.60416 -0.75521,-1.35417 -1.97917,-1.35417 -0.88541,0 -1.48437,0.49479 -0.57292,0.46875 -0.57292,1.38021 0,0.54687 0.20833,1.06771 0.98959,2.52604 3.61979,4.03645 2.65625,1.51042 6.27604,1.51042 z"
           id="text6"
           style="font-size:53.3333px;line-height:0;font-family:'.SF NS Rounded';-inkscape-font-specification:'.SF NS Rounded weight=508';letter-spacing:-2px;word-spacing:100px;white-space:pre;stroke-width:0"
           transform="matrix(0.75,0,0,0.75,408.07823,282.99013)"
           aria-label="Hephaestus" /></g></g></g></svg>
