<svg version="1.1" xmlns="http://www.w3.org/2000/svg" xmlns:xlink="http://www.w3.org/1999/xlink" width="1109" height="884"><defs/><g><g><rect fill="#fffafa" stroke="none" x="512" y="208" width="800" height="864" transform="matrix(1 0 0 1 -214 -198)"/></g><g><path fill="none" stroke="#000000" paint-order="fill stroke markers" d=" M 298 10 L 1098 10 L 1098 874 L 298 874 L 298 10 Z Z" stroke-miterlimit="10" stroke-dasharray=""/></g><g><g><path fill="none" stroke="none"/><text fill="#000000" stroke="none" font-family="Inter" font-size="14px" font-style="normal" font-weight="bold" text-decoration="undefined" x="912.5" y="222" text-anchor="middle" dominant-baseline="central" transform="matrix(1 0 0 1 -214 -198)">Hephaestus</text></g></g><g><path fill="#fffafa" stroke="none" paint-order="stroke fill markers" d=" M 58.740154407848024 375.9200000000001 C 58.740154407848024 364.3662019840001 67.80711983272073 355 78.99179077148438 355 C 90.17646171024802 355 99.24342713512073 364.3662019840001 99.24342713512073 375.9200000000001 C 99.24342713512073 387.47379801600005 90.17646171024802 396.84000000000003 78.99179077148438 396.84000000000003 C 67.80711983272073 396.84000000000003 58.740154407848024 387.47379801600005 58.740154407848024 375.9200000000001 Z"/></g><g><path fill="none" stroke="#000000" paint-order="fill stroke markers" d=" M 58.740154407848024 375.9200000000001 C 58.740154407848024 364.3662019840001 67.80711983272073 355 78.99179077148438 355 C 90.17646171024802 355 99.24342713512073 364.3662019840001 99.24342713512073 375.9200000000001 C 99.24342713512073 387.47379801600005 90.17646171024802 396.84000000000003 78.99179077148438 396.84000000000003 C 67.80711983272073 396.84000000000003 58.740154407848024 387.47379801600005 58.740154407848024 375.9200000000001 Z" stroke-miterlimit="10" stroke-dasharray=""/></g><g><path fill="none" stroke="#000000" paint-order="fill stroke markers" d=" M 78.99179077148438 396.84000000000003 L 78.99179077148438 437.15999999999997" stroke-miterlimit="10" stroke-dasharray=""/></g><g><path fill="none" stroke="#000000" paint-order="fill stroke markers" d=" M 57.54888168057528 411.96000000000004 L 100.43469986239347 411.96000000000004" stroke-miterlimit="10" stroke-dasharray=""/></g><g><path fill="none" stroke="#000000" paint-order="fill stroke markers" d=" M 78.99179077148438 437.15999999999997 L 49.20997258966622 479" stroke-miterlimit="10" stroke-dasharray=""/></g><g><path fill="none" stroke="#000000" paint-order="fill stroke markers" d=" M 78.99179077148438 437.15999999999997 L 108.77360895330253 479" stroke-miterlimit="10" stroke-dasharray=""/></g><g><g><path fill="none" stroke="none"/><text fill="#000000" stroke="none" font-family="Inter" font-size="14px" font-style="normal" font-weight="bold" text-decoration="undefined" x="293.4917907714844" y="692" text-anchor="middle" dominant-baseline="central" transform="matrix(1 0 0 1 -214 -198)">Developer</text></g></g><g><path fill="#fffafa" stroke="none" paint-order="stroke fill markers" d=" M 346 146 C 346 128.32688639999998 388.53294400000004 114 441 114 C 493.46705599999996 114 536 128.32688639999998 536 146 C 536 163.67311360000002 493.46705599999996 178 441 178 C 388.53294400000004 178 346 163.67311360000002 346 146 Z"/></g><g><path fill="none" stroke="#000000" paint-order="fill stroke markers" d=" M 346 146 C 346 128.32688639999998 388.53294400000004 114 441 114 C 493.46705599999996 114 536 128.32688639999998 536 146 C 536 163.67311360000002 493.46705599999996 178 441 178 C 388.53294400000004 178 346 163.67311360000002 346 146 Z" stroke-miterlimit="10" stroke-dasharray=""/></g><g><g><path fill="none" stroke="none"/><text fill="#000000" stroke="none" font-family="Inter" font-size="14px" font-style="normal" font-weight="bold" text-decoration="undefined" x="655" y="345" text-anchor="middle" dominant-baseline="central" transform="matrix(1 0 0 1 -214 -198)">View Leaderboard</text></g></g><g><path fill="#fffafa" stroke="none" paint-order="stroke fill markers" d=" M 346 378 C 346 360.32688640000003 410.69484639999996 346 490.5 346 C 570.3051536 346 635 360.32688640000003 635 378 C 635 395.67311359999997 570.3051536 410 490.5 410 C 410.69484639999996 410 346 395.67311359999997 346 378 Z"/></g><g><path fill="none" stroke="#000000" paint-order="fill stroke markers" d=" M 346 378 C 346 360.32688640000003 410.69484639999996 346 490.5 346 C 570.3051536 346 635 360.32688640000003 635 378 C 635 395.67311359999997 570.3051536 410 490.5 410 C 410.69484639999996 410 346 395.67311359999997 346 378 Z" stroke-miterlimit="10" stroke-dasharray=""/></g><g><g><path fill="none" stroke="none"/><text fill="#000000" stroke="none" font-family="Inter" font-size="14px" font-style="normal" font-weight="bold" text-decoration="undefined" x="704.5" y="577" text-anchor="middle" dominant-baseline="central" transform="matrix(1 0 0 1 -214 -198)">Export Formatted Data</text></g></g><g><path fill="#fffafa" stroke="none" paint-order="stroke fill markers" d=" M 546 458 C 546 440.32688640000003 598.1588208000001 426 662.5 426 C 726.8411791999999 426 779 440.32688640000003 779 458 C 779 475.67311359999997 726.8411791999999 490 662.5 490 C 598.1588208000001 490 546 475.67311359999997 546 458 Z"/></g><g><path fill="none" stroke="#000000" paint-order="fill stroke markers" d=" M 546 458 C 546 440.32688640000003 598.1588208000001 426 662.5 426 C 726.8411791999999 426 779 440.32688640000003 779 458 C 779 475.67311359999997 726.8411791999999 490 662.5 490 C 598.1588208000001 490 546 475.67311359999997 546 458 Z" stroke-miterlimit="10" stroke-dasharray=""/></g><g><g><path fill="none" stroke="none"/><text fill="#000000" stroke="none" font-family="Inter" font-size="14px" font-style="normal" font-weight="bold" text-decoration="undefined" x="876.5" y="657" text-anchor="middle" dominant-baseline="central" transform="matrix(1 0 0 1 -214 -198)">View Profile</text></g></g><g><path fill="#fffafa" stroke="none" paint-order="stroke fill markers" d=" M 602 194 C 602 176.32688639999998 643.413656 162 694.5 162 C 745.586344 162 787 176.32688639999998 787 194 C 787 211.67311360000002 745.586344 226 694.5 226 C 643.413656 226 602 211.67311360000002 602 194 Z"/></g><g><path fill="none" stroke="#000000" paint-order="fill stroke markers" d=" M 602 194 C 602 176.32688639999998 643.413656 162 694.5 162 C 745.586344 162 787 176.32688639999998 787 194 C 787 211.67311360000002 745.586344 226 694.5 226 C 643.413656 226 602 211.67311360000002 602 194 Z" stroke-miterlimit="10" stroke-dasharray=""/></g><g><g><path fill="none" stroke="none"/><text fill="#000000" stroke="none" font-family="Inter" font-size="14px" font-style="normal" font-weight="bold" text-decoration="undefined" x="908.5" y="393" text-anchor="middle" dominant-baseline="central" transform="matrix(1 0 0 1 -214 -198)">Select Timeframe</text></g></g><g><path fill="#fffafa" stroke="none" paint-order="stroke fill markers" d=" M 602 90 C 602 72.32688639999998 643.413656 58 694.5 58 C 745.586344 58 787 72.32688639999998 787 90 C 787 107.67311360000002 745.586344 122 694.5 122 C 643.413656 122 602 107.67311360000002 602 90 Z"/></g><g><path fill="none" stroke="#000000" paint-order="fill stroke markers" d=" M 602 90 C 602 72.32688639999998 643.413656 58 694.5 58 C 745.586344 58 787 72.32688639999998 787 90 C 787 107.67311360000002 745.586344 122 694.5 122 C 643.413656 122 602 107.67311360000002 602 90 Z" stroke-miterlimit="10" stroke-dasharray=""/></g><g><g><path fill="none" stroke="none"/><text fill="#000000" stroke="none" font-family="Inter" font-size="14px" font-style="normal" font-weight="bold" text-decoration="undefined" x="908.5" y="289" text-anchor="middle" dominant-baseline="central" transform="matrix(1 0 0 1 -214 -198)">Select Team</text></g></g><g><path fill="none" stroke="#000000" paint-order="fill stroke markers" d=" M 537 125 L 601 111" stroke-miterlimit="10" stroke-dasharray="3"/></g><g><path fill="none" stroke="#000000" paint-order="fill stroke markers" d=" M 591.9716435605311 117.28400986647063 L 601 111 L 590.1725219490578 109.05945392830682" stroke-miterlimit="10" stroke-dasharray=""/></g><g><rect fill="#fffafa" stroke="none" x="745" y="295" width="62.74140930175781" height="14" transform="matrix(1 0 0 1 -214 -198)"/></g><g><g><path fill="none" stroke="none"/><text fill="#000000" stroke="none" font-family="Inter" font-size="14px" font-style="normal" font-weight="normal" text-decoration="undefined" x="776.3707046508789" y="302" text-anchor="middle" dominant-baseline="central" transform="matrix(1 0 0 1 -214 -198)">«include»</text></g></g><g><path fill="none" stroke="#000000" paint-order="fill stroke markers" d=" M 537 164 L 601 176" stroke-miterlimit="10" stroke-dasharray="3"/></g><g><path fill="none" stroke="#000000" paint-order="fill stroke markers" d=" M 590.2356236770605 178.2645534610914 L 601 176 L 591.7871553981084 169.9897176155028" stroke-miterlimit="10" stroke-dasharray=""/></g><g><rect fill="#fffafa" stroke="none" x="738" y="375" width="62.74140930175781" height="14" transform="matrix(1 0 0 1 -214 -198)"/></g><g><g><path fill="none" stroke="none"/><text fill="#000000" stroke="none" font-family="Inter" font-size="14px" font-style="normal" font-weight="normal" text-decoration="undefined" x="769.3707046508789" y="382" text-anchor="middle" dominant-baseline="central" transform="matrix(1 0 0 1 -214 -198)">«include»</text></g></g><g><path fill="none" stroke="#000000" paint-order="fill stroke markers" d=" M 149 374 L 399 179" stroke-miterlimit="10" stroke-dasharray=""/></g><g><path fill="none" stroke="#000000" paint-order="fill stroke markers" d=" M 149 421 L 345 396" stroke-miterlimit="10" stroke-dasharray=""/></g><g><path fill="none" stroke="#000000" paint-order="fill stroke markers" d=" M 149 433 L 545 452" stroke-miterlimit="10" stroke-dasharray=""/></g><g><path fill="#fffafa" stroke="none" paint-order="stroke fill markers" d=" M 426 570 C 426 552.3268864 472.11466559999997 538 529 538 C 585.8853344 538 632 552.3268864 632 570 C 632 587.6731136 585.8853344 602 529 602 C 472.11466559999997 602 426 587.6731136 426 570 Z"/></g><g><path fill="none" stroke="#000000" paint-order="fill stroke markers" d=" M 426 570 C 426 552.3268864 472.11466559999997 538 529 538 C 585.8853344 538 632 552.3268864 632 570 C 632 587.6731136 585.8853344 602 529 602 C 472.11466559999997 602 426 587.6731136 426 570 Z" stroke-miterlimit="10" stroke-dasharray=""/></g><g><g><path fill="none" stroke="none"/><text fill="#000000" stroke="none" font-family="Inter" font-size="14px" font-style="normal" font-weight="bold" text-decoration="undefined" x="743" y="769" text-anchor="middle" dominant-baseline="central" transform="matrix(1 0 0 1 -214 -198)">View Achievements</text></g></g><g><path fill="none" stroke="#000000" paint-order="fill stroke markers" d=" M 149 452 L 425 538" stroke-miterlimit="10" stroke-dasharray=""/></g><g><path fill="none" stroke="#000000" paint-order="fill stroke markers" d=" M 568 537 L 623 491" stroke-miterlimit="10" stroke-dasharray="3"/></g><g><path fill="none" stroke="#000000" paint-order="fill stroke markers" d=" M 617.9050851857688 500.7489406109447 L 623 491 L 612.5038091699054 494.2908932006733" stroke-miterlimit="10" stroke-dasharray=""/></g><g><rect fill="#fffafa" stroke="none" x="740" y="701" width="62.74140930175781" height="14" transform="matrix(1 0 0 1 -214 -198)"/></g><g><g><path fill="none" stroke="none"/><text fill="#000000" stroke="none" font-family="Inter" font-size="14px" font-style="normal" font-weight="normal" text-decoration="undefined" x="771.3707046508789" y="708" text-anchor="middle" dominant-baseline="central" transform="matrix(1 0 0 1 -214 -198)">«include»</text></g></g><g><path fill="#fffafa" stroke="none" paint-order="stroke fill markers" d=" M 346 790 C 346 770.1177472 421.2161536 754 514 754 C 606.7838464 754 682 770.1177472 682 790 C 682 809.8822528 606.7838464 826 514 826 C 421.2161536 826 346 809.8822528 346 790 Z"/></g><g><path fill="none" stroke="#000000" paint-order="fill stroke markers" d=" M 346 790 C 346 770.1177472 421.2161536 754 514 754 C 606.7838464 754 682 770.1177472 682 790 C 682 809.8822528 606.7838464 826 514 826 C 421.2161536 826 346 809.8822528 346 790 Z" stroke-miterlimit="10" stroke-dasharray=""/></g><g><g><path fill="none" stroke="none"/><text fill="#000000" stroke="none" font-family="Inter" font-size="14px" font-style="normal" font-weight="bold" text-decoration="undefined" x="728" y="989" text-anchor="middle" dominant-baseline="central" transform="matrix(1 0 0 1 -214 -198)">Receive Leaderboard Notification</text></g></g><g><path fill="#fffafa" stroke="none" paint-order="stroke fill markers" d=" M 418 666 C 418 648.3268864 472.845112 634 540.5 634 C 608.154888 634 663 648.3268864 663 666 C 663 683.6731136 608.154888 698 540.5 698 C 472.845112 698 418 683.6731136 418 666 Z"/></g><g><path fill="none" stroke="#000000" paint-order="fill stroke markers" d=" M 418 666 C 418 648.3268864 472.845112 634 540.5 634 C 608.154888 634 663 648.3268864 663 666 C 663 683.6731136 608.154888 698 540.5 698 C 472.845112 698 418 683.6731136 418 666 Z" stroke-miterlimit="10" stroke-dasharray=""/></g><g><g><path fill="none" stroke="none"/><text fill="#000000" stroke="none" font-family="Inter" font-size="14px" font-style="normal" font-weight="bold" text-decoration="undefined" x="754.5" y="865" text-anchor="middle" dominant-baseline="central" transform="matrix(1 0 0 1 -214 -198)">Participate in Challenge</text></g></g><g><path fill="none" stroke="#000000" paint-order="fill stroke markers" d=" M 149 466 L 475 633" stroke-miterlimit="10" stroke-dasharray=""/></g><g><path fill="#FFFAFA" stroke="none" paint-order="stroke fill markers" d=" M 386 274 C 386 251.90860800000002 430.77152 234 486 234 C 541.22848 234 586 251.90860800000002 586 274 C 586 296.091392 541.22848 314 486 314 C 430.77152 314 386 296.091392 386 274 Z"/></g><g><path fill="none" stroke="#000000" paint-order="fill stroke markers" d=" M 386 274 C 386 251.90860800000002 430.77152 234 486 234 C 541.22848 234 586 251.90860800000002 586 274 C 586 296.091392 541.22848 314 486 314 C 430.77152 314 386 296.091392 386 274 Z" stroke-miterlimit="10" stroke-dasharray=""/></g><g><g><path fill="none" stroke="none"/><text fill="#000000" stroke="none" font-family="Inter" font-size="14px" font-style="normal" font-weight="bold" text-decoration="undefined" x="700" y="473" text-anchor="middle" dominant-baseline="central" transform="matrix(1 0 0 1 -214 -198)">View Leagues</text></g></g><g><path fill="none" stroke="#000000" paint-order="fill stroke markers" d=" M 149 489 L 469 753" stroke-miterlimit="10" stroke-dasharray=""/></g><g><path fill="none" stroke="#000000" paint-order="fill stroke markers" d=" M 149 403 L 385 313" stroke-miterlimit="10" stroke-dasharray=""/></g></g></svg>