<svg version="1.1" xmlns="http://www.w3.org/2000/svg" xmlns:xlink="http://www.w3.org/1999/xlink" width="720" height="372"><defs/><g><g><path fill="none" stroke="#000000" paint-order="fill stroke markers" d=" M 18 10 L 710 10 L 710 362 L 18 362 L 18 10" stroke-miterlimit="10" stroke-dasharray=""/></g><g><path fill="#ffffff" stroke="none" paint-order="stroke fill markers" d=" M 18 10 L 18 33 L 190.0888671875 33 L 201.5888671875 21.5 L 201.5888671875 10 L 18 10"/></g><g><path fill="none" stroke="#000000" paint-order="fill stroke markers" d=" M 18 10 L 18 33 L 190.0888671875 33 L 201.5888671875 21.5 L 201.5888671875 10 L 18 10 L 18 10" stroke-miterlimit="10" stroke-dasharray=""/></g><g><g><path fill="none" stroke="none"/><text fill="#000000" stroke="none" font-family="Arial" font-size="13px" font-style="normal" font-weight="normal" text-decoration="undefined" x="119.909423828125" y="19.5" text-anchor="middle" dominant-baseline="central" transform="matrix(1 0 0 1 -6 2)">Login Authorization Flow</text></g></g><g><g><path fill="none" stroke="none"/><text fill="#000000" stroke="none" font-family="Arial" font-size="13px" font-style="normal" font-weight="bold" text-decoration="undefined" x="35.864990234375" y="19.5" text-anchor="middle" dominant-baseline="central" transform="matrix(1 0 0 1 -6 2)">sd</text></g></g><g><rect fill="#ffffff" stroke="none" x="120" y="40" width="87.1708984375" height="40" transform="matrix(1 0 0 1 -6 2)"/></g><g><path fill="none" stroke="#000000" paint-order="fill stroke markers" d=" M 114 42 L 201.1708984375 42 L 201.1708984375 82 L 114 82 L 114 42 Z Z" stroke-miterlimit="10" stroke-dasharray=""/></g><g><g><path fill="none" stroke="none"/><text fill="#000000" stroke="none" font-family="Arial" font-size="13px" font-style="normal" font-weight="bold" text-decoration="undefined" x="164.08544921875" y="53.5" text-anchor="middle" dominant-baseline="central" transform="matrix(1 0 0 1 -6 2)">Client</text></g></g><g><path fill="none" stroke="#000000" paint-order="fill stroke markers" d=" M 158.5 83 L 158.5 330" stroke-miterlimit="10" stroke-dasharray="3"/></g><g><rect fill="#ffffff" stroke="none" x="472" y="40" width="176" height="40" transform="matrix(1 0 0 1 -6 2)"/></g><g><path fill="none" stroke="#000000" paint-order="fill stroke markers" d=" M 466 42 L 642 42 L 642 82 L 466 82 L 466 42 Z Z" stroke-miterlimit="10" stroke-dasharray=""/></g><g><g><path fill="none" stroke="none"/><text fill="#000000" stroke="none" font-family="Arial" font-size="13px" font-style="normal" font-weight="bold" text-decoration="undefined" x="560.5" y="53.5" text-anchor="middle" dominant-baseline="central" transform="matrix(1 0 0 1 -6 2)">Hephaestus Keycloak</text><text fill="#000000" stroke="none" font-family="Arial" font-size="13px" font-style="normal" font-weight="bold" text-decoration="undefined" x="560.5" y="66.5" text-anchor="middle" dominant-baseline="central" transform="matrix(1 0 0 1 -6 2)">Instance</text></g></g><g><path fill="none" stroke="#000000" paint-order="fill stroke markers" d=" M 554.5 83 L 554.5 330" stroke-miterlimit="10" stroke-dasharray="3"/></g><g><rect fill="#ffffff" stroke="none" x="272" y="40" width="149.2890625" height="40" transform="matrix(1 0 0 1 -6 2)"/></g><g><path fill="none" stroke="#000000" paint-order="fill stroke markers" d=" M 266 42 L 415.2890625 42 L 415.2890625 82 L 266 82 L 266 42 Z Z" stroke-miterlimit="10" stroke-dasharray=""/></g><g><g><path fill="none" stroke="none"/><text fill="#000000" stroke="none" font-family="Arial" font-size="13px" font-style="normal" font-weight="bold" text-decoration="undefined" x="347.14453125" y="53.5" text-anchor="middle" dominant-baseline="central" transform="matrix(1 0 0 1 -6 2)">Github OAuth Server</text></g></g><g><path fill="none" stroke="#000000" paint-order="fill stroke markers" d=" M 341.5 83 L 341.5 330" stroke-miterlimit="10" stroke-dasharray="3"/></g><g><rect fill="#FFFFFF00" stroke="none" x="16" y="88.5" width="15" height="15" transform="matrix(1 0 0 1 -6 2)"/></g><g><path fill="none" stroke="#FFFFFF00" paint-order="fill stroke markers" d=" M 10 90.5 L 25 90.5 L 25 105.5 L 10 105.5 L 10 90.5 Z Z" stroke-miterlimit="10" stroke-dasharray=""/></g><g><path fill="none" stroke="#FFFFFF00" paint-order="fill stroke markers" d=" M 25 98 L 151 98" stroke-miterlimit="10" stroke-dasharray=""/></g><g><path fill="#FFFFFF00" stroke="none" paint-order="stroke fill markers" d=" M 140.83732514237585 102.20951775601598 L 151 98 L 140.83732514237585 93.79048224398402"/></g><g><path fill="none" stroke="#FFFFFF00" paint-order="fill stroke markers" d=" M 140.83732514237585 102.20951775601598 L 151 98 L 140.83732514237585 93.79048224398402 L 140.83732514237585 102.20951775601598" stroke-miterlimit="10" stroke-dasharray=""/></g><g><rect fill="#FFFFFF00" stroke="none" x="55" y="80" width="78.04443359375" height="13" transform="matrix(1 0 0 1 -6 2)"/></g><g><g><path fill="none" stroke="none"/><text fill="#FFFFFF00" stroke="none" font-family="Arial" font-size="13px" font-style="normal" font-weight="normal" text-decoration="undefined" x="94.022216796875" y="86.5" text-anchor="middle" dominant-baseline="central" transform="matrix(1 0 0 1 -6 2)">1 : Message1</text></g></g><g><rect fill="#ffffff" stroke="none" x="157" y="96" width="14" height="216" transform="matrix(1 0 0 1 -6 2)"/></g><g><path fill="none" stroke="#000000" paint-order="fill stroke markers" d=" M 151 98 L 165 98 L 165 314 L 151 314 L 151 98 Z Z" stroke-miterlimit="10" stroke-dasharray=""/></g><g><path fill="none" stroke="#000000" paint-order="fill stroke markers" d=" M 165 122 L 334 122" stroke-miterlimit="10" stroke-dasharray=""/></g><g><path fill="#000000" stroke="none" paint-order="stroke fill markers" d=" M 323.83732514237585 126.20951775601598 L 334 122 L 323.83732514237585 117.79048224398402"/></g><g><path fill="none" stroke="#000000" paint-order="fill stroke markers" d=" M 323.83732514237585 126.20951775601598 L 334 122 L 323.83732514237585 117.79048224398402 L 323.83732514237585 126.20951775601598" stroke-miterlimit="10" stroke-dasharray=""/></g><g><rect fill="#ffffff" stroke="none" x="180" y="104" width="150.2998046875" height="13" transform="matrix(1 0 0 1 -6 2)"/></g><g><g><path fill="none" stroke="none"/><text fill="#000000" stroke="none" font-family="Arial" font-size="13px" font-style="normal" font-weight="normal" text-decoration="undefined" x="255.14990234375" y="110.5" text-anchor="middle" dominant-baseline="central" transform="matrix(1 0 0 1 -6 2)">2 : Request Access Token</text></g></g><g><rect fill="#ffffff" stroke="none" x="340" y="120" width="14" height="28" transform="matrix(1 0 0 1 -6 2)"/></g><g><path fill="none" stroke="#000000" paint-order="fill stroke markers" d=" M 334 122 L 348 122 L 348 150 L 334 150 L 334 122 Z Z" stroke-miterlimit="10" stroke-dasharray=""/></g><g><path fill="none" stroke="#000000" paint-order="fill stroke markers" d=" M 334 146 L 165 146" stroke-miterlimit="10" stroke-dasharray="3"/></g><g><path fill="none" stroke="#000000" paint-order="fill stroke markers" d=" M 175.16267485762415 141.790482243984 L 165 146 L 175.16267485762415 150.209517756016" stroke-miterlimit="10" stroke-dasharray=""/></g><g><rect fill="#ffffff" stroke="none" x="181" y="148" width="147.39892578125" height="13" transform="matrix(1 0 0 1 -6 2)"/></g><g><g><path fill="none" stroke="none"/><text fill="#000000" stroke="none" font-family="Arial" font-size="13px" font-style="normal" font-weight="normal" text-decoration="undefined" x="254.699462890625" y="154.5" text-anchor="middle" dominant-baseline="central" transform="matrix(1 0 0 1 -6 2)">3 : Returns Access Token</text></g></g><g><path fill="none" stroke="#000000" paint-order="fill stroke markers" d=" M 165 202 L 547 202" stroke-miterlimit="10" stroke-dasharray=""/></g><g><path fill="#000000" stroke="none" paint-order="stroke fill markers" d=" M 536.8373251423759 206.209517756016 L 547 202 L 536.8373251423758 197.790482243984"/></g><g><path fill="none" stroke="#000000" paint-order="fill stroke markers" d=" M 536.8373251423759 206.209517756016 L 547 202 L 536.8373251423758 197.790482243984 L 536.8373251423759 206.209517756016" stroke-miterlimit="10" stroke-dasharray=""/></g><g><rect fill="#ffffff" stroke="none" x="314" y="184" width="96.80810546875" height="13" transform="matrix(1 0 0 1 -6 2)"/></g><g><g><path fill="none" stroke="none"/><text fill="#000000" stroke="none" font-family="Arial" font-size="13px" font-style="normal" font-weight="normal" text-decoration="undefined" x="362.404052734375" y="190.5" text-anchor="middle" dominant-baseline="central" transform="matrix(1 0 0 1 -6 2)">4 : Request JWT</text></g></g><g><rect fill="#ffffff" stroke="none" x="553" y="200" width="14" height="112" transform="matrix(1 0 0 1 -6 2)"/></g><g><path fill="none" stroke="#000000" paint-order="fill stroke markers" d=" M 547 202 L 561 202 L 561 314 L 547 314 L 547 202 Z Z" stroke-miterlimit="10" stroke-dasharray=""/></g><g><path fill="none" stroke="#000000" paint-order="fill stroke markers" d=" M 547 226 L 348 226" stroke-miterlimit="10" stroke-dasharray=""/></g><g><path fill="#000000" stroke="none" paint-order="stroke fill markers" d=" M 358.16267485762415 221.790482243984 L 348 226 L 358.16267485762415 230.209517756016"/></g><g><path fill="none" stroke="#000000" paint-order="fill stroke markers" d=" M 358.16267485762415 221.790482243984 L 348 226 L 358.16267485762415 230.209517756016 L 358.16267485762415 221.790482243984" stroke-miterlimit="10" stroke-dasharray=""/></g><g><rect fill="#ffffff" stroke="none" x="401" y="228" width="102.38134765625" height="13" transform="matrix(1 0 0 1 -6 2)"/></g><g><g><path fill="none" stroke="none"/><text fill="#000000" stroke="none" font-family="Arial" font-size="13px" font-style="normal" font-weight="normal" text-decoration="undefined" x="452.190673828125" y="234.5" text-anchor="middle" dominant-baseline="central" transform="matrix(1 0 0 1 -6 2)">5 : Validate Token</text></g></g><g><rect fill="#ffffff" stroke="none" x="340" y="224" width="14" height="32" transform="matrix(1 0 0 1 -6 2)"/></g><g><path fill="none" stroke="#000000" paint-order="fill stroke markers" d=" M 334 226 L 348 226 L 348 258 L 334 258 L 334 226 Z Z" stroke-miterlimit="10" stroke-dasharray=""/></g><g><path fill="none" stroke="#000000" paint-order="fill stroke markers" d=" M 342 258 L 547 258" stroke-miterlimit="10" stroke-dasharray="3"/></g><g><path fill="none" stroke="#000000" paint-order="fill stroke markers" d=" M 536.8373251423759 262.209517756016 L 547 258 L 536.8373251423758 253.790482243984" stroke-miterlimit="10" stroke-dasharray=""/></g><g><rect fill="#ffffff" stroke="none" x="392" y="259" width="114.65771484375" height="13" transform="matrix(1 0 0 1 -6 2)"/></g><g><g><path fill="none" stroke="none"/><text fill="#000000" stroke="none" font-family="Arial" font-size="13px" font-style="normal" font-weight="normal" text-decoration="undefined" x="449.328857421875" y="265.5" text-anchor="middle" dominant-baseline="central" transform="matrix(1 0 0 1 -6 2)">6 : Validation Result</text></g></g><g><path fill="none" stroke="#000000" paint-order="fill stroke markers" d=" M 547 282 L 165 282" stroke-miterlimit="10" stroke-dasharray="3"/></g><g><path fill="none" stroke="#000000" paint-order="fill stroke markers" d=" M 175.16267485762415 277.790482243984 L 165 282 L 175.16267485762415 286.209517756016" stroke-miterlimit="10" stroke-dasharray=""/></g><g><rect fill="#ffffff" stroke="none" x="318" y="284" width="87.4072265625" height="13" transform="matrix(1 0 0 1 -6 2)"/></g><g><g><path fill="none" stroke="none"/><text fill="#000000" stroke="none" font-family="Arial" font-size="13px" font-style="normal" font-weight="normal" text-decoration="undefined" x="361.70361328125" y="290.5" text-anchor="middle" dominant-baseline="central" transform="matrix(1 0 0 1 -6 2)">7 : Return JWT</text></g></g></g></svg>