<svg version="1.1" xmlns="http://www.w3.org/2000/svg" xmlns:xlink="http://www.w3.org/1999/xlink" width="1341" height="540"><defs/><g><g><rect fill="#fffafa" stroke="none" x="485" y="352" width="939" height="520" transform="matrix(1 0 0 1 -262 -342)"/></g><g><path fill="none" stroke="#000000" paint-order="fill stroke markers" d=" M 223 10 L 1162 10 L 1162 530 L 223 530 L 223 10 Z Z" stroke-miterlimit="10" stroke-dasharray=""/></g><g><g><path fill="none" stroke="none"/><text fill="#000000" stroke="none" font-family="Inter" font-size="14px" font-style="normal" font-weight="bold" text-decoration="undefined" x="955" y="366" text-anchor="middle" dominant-baseline="central" transform="matrix(1 0 0 1 -262 -342)">Hephaestus</text></g></g><g><path fill="#fffafa" stroke="none" paint-order="stroke fill markers" d=" M 61.76654545454545 227.67000000000007 C 61.76654545454545 218.4634123840001 69.03450980305456 211 78 211 C 86.96549019694544 211 94.23345454545455 218.4634123840001 94.23345454545455 227.67000000000007 C 94.23345454545455 236.87658761600005 86.96549019694544 244.34000000000003 78 244.34000000000003 C 69.03450980305456 244.34000000000003 61.76654545454545 236.87658761600005 61.76654545454545 227.67000000000007 Z"/></g><g><path fill="none" stroke="#000000" paint-order="fill stroke markers" d=" M 61.76654545454545 227.67000000000007 C 61.76654545454545 218.4634123840001 69.03450980305456 211 78 211 C 86.96549019694544 211 94.23345454545455 218.4634123840001 94.23345454545455 227.67000000000007 C 94.23345454545455 236.87658761600005 86.96549019694544 244.34000000000003 78 244.34000000000003 C 69.03450980305456 244.34000000000003 61.76654545454545 236.87658761600005 61.76654545454545 227.67000000000007 Z" stroke-miterlimit="10" stroke-dasharray=""/></g><g><path fill="none" stroke="#000000" paint-order="fill stroke markers" d=" M 78 244.34000000000003 L 78 276.65999999999997" stroke-miterlimit="10" stroke-dasharray=""/></g><g><path fill="none" stroke="#000000" paint-order="fill stroke markers" d=" M 60.81163636363635 256.46000000000004 L 95.18836363636365 256.46000000000004" stroke-miterlimit="10" stroke-dasharray=""/></g><g><path fill="none" stroke="#000000" paint-order="fill stroke markers" d=" M 78 276.65999999999997 L 54.127272727272725 310" stroke-miterlimit="10" stroke-dasharray=""/></g><g><path fill="none" stroke="#000000" paint-order="fill stroke markers" d=" M 78 276.65999999999997 L 101.87272727272727 310" stroke-miterlimit="10" stroke-dasharray=""/></g><g><g><path fill="none" stroke="none"/><text fill="#000000" stroke="none" font-family="Inter" font-size="14px" font-style="normal" font-weight="bold" text-decoration="undefined" x="340.5" y="667" text-anchor="middle" dominant-baseline="central" transform="matrix(1 0 0 1 -262 -342)">Developer</text></g></g><g><path fill="#fffafa" stroke="none" paint-order="stroke fill markers" d=" M 271 153 C 271 135.32688639999998 330.322264 121 403.5 121 C 476.677736 121 536 135.32688639999998 536 153 C 536 170.67311359999997 476.677736 185 403.5 185 C 330.322264 185 271 170.67311359999997 271 153 Z"/></g><g><path fill="none" stroke="#000000" paint-order="fill stroke markers" d=" M 271 153 C 271 135.32688639999998 330.322264 121 403.5 121 C 476.677736 121 536 135.32688639999998 536 153 C 536 170.67311359999997 476.677736 185 403.5 185 C 330.322264 185 271 170.67311359999997 271 153 Z" stroke-miterlimit="10" stroke-dasharray=""/></g><g><g><path fill="none" stroke="none"/><text fill="#000000" stroke="none" font-family="Inter" font-size="14px" font-style="normal" font-weight="bold" text-decoration="undefined" x="665.5" y="496" text-anchor="middle" dominant-baseline="central" transform="matrix(1 0 0 1 -262 -342)">Reflect on Goal Alignment</text></g></g><g><path fill="#fffafa" stroke="none" paint-order="stroke fill markers" d=" M 271 385 C 271 367.32688640000003 335.69484639999996 353 415.5 353 C 495.30515360000004 353 560 367.32688640000003 560 385 C 560 402.67311359999997 495.30515360000004 417 415.5 417 C 335.69484639999996 417 271 402.67311359999997 271 385 Z"/></g><g><path fill="none" stroke="#000000" paint-order="fill stroke markers" d=" M 271 385 C 271 367.32688640000003 335.69484639999996 353 415.5 353 C 495.30515360000004 353 560 367.32688640000003 560 385 C 560 402.67311359999997 495.30515360000004 417 415.5 417 C 335.69484639999996 417 271 402.67311359999997 271 385 Z" stroke-miterlimit="10" stroke-dasharray=""/></g><g><g><path fill="none" stroke="none"/><text fill="#000000" stroke="none" font-family="Inter" font-size="14px" font-style="normal" font-weight="bold" text-decoration="undefined" x="677.5" y="728" text-anchor="middle" dominant-baseline="central" transform="matrix(1 0 0 1 -262 -342)">Provide Project Updates</text></g></g><g><path fill="#FFFAFA" stroke="none" paint-order="stroke fill markers" d=" M 538 258 C 538 240.32688640000003 603.8141344000001 226 685 226 C 766.1858655999999 226 832 240.32688640000003 832 258 C 832 275.67311359999997 766.1858655999999 290 685 290 C 603.8141344000001 290 538 275.67311359999997 538 258 Z"/></g><g><path fill="none" stroke="#000000" paint-order="fill stroke markers" d=" M 538 258 C 538 240.32688640000003 603.8141344000001 226 685 226 C 766.1858655999999 226 832 240.32688640000003 832 258 C 832 275.67311359999997 766.1858655999999 290 685 290 C 603.8141344000001 290 538 275.67311359999997 538 258 Z" stroke-miterlimit="10" stroke-dasharray=""/></g><g><g><path fill="none" stroke="none"/><text fill="#000000" stroke="none" font-family="Inter" font-size="14px" font-style="normal" font-weight="bold" text-decoration="undefined" x="947" y="601" text-anchor="middle" dominant-baseline="central" transform="matrix(1 0 0 1 -262 -342)">Use Current Session Context</text></g></g><g><path fill="#fffafa" stroke="none" paint-order="stroke fill markers" d=" M 794 97 C 794 79.32688639999998 839.6669503999999 65 896 65 C 952.3330496000001 65 998 79.32688639999998 998 97 C 998 114.67311360000002 952.3330496000001 129 896 129 C 839.6669503999999 129 794 114.67311360000002 794 97 Z"/></g><g><path fill="none" stroke="#000000" paint-order="fill stroke markers" d=" M 794 97 C 794 79.32688639999998 839.6669503999999 65 896 65 C 952.3330496000001 65 998 79.32688639999998 998 97 C 998 114.67311360000002 952.3330496000001 129 896 129 C 839.6669503999999 129 794 114.67311360000002 794 97 Z" stroke-miterlimit="10" stroke-dasharray=""/></g><g><g><path fill="none" stroke="none"/><text fill="#000000" stroke="none" font-family="Inter" font-size="14px" font-style="normal" font-weight="bold" text-decoration="undefined" x="1158" y="440" text-anchor="middle" dominant-baseline="central" transform="matrix(1 0 0 1 -262 -342)">Generate Responce</text></g></g><g><path fill="none" stroke="#000000" paint-order="fill stroke markers" d=" M 537 138 L 793 109" stroke-miterlimit="10" stroke-dasharray="3"/></g><g><path fill="none" stroke="#000000" paint-order="fill stroke markers" d=" M 783.3757400645234 114.32668946855159 L 793 109 L 782.4280822912347 105.96115878021021" stroke-miterlimit="10" stroke-dasharray=""/></g><g><rect fill="#fffafa" stroke="none" x="890" y="444" width="62.74140930175781" height="14" transform="matrix(1 0 0 1 -262 -342)"/></g><g><g><path fill="none" stroke="none"/><text fill="#000000" stroke="none" font-family="Inter" font-size="14px" font-style="normal" font-weight="normal" text-decoration="undefined" x="921.3707046508789" y="451" text-anchor="middle" dominant-baseline="central" transform="matrix(1 0 0 1 -262 -342)">«include»</text></g></g><g><path fill="none" stroke="#000000" paint-order="fill stroke markers" d=" M 853 130 L 728 225" stroke-miterlimit="10" stroke-dasharray="3"/></g><g><path fill="none" stroke="#000000" paint-order="fill stroke markers" d=" M 733.544028754255 215.49927659743776 L 728 225 L 738.6382462713564 222.20219438309744" stroke-miterlimit="10" stroke-dasharray=""/></g><g><rect fill="#fffafa" stroke="none" x="1018" y="502" width="62.74140930175781" height="14" transform="matrix(1 0 0 1 -262 -342)"/></g><g><g><path fill="none" stroke="none"/><text fill="#000000" stroke="none" font-family="Inter" font-size="14px" font-style="normal" font-weight="normal" text-decoration="undefined" x="1049.370704650879" y="509" text-anchor="middle" dominant-baseline="central" transform="matrix(1 0 0 1 -262 -342)">«include»</text></g></g><g><path fill="none" stroke="#000000" paint-order="fill stroke markers" d=" M 147 248 L 314 186" stroke-miterlimit="10" stroke-dasharray=""/></g><g><path fill="none" stroke="#000000" paint-order="fill stroke markers" d=" M 147 296 L 316 352" stroke-miterlimit="10" stroke-dasharray=""/></g><g><path fill="#FFFAFA" stroke="none" paint-order="stroke fill markers" d=" M 311 281 C 311 258.90860799999996 355.77152 241 411 241 C 466.22848 241 511 258.90860799999996 511 281 C 511 303.09139200000004 466.22848 321 411 321 C 355.77152 321 311 303.09139200000004 311 281 Z"/></g><g><path fill="none" stroke="#000000" paint-order="fill stroke markers" d=" M 311 281 C 311 258.90860799999996 355.77152 241 411 241 C 466.22848 241 511 258.90860799999996 511 281 C 511 303.09139200000004 466.22848 321 411 321 C 355.77152 321 311 303.09139200000004 311 281 Z" stroke-miterlimit="10" stroke-dasharray=""/></g><g><g><path fill="none" stroke="none"/><text fill="#000000" stroke="none" font-family="Inter" font-size="14px" font-style="normal" font-weight="bold" text-decoration="undefined" x="673" y="624" text-anchor="middle" dominant-baseline="central" transform="matrix(1 0 0 1 -262 -342)">Set Project Goals</text></g></g><g><path fill="none" stroke="#000000" paint-order="fill stroke markers" d=" M 147 275 L 310 279" stroke-miterlimit="10" stroke-dasharray=""/></g><g><path fill="#ffffff" stroke="none" paint-order="stroke fill markers" d=" M 1265.4450909090908 220.01 C 1265.4450909090908 210.61563555199996 1272.856975343709 203 1282 203 C 1291.143024656291 203 1298.5549090909092 210.61563555199996 1298.5549090909092 220.01 C 1298.5549090909092 229.40436444800002 1291.143024656291 237.01999999999998 1282 237.01999999999998 C 1272.856975343709 237.01999999999998 1265.4450909090908 229.40436444800002 1265.4450909090908 220.01 Z"/></g><g><path fill="none" stroke="#000000" paint-order="fill stroke markers" d=" M 1265.4450909090908 220.01 C 1265.4450909090908 210.61563555199996 1272.856975343709 203 1282 203 C 1291.143024656291 203 1298.5549090909092 210.61563555199996 1298.5549090909092 220.01 C 1298.5549090909092 229.40436444800002 1291.143024656291 237.01999999999998 1282 237.01999999999998 C 1272.856975343709 237.01999999999998 1265.4450909090908 229.40436444800002 1265.4450909090908 220.01 Z" stroke-miterlimit="10" stroke-dasharray=""/></g><g><path fill="none" stroke="#000000" paint-order="fill stroke markers" d=" M 1282 237.01999999999998 L 1282 269.98" stroke-miterlimit="10" stroke-dasharray=""/></g><g><path fill="none" stroke="#000000" paint-order="fill stroke markers" d=" M 1264.4712727272727 249.38 L 1299.5287272727273 249.38" stroke-miterlimit="10" stroke-dasharray=""/></g><g><path fill="none" stroke="#000000" paint-order="fill stroke markers" d=" M 1282 269.98 L 1257.6545454545453 304" stroke-miterlimit="10" stroke-dasharray=""/></g><g><path fill="none" stroke="#000000" paint-order="fill stroke markers" d=" M 1282 269.98 L 1306.3454545454547 304" stroke-miterlimit="10" stroke-dasharray=""/></g><g><g><path fill="none" stroke="none"/><text fill="#000000" stroke="none" font-family="Arial" font-size="13px" font-style="normal" font-weight="bold" text-decoration="undefined" x="1544.5" y="660.5" text-anchor="middle" dominant-baseline="central" transform="matrix(1 0 0 1 -262 -342)">AI Mentor</text></g></g><g><path fill="none" stroke="#000000" paint-order="fill stroke markers" d=" M 971 130 L 1233 245" stroke-miterlimit="10" stroke-dasharray=""/></g><g><path fill="#FFFAFA" stroke="none" paint-order="stroke fill markers" d=" M 850 250 C 850 232.32688640000003 915.8141344000001 218 997 218 C 1078.1858656 218 1144 232.32688640000003 1144 250 C 1144 267.67311359999997 1078.1858656 282 997 282 C 915.8141344000001 282 850 267.67311359999997 850 250 Z"/></g><g><path fill="none" stroke="#000000" paint-order="fill stroke markers" d=" M 850 250 C 850 232.32688640000003 915.8141344000001 218 997 218 C 1078.1858656 218 1144 232.32688640000003 1144 250 C 1144 267.67311359999997 1078.1858656 282 997 282 C 915.8141344000001 282 850 267.67311359999997 850 250 Z" stroke-miterlimit="10" stroke-dasharray=""/></g><g><g><path fill="none" stroke="none"/><text fill="#000000" stroke="none" font-family="Inter" font-size="14px" font-style="normal" font-weight="bold" text-decoration="undefined" x="1259" y="593" text-anchor="middle" dominant-baseline="central" transform="matrix(1 0 0 1 -262 -342)">Use Past Session Context</text></g></g><g><path fill="none" stroke="#000000" paint-order="fill stroke markers" d=" M 975 217 L 918 130" stroke-miterlimit="10" stroke-dasharray="3"/></g><g><path fill="none" stroke="#000000" paint-order="fill stroke markers" d=" M 927.0905106436742 136.19375623004697 L 918 130 L 920.048314689308 140.80760875187315" stroke-miterlimit="10" stroke-dasharray=""/></g><g><rect fill="#FFFAFA" stroke="none" x="1153" y="524" width="53.49169921875" height="13" transform="matrix(1 0 0 1 -262 -342)"/></g><g><g><path fill="none" stroke="none"/><text fill="#000000" stroke="none" font-family="Arial" font-size="13px" font-style="normal" font-weight="normal" text-decoration="undefined" x="1179.745849609375" y="530.5" text-anchor="middle" dominant-baseline="central" transform="matrix(1 0 0 1 -262 -342)">«extend»</text></g></g><g><path fill="#FFFAFA" stroke="none" paint-order="stroke fill markers" d=" M 770 354 C 770 336.32688640000003 830.8892672 322 906 322 C 981.1107328 322 1042 336.32688640000003 1042 354 C 1042 371.67311359999997 981.1107328 386 906 386 C 830.8892672 386 770 371.67311359999997 770 354 Z"/></g><g><path fill="none" stroke="#000000" paint-order="fill stroke markers" d=" M 770 354 C 770 336.32688640000003 830.8892672 322 906 322 C 981.1107328 322 1042 336.32688640000003 1042 354 C 1042 371.67311359999997 981.1107328 386 906 386 C 830.8892672 386 770 371.67311359999997 770 354 Z" stroke-miterlimit="10" stroke-dasharray=""/></g><g><g><path fill="none" stroke="none"/><text fill="#000000" stroke="none" font-family="Arial" font-size="13px" font-style="normal" font-weight="bold" text-decoration="undefined" x="1168" y="697" text-anchor="middle" dominant-baseline="central" transform="matrix(1 0 0 1 -262 -342)">Use Development Tools</text></g></g><g><path fill="#FFFAFA" stroke="none" paint-order="stroke fill markers" d=" M 794 455.5 C 794 434.78932 854.8892672 418 930 418 C 1005.1107328 418 1066 434.78932 1066 455.5 C 1066 476.21068 1005.1107328 493 930 493 C 854.8892672 493 794 476.21068 794 455.5 Z"/></g><g><path fill="none" stroke="#000000" paint-order="fill stroke markers" d=" M 794 455.5 C 794 434.78932 854.8892672 418 930 418 C 1005.1107328 418 1066 434.78932 1066 455.5 C 1066 476.21068 1005.1107328 493 930 493 C 854.8892672 493 794 476.21068 794 455.5 Z" stroke-miterlimit="10" stroke-dasharray=""/></g><g><g><path fill="none" stroke="none"/><text fill="#000000" stroke="none" font-family="Arial" font-size="13px" font-style="normal" font-weight="bold" text-decoration="undefined" x="1192" y="798.5" text-anchor="middle" dominant-baseline="central" transform="matrix(1 0 0 1 -262 -342)">Summairze Project Updates</text></g></g><g><path fill="none" stroke="#000000" paint-order="fill stroke markers" d=" M 1233 277 L 1043 322" stroke-miterlimit="10" stroke-dasharray=""/></g><g><path fill="none" stroke="#000000" paint-order="fill stroke markers" d=" M 1233 292 L 1001 417" stroke-miterlimit="10" stroke-dasharray=""/></g></g></svg>