<svg version="1.1" xmlns="http://www.w3.org/2000/svg" xmlns:xlink="http://www.w3.org/1999/xlink" width="1444" height="750"><defs/><g><g><rect fill="#fffafa" stroke="none" x="424" y="136" width="250.46575927734375" height="64" transform="matrix(1 0 0 1 -166 -126)"/></g><g><path fill="none" stroke="#000000" paint-order="fill stroke markers" d=" M 258 10 L 508.46575927734375 10 L 508.46575927734375 74 L 258 74 L 258 10 Z Z" stroke-miterlimit="10" stroke-dasharray=""/></g><g><rect fill="#fffafa" stroke="none" x="654.4657592773438" y="146" width="13" height="16" transform="matrix(1 0 0 1 -166 -126)"/></g><g><path fill="none" stroke="#000000" paint-order="fill stroke markers" d=" M 488.46575927734375 20 L 501.46575927734375 20 L 501.46575927734375 36 L 488.46575927734375 36 L 488.46575927734375 20 Z Z" stroke-miterlimit="10" stroke-dasharray=""/></g><g><rect fill="#fffafa" stroke="none" x="651.4657592773438" y="149" width="7" height="4" transform="matrix(1 0 0 1 -166 -126)"/></g><g><path fill="none" stroke="#000000" paint-order="fill stroke markers" d=" M 485.46575927734375 23 L 492.46575927734375 23 L 492.46575927734375 27 L 485.46575927734375 27 L 485.46575927734375 23 Z Z" stroke-miterlimit="10" stroke-dasharray=""/></g><g><rect fill="#fffafa" stroke="none" x="651.4657592773438" y="155" width="7" height="4" transform="matrix(1 0 0 1 -166 -126)"/></g><g><path fill="none" stroke="#000000" paint-order="fill stroke markers" d=" M 485.46575927734375 29 L 492.46575927734375 29 L 492.46575927734375 33 L 485.46575927734375 33 L 485.46575927734375 29 Z Z" stroke-miterlimit="10" stroke-dasharray=""/></g><g><g><path fill="none" stroke="none"/><text fill="#000000" stroke="none" font-family="Inter" font-size="16px" font-style="normal" font-weight="normal" text-decoration="undefined" x="537.2328796386719" y="149" text-anchor="middle" dominant-baseline="central" transform="matrix(1 0 0 1 -166 -126)"></text></g></g><g><g><path fill="none" stroke="none"/><text fill="#000000" stroke="none" font-family="Inter" font-size="16px" font-style="normal" font-weight="bold" text-decoration="undefined" x="537.2328796386719" y="167" text-anchor="middle" dominant-baseline="central" transform="matrix(1 0 0 1 -166 -126)">Notification Server</text></g></g><g><rect fill="#fffafa" stroke="none" x="803" y="800" width="250.46575927734375" height="64" transform="matrix(1 0 0 1 -166 -126)"/></g><g><path fill="none" stroke="#000000" paint-order="fill stroke markers" d=" M 637 674 L 887.4657592773438 674 L 887.4657592773438 738 L 637 738 L 637 674 Z Z" stroke-miterlimit="10" stroke-dasharray=""/></g><g><rect fill="#fffafa" stroke="none" x="1033.4657592773438" y="810" width="13" height="16" transform="matrix(1 0 0 1 -166 -126)"/></g><g><path fill="none" stroke="#000000" paint-order="fill stroke markers" d=" M 867.4657592773438 684 L 880.4657592773438 684 L 880.4657592773438 700 L 867.4657592773438 700 L 867.4657592773438 684 Z Z" stroke-miterlimit="10" stroke-dasharray=""/></g><g><rect fill="#fffafa" stroke="none" x="1030.4657592773438" y="813" width="7" height="4" transform="matrix(1 0 0 1 -166 -126)"/></g><g><path fill="none" stroke="#000000" paint-order="fill stroke markers" d=" M 864.4657592773438 687 L 871.4657592773438 687 L 871.4657592773438 691 L 864.4657592773438 691 L 864.4657592773438 687 Z Z" stroke-miterlimit="10" stroke-dasharray=""/></g><g><rect fill="#fffafa" stroke="none" x="1030.4657592773438" y="819" width="7" height="4" transform="matrix(1 0 0 1 -166 -126)"/></g><g><path fill="none" stroke="#000000" paint-order="fill stroke markers" d=" M 864.4657592773438 693 L 871.4657592773438 693 L 871.4657592773438 697 L 864.4657592773438 697 L 864.4657592773438 693 Z Z" stroke-miterlimit="10" stroke-dasharray=""/></g><g><g><path fill="none" stroke="none"/><text fill="#000000" stroke="none" font-family="Inter" font-size="16px" font-style="normal" font-weight="normal" text-decoration="undefined" x="916.2328796386719" y="813" text-anchor="middle" dominant-baseline="central" transform="matrix(1 0 0 1 -166 -126)"></text></g></g><g><g><path fill="none" stroke="none"/><text fill="#000000" stroke="none" font-family="Inter" font-size="16px" font-style="normal" font-weight="bold" text-decoration="undefined" x="916.2328796386719" y="831" text-anchor="middle" dominant-baseline="central" transform="matrix(1 0 0 1 -166 -126)">Analytics Platform</text></g></g><g><path fill="none" stroke="#000000" paint-order="fill stroke markers" d=" M 208 41 A 16 16 0 0 1 176 41" stroke-miterlimit="10" stroke-dasharray=""/></g><g><path fill="#fffafa" stroke="none" paint-order="stroke fill markers" d=" M 179.22257232666016 41 C 179.22257232666016 33.8202976 185.04286992666016 28 192.22257232666016 28 C 199.40227472666015 28 205.22257232666016 33.8202976 205.22257232666016 41 C 205.22257232666016 48.1797024 199.40227472666015 54 192.22257232666016 54 C 185.04286992666016 54 179.22257232666016 48.1797024 179.22257232666016 41 Z"/></g><g><path fill="none" stroke="#000000" paint-order="fill stroke markers" d=" M 179.22257232666016 41 C 179.22257232666016 33.8202976 185.04286992666016 28 192.22257232666016 28 C 199.40227472666015 28 205.22257232666016 33.8202976 205.22257232666016 41 C 205.22257232666016 48.1797024 199.40227472666015 54 192.22257232666016 54 C 185.04286992666016 54 179.22257232666016 48.1797024 179.22257232666016 41 Z" stroke-miterlimit="10" stroke-dasharray=""/></g><g><g><path fill="none" stroke="none"/><text fill="#000000" stroke="none" font-family="Inter" font-size="14px" font-style="normal" font-weight="bold" text-decoration="undefined" x="358.72257232666016" y="197" text-anchor="middle" dominant-baseline="central" transform="matrix(1 0 0 1 -166 -126)">Notification</text><text fill="#000000" stroke="none" font-family="Inter" font-size="14px" font-style="normal" font-weight="bold" text-decoration="undefined" x="358.72257232666016" y="211" text-anchor="middle" dominant-baseline="central" transform="matrix(1 0 0 1 -166 -126)">Receiver</text></g></g><g><path fill="none" stroke="#000000" paint-order="fill stroke markers" d=" M 258 41 L 208.22257232666016 41" stroke-miterlimit="10" stroke-dasharray=""/></g><g><path fill="none" stroke="#000000" paint-order="fill stroke markers" d=" M 599 41 A 16 16 0 0 1 567 41" stroke-miterlimit="10" stroke-dasharray=""/></g><g><path fill="#fffafa" stroke="none" paint-order="stroke fill markers" d=" M 570 41 C 570 33.8202976 575.8202976 28 583 28 C 590.1797024 28 596 33.8202976 596 41 C 596 48.1797024 590.1797024 54 583 54 C 575.8202976 54 570 48.1797024 570 41 Z"/></g><g><path fill="none" stroke="#000000" paint-order="fill stroke markers" d=" M 570 41 C 570 33.8202976 575.8202976 28 583 28 C 590.1797024 28 596 33.8202976 596 41 C 596 48.1797024 590.1797024 54 583 54 C 575.8202976 54 570 48.1797024 570 41 Z" stroke-miterlimit="10" stroke-dasharray=""/></g><g><g><path fill="none" stroke="none"/><text fill="#000000" stroke="none" font-family="Inter" font-size="14px" font-style="normal" font-weight="bold" text-decoration="undefined" x="749.5" y="197" text-anchor="middle" dominant-baseline="central" transform="matrix(1 0 0 1 -166 -126)">Notification</text><text fill="#000000" stroke="none" font-family="Inter" font-size="14px" font-style="normal" font-weight="bold" text-decoration="undefined" x="749.5" y="211" text-anchor="middle" dominant-baseline="central" transform="matrix(1 0 0 1 -166 -126)">Sender</text></g></g><g><path fill="none" stroke="#000000" paint-order="fill stroke markers" d=" M 508 41 L 567 41" stroke-miterlimit="10" stroke-dasharray=""/></g><g><path fill="none" stroke="#000000" paint-order="fill stroke markers" d=" M 482 698 A 16 16 0 0 1 514 698" stroke-miterlimit="10" stroke-dasharray=""/></g><g><path fill="none" stroke="#000000" paint-order="fill stroke markers" d=" M 498 714 A 16 16 0 0 1 498 682" stroke-miterlimit="10" stroke-dasharray=""/></g><g><path fill="#fffafa" stroke="none" paint-order="stroke fill markers" d=" M 485.11038970947266 698 C 485.11038970947266 690.8202976 490.93068730947266 685 498.11038970947266 685 C 505.29009210947265 685 511.11038970947266 690.8202976 511.11038970947266 698 C 511.11038970947266 705.1797024 505.29009210947265 711 498.11038970947266 711 C 490.93068730947266 711 485.11038970947266 705.1797024 485.11038970947266 698 Z"/></g><g><path fill="none" stroke="#000000" paint-order="fill stroke markers" d=" M 485.11038970947266 698 C 485.11038970947266 690.8202976 490.93068730947266 685 498.11038970947266 685 C 505.29009210947265 685 511.11038970947266 690.8202976 511.11038970947266 698 C 511.11038970947266 705.1797024 505.29009210947265 711 498.11038970947266 711 C 490.93068730947266 711 485.11038970947266 705.1797024 485.11038970947266 698 Z" stroke-miterlimit="10" stroke-dasharray=""/></g><g><g><path fill="none" stroke="none"/><text fill="#000000" stroke="none" font-family="Inter" font-size="14px" font-style="normal" font-weight="bold" text-decoration="undefined" x="664.6103897094727" y="854" text-anchor="middle" dominant-baseline="central" transform="matrix(1 0 0 1 -166 -126)">Event Tracking</text></g></g><g><path fill="none" stroke="#000000" paint-order="fill stroke markers" d=" M 637 698 L 514.1103897094727 698" stroke-miterlimit="10" stroke-dasharray=""/></g><g><rect fill="#fffafa" stroke="none" x="1344" y="328" width="256" height="64" transform="matrix(1 0 0 1 -166 -126)"/></g><g><path fill="none" stroke="#000000" paint-order="fill stroke markers" d=" M 1178 202 L 1434 202 L 1434 266 L 1178 266 L 1178 202 Z Z" stroke-miterlimit="10" stroke-dasharray=""/></g><g><rect fill="#fffafa" stroke="none" x="1580" y="338" width="13" height="16" transform="matrix(1 0 0 1 -166 -126)"/></g><g><path fill="none" stroke="#000000" paint-order="fill stroke markers" d=" M 1414 212 L 1427 212 L 1427 228 L 1414 228 L 1414 212 Z Z" stroke-miterlimit="10" stroke-dasharray=""/></g><g><rect fill="#fffafa" stroke="none" x="1577" y="341" width="7" height="4" transform="matrix(1 0 0 1 -166 -126)"/></g><g><path fill="none" stroke="#000000" paint-order="fill stroke markers" d=" M 1411 215 L 1418 215 L 1418 219 L 1411 219 L 1411 215 Z Z" stroke-miterlimit="10" stroke-dasharray=""/></g><g><rect fill="#fffafa" stroke="none" x="1577" y="347" width="7" height="4" transform="matrix(1 0 0 1 -166 -126)"/></g><g><path fill="none" stroke="#000000" paint-order="fill stroke markers" d=" M 1411 221 L 1418 221 L 1418 225 L 1411 225 L 1411 221 Z Z" stroke-miterlimit="10" stroke-dasharray=""/></g><g><g><path fill="none" stroke="none"/><text fill="#000000" stroke="none" font-family="Inter" font-size="16px" font-style="normal" font-weight="normal" text-decoration="undefined" x="1460" y="341" text-anchor="middle" dominant-baseline="central" transform="matrix(1 0 0 1 -166 -126)"></text></g></g><g><g><path fill="none" stroke="none"/><text fill="#000000" stroke="none" font-family="Inter" font-size="16px" font-style="normal" font-weight="bold" text-decoration="undefined" x="1460" y="359" text-anchor="middle" dominant-baseline="central" transform="matrix(1 0 0 1 -166 -126)">Code Review System</text></g></g><g><path fill="none" stroke="#000000" paint-order="fill stroke markers" d=" M 1103 210 A 20 20 0 0 1 1103 250" stroke-miterlimit="10" stroke-dasharray=""/></g><g><path fill="#fffafa" stroke="none" paint-order="stroke fill markers" d=" M 1086 230 C 1086 220.61115840000002 1093.6111584 213 1103 213 C 1112.3888416 213 1120 220.61115840000002 1120 230 C 1120 239.38884159999998 1112.3888416 247 1103 247 C 1093.6111584 247 1086 239.38884159999998 1086 230 Z"/></g><g><path fill="none" stroke="#000000" paint-order="fill stroke markers" d=" M 1086 230 C 1086 220.61115840000002 1093.6111584 213 1103 213 C 1112.3888416 213 1120 220.61115840000002 1120 230 C 1120 239.38884159999998 1112.3888416 247 1103 247 C 1093.6111584 247 1086 239.38884159999998 1086 230 Z" stroke-miterlimit="10" stroke-dasharray=""/></g><g><g><path fill="none" stroke="none"/><text fill="#000000" stroke="none" font-family="Inter" font-size="14px" font-style="normal" font-weight="bold" text-decoration="undefined" x="1269.5" y="390" text-anchor="middle" dominant-baseline="central" transform="matrix(1 0 0 1 -166 -126)">Event</text><text fill="#000000" stroke="none" font-family="Inter" font-size="14px" font-style="normal" font-weight="bold" text-decoration="undefined" x="1269.5" y="404" text-anchor="middle" dominant-baseline="central" transform="matrix(1 0 0 1 -166 -126)">Webhooks</text></g></g><g><rect fill="#fffafa" stroke="none" x="176" y="272" width="1032" height="488" transform="matrix(1 0 0 1 -166 -126)"/></g><g><path fill="none" stroke="#000000" paint-order="fill stroke markers" d=" M 10 146 L 1042 146 L 1042 634 L 10 634 L 10 146 Z Z" stroke-miterlimit="10" stroke-dasharray=""/></g><g><rect fill="#fffafa" stroke="none" x="1188" y="282" width="13" height="16" transform="matrix(1 0 0 1 -166 -126)"/></g><g><path fill="none" stroke="#000000" paint-order="fill stroke markers" d=" M 1022 156 L 1035 156 L 1035 172 L 1022 172 L 1022 156 Z Z" stroke-miterlimit="10" stroke-dasharray=""/></g><g><rect fill="#fffafa" stroke="none" x="1185" y="285" width="7" height="4" transform="matrix(1 0 0 1 -166 -126)"/></g><g><path fill="none" stroke="#000000" paint-order="fill stroke markers" d=" M 1019 159 L 1026 159 L 1026 163 L 1019 163 L 1019 159 Z Z" stroke-miterlimit="10" stroke-dasharray=""/></g><g><rect fill="#fffafa" stroke="none" x="1185" y="291" width="7" height="4" transform="matrix(1 0 0 1 -166 -126)"/></g><g><path fill="none" stroke="#000000" paint-order="fill stroke markers" d=" M 1019 165 L 1026 165 L 1026 169 L 1019 169 L 1019 165 Z Z" stroke-miterlimit="10" stroke-dasharray=""/></g><g><g><path fill="none" stroke="none"/><text fill="#000000" stroke="none" font-family="Inter" font-size="16px" font-style="normal" font-weight="normal" text-decoration="undefined" x="680" y="285" text-anchor="middle" dominant-baseline="central" transform="matrix(1 0 0 1 -166 -126)">«subsystem»</text></g></g><g><g><path fill="none" stroke="none"/><text fill="#000000" stroke="none" font-family="Inter" font-size="16px" font-style="normal" font-weight="bold" text-decoration="undefined" x="680" y="303" text-anchor="middle" dominant-baseline="central" transform="matrix(1 0 0 1 -166 -126)">Hephaestus</text></g></g><g><rect fill="#fffafa" stroke="none" x="216" y="492" width="250.46575927734375" height="64" transform="matrix(1 0 0 1 -166 -126)"/></g><g><path fill="none" stroke="#000000" paint-order="fill stroke markers" d=" M 50 366 L 300.46575927734375 366 L 300.46575927734375 430 L 50 430 L 50 366 Z Z" stroke-miterlimit="10" stroke-dasharray=""/></g><g><rect fill="#fffafa" stroke="none" x="446.46575927734375" y="502" width="13" height="16" transform="matrix(1 0 0 1 -166 -126)"/></g><g><path fill="none" stroke="#000000" paint-order="fill stroke markers" d=" M 280.46575927734375 376 L 293.46575927734375 376 L 293.46575927734375 392 L 280.46575927734375 392 L 280.46575927734375 376 Z Z" stroke-miterlimit="10" stroke-dasharray=""/></g><g><rect fill="#fffafa" stroke="none" x="443.46575927734375" y="505" width="7" height="4" transform="matrix(1 0 0 1 -166 -126)"/></g><g><path fill="none" stroke="#000000" paint-order="fill stroke markers" d=" M 277.46575927734375 379 L 284.46575927734375 379 L 284.46575927734375 383 L 277.46575927734375 383 L 277.46575927734375 379 Z Z" stroke-miterlimit="10" stroke-dasharray=""/></g><g><rect fill="#fffafa" stroke="none" x="443.46575927734375" y="511" width="7" height="4" transform="matrix(1 0 0 1 -166 -126)"/></g><g><path fill="none" stroke="#000000" paint-order="fill stroke markers" d=" M 277.46575927734375 385 L 284.46575927734375 385 L 284.46575927734375 389 L 277.46575927734375 389 L 277.46575927734375 385 Z Z" stroke-miterlimit="10" stroke-dasharray=""/></g><g><g><path fill="none" stroke="none"/><text fill="#000000" stroke="none" font-family="Inter" font-size="16px" font-style="normal" font-weight="normal" text-decoration="undefined" x="329.2328796386719" y="505" text-anchor="middle" dominant-baseline="central" transform="matrix(1 0 0 1 -166 -126)"></text></g></g><g><g><path fill="none" stroke="none"/><text fill="#000000" stroke="none" font-family="Inter" font-size="16px" font-style="normal" font-weight="bold" text-decoration="undefined" x="329.2328796386719" y="523" text-anchor="middle" dominant-baseline="central" transform="matrix(1 0 0 1 -166 -126)">Hephaestus Application</text><text fill="#000000" stroke="none" font-family="Inter" font-size="16px" font-style="normal" font-weight="bold" text-decoration="undefined" x="329.2328796386719" y="539" text-anchor="middle" dominant-baseline="central" transform="matrix(1 0 0 1 -166 -126)">Client</text></g></g><g><rect fill="#fffafa" stroke="none" x="623" y="492" width="250.46575927734375" height="64" transform="matrix(1 0 0 1 -166 -126)"/></g><g><path fill="none" stroke="#000000" paint-order="fill stroke markers" d=" M 457 366 L 707.4657592773438 366 L 707.4657592773438 430 L 457 430 L 457 366 Z Z" stroke-miterlimit="10" stroke-dasharray=""/></g><g><rect fill="#fffafa" stroke="none" x="853.4657592773438" y="502" width="13" height="16" transform="matrix(1 0 0 1 -166 -126)"/></g><g><path fill="none" stroke="#000000" paint-order="fill stroke markers" d=" M 687.4657592773438 376 L 700.4657592773438 376 L 700.4657592773438 392 L 687.4657592773438 392 L 687.4657592773438 376 Z Z" stroke-miterlimit="10" stroke-dasharray=""/></g><g><rect fill="#fffafa" stroke="none" x="850.4657592773438" y="505" width="7" height="4" transform="matrix(1 0 0 1 -166 -126)"/></g><g><path fill="none" stroke="#000000" paint-order="fill stroke markers" d=" M 684.4657592773438 379 L 691.4657592773438 379 L 691.4657592773438 383 L 684.4657592773438 383 L 684.4657592773438 379 Z Z" stroke-miterlimit="10" stroke-dasharray=""/></g><g><rect fill="#fffafa" stroke="none" x="850.4657592773438" y="511" width="7" height="4" transform="matrix(1 0 0 1 -166 -126)"/></g><g><path fill="none" stroke="#000000" paint-order="fill stroke markers" d=" M 684.4657592773438 385 L 691.4657592773438 385 L 691.4657592773438 389 L 684.4657592773438 389 L 684.4657592773438 385 Z Z" stroke-miterlimit="10" stroke-dasharray=""/></g><g><g><path fill="none" stroke="none"/><text fill="#000000" stroke="none" font-family="Inter" font-size="16px" font-style="normal" font-weight="normal" text-decoration="undefined" x="736.2328796386719" y="505" text-anchor="middle" dominant-baseline="central" transform="matrix(1 0 0 1 -166 -126)"></text></g></g><g><g><path fill="none" stroke="none"/><text fill="#000000" stroke="none" font-family="Inter" font-size="16px" font-style="normal" font-weight="bold" text-decoration="undefined" x="736.2328796386719" y="523" text-anchor="middle" dominant-baseline="central" transform="matrix(1 0 0 1 -166 -126)">Hephaestus Application</text><text fill="#000000" stroke="none" font-family="Inter" font-size="16px" font-style="normal" font-weight="bold" text-decoration="undefined" x="736.2328796386719" y="539" text-anchor="middle" dominant-baseline="central" transform="matrix(1 0 0 1 -166 -126)">Server</text></g></g><g><rect fill="#fffafa" stroke="none" x="792" y="680" width="256" height="64" transform="matrix(1 0 0 1 -166 -126)"/></g><g><path fill="none" stroke="#000000" paint-order="fill stroke markers" d=" M 626 554 L 882 554 L 882 618 L 626 618 L 626 554 Z Z" stroke-miterlimit="10" stroke-dasharray=""/></g><g><rect fill="#fffafa" stroke="none" x="1028" y="690" width="13" height="16" transform="matrix(1 0 0 1 -166 -126)"/></g><g><path fill="none" stroke="#000000" paint-order="fill stroke markers" d=" M 862 564 L 875 564 L 875 580 L 862 580 L 862 564 Z Z" stroke-miterlimit="10" stroke-dasharray=""/></g><g><rect fill="#fffafa" stroke="none" x="1025" y="693" width="7" height="4" transform="matrix(1 0 0 1 -166 -126)"/></g><g><path fill="none" stroke="#000000" paint-order="fill stroke markers" d=" M 859 567 L 866 567 L 866 571 L 859 571 L 859 567 Z Z" stroke-miterlimit="10" stroke-dasharray=""/></g><g><rect fill="#fffafa" stroke="none" x="1025" y="699" width="7" height="4" transform="matrix(1 0 0 1 -166 -126)"/></g><g><path fill="none" stroke="#000000" paint-order="fill stroke markers" d=" M 859 573 L 866 573 L 866 577 L 859 577 L 859 573 Z Z" stroke-miterlimit="10" stroke-dasharray=""/></g><g><g><path fill="none" stroke="none"/><text fill="#000000" stroke="none" font-family="Inter" font-size="16px" font-style="normal" font-weight="normal" text-decoration="undefined" x="908" y="693" text-anchor="middle" dominant-baseline="central" transform="matrix(1 0 0 1 -166 -126)"></text></g></g><g><g><path fill="none" stroke="none"/><text fill="#000000" stroke="none" font-family="Inter" font-size="16px" font-style="normal" font-weight="bold" text-decoration="undefined" x="908" y="711" text-anchor="middle" dominant-baseline="central" transform="matrix(1 0 0 1 -166 -126)">Hephaestus Intelligence</text><text fill="#000000" stroke="none" font-family="Inter" font-size="16px" font-style="normal" font-weight="bold" text-decoration="undefined" x="908" y="727" text-anchor="middle" dominant-baseline="central" transform="matrix(1 0 0 1 -166 -126)">Service</text></g></g><g><rect fill="#fffafa" stroke="none" x="795" y="328" width="250.46575927734375" height="64" transform="matrix(1 0 0 1 -166 -126)"/></g><g><path fill="none" stroke="#000000" paint-order="fill stroke markers" d=" M 629 202 L 879.4657592773438 202 L 879.4657592773438 266 L 629 266 L 629 202 Z Z" stroke-miterlimit="10" stroke-dasharray=""/></g><g><rect fill="#fffafa" stroke="none" x="1025.4657592773438" y="338" width="13" height="16" transform="matrix(1 0 0 1 -166 -126)"/></g><g><path fill="none" stroke="#000000" paint-order="fill stroke markers" d=" M 859.4657592773438 212 L 872.4657592773438 212 L 872.4657592773438 228 L 859.4657592773438 228 L 859.4657592773438 212 Z Z" stroke-miterlimit="10" stroke-dasharray=""/></g><g><rect fill="#fffafa" stroke="none" x="1022.4657592773438" y="341" width="7" height="4" transform="matrix(1 0 0 1 -166 -126)"/></g><g><path fill="none" stroke="#000000" paint-order="fill stroke markers" d=" M 856.4657592773438 215 L 863.4657592773438 215 L 863.4657592773438 219 L 856.4657592773438 219 L 856.4657592773438 215 Z Z" stroke-miterlimit="10" stroke-dasharray=""/></g><g><rect fill="#fffafa" stroke="none" x="1022.4657592773438" y="347" width="7" height="4" transform="matrix(1 0 0 1 -166 -126)"/></g><g><path fill="none" stroke="#000000" paint-order="fill stroke markers" d=" M 856.4657592773438 221 L 863.4657592773438 221 L 863.4657592773438 225 L 856.4657592773438 225 L 856.4657592773438 221 Z Z" stroke-miterlimit="10" stroke-dasharray=""/></g><g><g><path fill="none" stroke="none"/><text fill="#000000" stroke="none" font-family="Inter" font-size="16px" font-style="normal" font-weight="normal" text-decoration="undefined" x="908.2328796386719" y="341" text-anchor="middle" dominant-baseline="central" transform="matrix(1 0 0 1 -166 -126)"></text></g></g><g><g><path fill="none" stroke="none"/><text fill="#000000" stroke="none" font-family="Inter" font-size="16px" font-style="normal" font-weight="bold" text-decoration="undefined" x="908.2328796386719" y="359" text-anchor="middle" dominant-baseline="central" transform="matrix(1 0 0 1 -166 -126)">Webhook Ingest</text></g></g><g><path fill="none" stroke="#000000" paint-order="fill stroke markers" d=" M 1178 230 L 1123 230" stroke-miterlimit="10" stroke-dasharray=""/></g><g><path fill="none" stroke="#000000" paint-order="fill stroke markers" d=" M 498 430 L 498 682" stroke-miterlimit="10" stroke-dasharray=""/></g><g><path fill="none" stroke="#000000" paint-order="fill stroke markers" d=" M 266 430 L 266 698 L 482.11038970947266 698" stroke-miterlimit="10" stroke-dasharray=""/></g><g><path fill="none" stroke="#000000" paint-order="fill stroke markers" d=" M 602 430 L 602 470 L 650 470" stroke-miterlimit="10" stroke-dasharray=""/></g><g><path fill="none" stroke="#000000" paint-order="fill stroke markers" d=" M 583 366 L 583 57" stroke-miterlimit="10" stroke-dasharray=""/></g><g><path fill="none" stroke="#000000" paint-order="fill stroke markers" d=" M 192 366 L 192 57" stroke-miterlimit="10" stroke-dasharray=""/></g><g><path fill="none" stroke="#000000" paint-order="fill stroke markers" d=" M 666 366 L 666 266" stroke-miterlimit="10" stroke-dasharray="3"/></g><g><path fill="none" stroke="#000000" paint-order="fill stroke markers" d=" M 670.209517756016 276.16267485762415 L 666 266 L 661.790482243984 276.16267485762415" stroke-miterlimit="10" stroke-dasharray=""/></g><g><path fill="none" stroke="#000000" paint-order="fill stroke markers" d=" M 301 398 L 456 398" stroke-miterlimit="10" stroke-dasharray="3"/></g><g><path fill="none" stroke="#000000" paint-order="fill stroke markers" d=" M 445.8373251423759 402.209517756016 L 456 398 L 445.8373251423758 393.790482243984" stroke-miterlimit="10" stroke-dasharray=""/></g><g><path fill="none" stroke="#000000" paint-order="fill stroke markers" d=" M 562 430 L 562 562 L 626 562" stroke-miterlimit="10" stroke-dasharray="3"/></g><g><path fill="none" stroke="#000000" paint-order="fill stroke markers" d=" M 615.8373251423759 566.209517756016 L 626 562 L 615.8373251423758 557.790482243984" stroke-miterlimit="10" stroke-dasharray=""/></g><g><path fill="none" stroke="#000000" paint-order="fill stroke markers" d=" M 879 230 L 1083 230" stroke-miterlimit="10" stroke-dasharray=""/></g><g><path fill="none" stroke="#000000" paint-order="fill stroke markers" d=" M 690 366 L 690 334 L 1089.087661743164 334" stroke-miterlimit="10" stroke-dasharray=""/></g><g><path fill="none" stroke="#000000" paint-order="fill stroke markers" d=" M 1250 266 L 1250 334 L 1129.087661743164 334" stroke-miterlimit="10" stroke-dasharray=""/></g><g><path fill="none" stroke="#000000" paint-order="fill stroke markers" d=" M 1109 354 A 20 20 0 0 1 1109 314" stroke-miterlimit="10" stroke-dasharray=""/></g><g><path fill="#fffafa" stroke="none" paint-order="stroke fill markers" d=" M 1092.087661743164 334 C 1092.087661743164 324.6111584 1099.698820143164 317 1109.087661743164 317 C 1118.476503343164 317 1126.087661743164 324.6111584 1126.087661743164 334 C 1126.087661743164 343.3888416 1118.476503343164 351 1109.087661743164 351 C 1099.698820143164 351 1092.087661743164 343.3888416 1092.087661743164 334 Z"/></g><g><path fill="none" stroke="#000000" paint-order="fill stroke markers" d=" M 1092.087661743164 334 C 1092.087661743164 324.6111584 1099.698820143164 317 1109.087661743164 317 C 1118.476503343164 317 1126.087661743164 324.6111584 1126.087661743164 334 C 1126.087661743164 343.3888416 1118.476503343164 351 1109.087661743164 351 C 1099.698820143164 351 1092.087661743164 343.3888416 1092.087661743164 334 Z" stroke-miterlimit="10" stroke-dasharray=""/></g><g><g><path fill="none" stroke="none"/><text fill="#000000" stroke="none" font-family="Inter" font-size="14px" font-style="normal" font-weight="bold" text-decoration="undefined" x="1275.587661743164" y="494" text-anchor="middle" dominant-baseline="central" transform="matrix(1 0 0 1 -166 -126)">Code Review Data</text></g></g><g><path fill="none" stroke="#000000" paint-order="fill stroke markers" d=" M 670 490 A 20 20 0 0 1 670 450" stroke-miterlimit="10" stroke-dasharray=""/></g><g><path fill="#fffafa" stroke="none" paint-order="stroke fill markers" d=" M 653 470 C 653 460.6111584 660.6111584 453 670 453 C 679.3888416 453 687 460.6111584 687 470 C 687 479.3888416 679.3888416 487 670 487 C 660.6111584 487 653 479.3888416 653 470 Z"/></g><g><path fill="none" stroke="#000000" paint-order="fill stroke markers" d=" M 653 470 C 653 460.6111584 660.6111584 453 670 453 C 679.3888416 453 687 460.6111584 687 470 C 687 479.3888416 679.3888416 487 670 487 C 660.6111584 487 653 479.3888416 653 470 Z" stroke-miterlimit="10" stroke-dasharray=""/></g><g><g><path fill="none" stroke="none"/><text fill="#000000" stroke="none" font-family="Inter" font-size="14px" font-style="normal" font-weight="bold" text-decoration="undefined" x="836.5" y="630" text-anchor="middle" dominant-baseline="central" transform="matrix(1 0 0 1 -166 -126)">Access</text><text fill="#000000" stroke="none" font-family="Inter" font-size="14px" font-style="normal" font-weight="bold" text-decoration="undefined" x="836.5" y="644" text-anchor="middle" dominant-baseline="central" transform="matrix(1 0 0 1 -166 -126)">Management</text></g></g><g><path fill="none" stroke="#000000" paint-order="fill stroke markers" d=" M 762 470 L 690 470" stroke-miterlimit="10" stroke-dasharray=""/></g><g><rect fill="#fffafa" stroke="none" x="928" y="568" width="250.46575927734375" height="64" transform="matrix(1 0 0 1 -166 -126)"/></g><g><path fill="none" stroke="#000000" paint-order="fill stroke markers" d=" M 762 442 L 1012.4657592773438 442 L 1012.4657592773438 506 L 762 506 L 762 442 Z Z" stroke-miterlimit="10" stroke-dasharray=""/></g><g><rect fill="#fffafa" stroke="none" x="1158.4657592773438" y="578" width="13" height="16" transform="matrix(1 0 0 1 -166 -126)"/></g><g><path fill="none" stroke="#000000" paint-order="fill stroke markers" d=" M 992.4657592773438 452 L 1005.4657592773438 452 L 1005.4657592773438 468 L 992.4657592773438 468 L 992.4657592773438 452 Z Z" stroke-miterlimit="10" stroke-dasharray=""/></g><g><rect fill="#fffafa" stroke="none" x="1155.4657592773438" y="581" width="7" height="4" transform="matrix(1 0 0 1 -166 -126)"/></g><g><path fill="none" stroke="#000000" paint-order="fill stroke markers" d=" M 989.4657592773438 455 L 996.4657592773438 455 L 996.4657592773438 459 L 989.4657592773438 459 L 989.4657592773438 455 Z Z" stroke-miterlimit="10" stroke-dasharray=""/></g><g><rect fill="#fffafa" stroke="none" x="1155.4657592773438" y="587" width="7" height="4" transform="matrix(1 0 0 1 -166 -126)"/></g><g><path fill="none" stroke="#000000" paint-order="fill stroke markers" d=" M 989.4657592773438 461 L 996.4657592773438 461 L 996.4657592773438 465 L 989.4657592773438 465 L 989.4657592773438 461 Z Z" stroke-miterlimit="10" stroke-dasharray=""/></g><g><g><path fill="none" stroke="none"/><text fill="#000000" stroke="none" font-family="Inter" font-size="16px" font-style="normal" font-weight="normal" text-decoration="undefined" x="1041.2328796386719" y="581" text-anchor="middle" dominant-baseline="central" transform="matrix(1 0 0 1 -166 -126)"></text></g></g><g><g><path fill="none" stroke="none"/><text fill="#000000" stroke="none" font-family="Inter" font-size="16px" font-style="normal" font-weight="bold" text-decoration="undefined" x="1041.2328796386719" y="599" text-anchor="middle" dominant-baseline="central" transform="matrix(1 0 0 1 -166 -126)">User Management System</text></g></g><g><path fill="none" stroke="#000000" paint-order="fill stroke markers" d=" M 1111 488.5 A 19.5 19.5 0 0 1 1111 449.5" stroke-miterlimit="10" stroke-dasharray=""/></g><g><path fill="#fffafa" stroke="none" paint-order="stroke fill markers" d=" M 1094.861457824707 469.5 C 1094.861457824707 460.38730080000005 1102.248758624707 453 1111.361457824707 453 C 1120.474157024707 453 1127.861457824707 460.38730080000005 1127.861457824707 469.5 C 1127.861457824707 478.61269919999995 1120.474157024707 486 1111.361457824707 486 C 1102.248758624707 486 1094.861457824707 478.61269919999995 1094.861457824707 469.5 Z"/></g><g><path fill="none" stroke="#000000" paint-order="fill stroke markers" d=" M 1094.861457824707 469.5 C 1094.861457824707 460.38730080000005 1102.248758624707 453 1111.361457824707 453 C 1120.474157024707 453 1127.861457824707 460.38730080000005 1127.861457824707 469.5 C 1127.861457824707 478.61269919999995 1120.474157024707 486 1111.361457824707 486 C 1102.248758624707 486 1094.861457824707 478.61269919999995 1094.861457824707 469.5 Z" stroke-miterlimit="10" stroke-dasharray=""/></g><g><g><path fill="none" stroke="none"/><text fill="#000000" stroke="none" font-family="Inter" font-size="14px" font-style="normal" font-weight="bold" text-decoration="undefined" x="1277.861457824707" y="629" text-anchor="middle" dominant-baseline="central" transform="matrix(1 0 0 1 -166 -126)">Authentication</text></g></g><g><path fill="none" stroke="#000000" paint-order="fill stroke markers" d=" M 1012 469 L 1091.861457824707 469" stroke-miterlimit="10" stroke-dasharray=""/></g><g><path fill="none" stroke="#000000" paint-order="fill stroke markers" d=" M 1314 266 L 1314 469 L 1130.861457824707 469" stroke-miterlimit="10" stroke-dasharray=""/></g></g></svg>