<?xml version="1.0" standalone="no"?>
<!DOCTYPE svg PUBLIC "-//W3C//DTD SVG 20010904//EN"
 "http://www.w3.org/TR/2001/REC-SVG-20010904/DTD/svg10.dtd">
<svg version="1.0" xmlns="http://www.w3.org/2000/svg"
 width="700.000000pt" height="700.000000pt" viewBox="0 0 700.000000 700.000000"
 preserveAspectRatio="xMidYMid meet">
<metadata>
Created by potrace 1.14, written by Peter Selinger 2001-2017
</metadata>
<g transform="translate(0.000000,700.000000) scale(0.100000,-0.100000)"
fill="#000000" stroke="none">
<path d="M2533 6411 c-102 -35 -172 -114 -194 -219 -14 -69 7 -165 48 -221 16
-21 111 -112 213 -203 102 -91 213 -199 246 -239 225 -272 339 -563 360 -921
l7 -110 -1220 -1221 c-767 -768 -1233 -1242 -1255 -1277 -113 -176 -153 -326
-145 -542 6 -183 49 -321 142 -463 50 -77 183 -210 260 -260 141 -92 280 -135
459 -142 198 -8 335 24 502 117 74 41 164 129 1306 1269 l1227 1224 48 -18
c39 -15 86 -56 251 -219 l203 -201 -16 -44 c-66 -187 75 -384 275 -384 126 0
100 -22 792 671 694 696 664 659 662 793 -1 106 -61 201 -157 251 -58 29 -160
36 -223 14 l-48 -16 -174 172 c-95 95 -189 194 -207 219 -55 73 -65 133 -65
375 l0 211 -30 59 c-24 49 -93 122 -417 445 -470 467 -575 552 -838 679 -139
67 -251 109 -385 144 -196 52 -258 58 -725 66 -719 13 -841 12 -902 -9z m1388
-600 c196 -40 377 -116 549 -229 65 -43 166 -137 433 -401 l347 -345 0 -150
c0 -234 43 -394 145 -551 21 -33 135 -157 252 -275 l213 -216 -228 -227 c-125
-125 -232 -227 -237 -227 -6 0 -102 92 -215 205 -332 333 -460 395 -820 395
l-155 0 -207 208 -206 207 -5 290 c-5 313 -14 390 -67 591 -60 227 -154 434
-288 633 l-83 124 238 -6 c180 -4 261 -11 334 -26z m-334 -2223 c123 -123 223
-227 223 -233 0 -6 -478 -488 -1062 -1071 -857 -855 -1073 -1066 -1113 -1085
-41 -19 -66 -24 -140 -24 -79 0 -96 4 -142 28 -66 34 -116 84 -150 150 -24 46
-28 63 -28 142 0 74 5 99 24 140 19 40 230 256 1085 1113 583 584 1065 1062
1071 1062 5 0 110 -100 232 -222z"/>
</g>
</svg>
