<svg version="1.1" xmlns="http://www.w3.org/2000/svg" xmlns:xlink="http://www.w3.org/1999/xlink" width="872" height="407"><defs/><g><g><rect fill="#ffffff" stroke="none" x="144" y="472" width="200" height="51" transform="matrix(1 0 0 1 -134 -294)"/></g><g><path fill="none" stroke="#000000" paint-order="fill stroke markers" d=" M 10 178 L 210 178 L 210 229 L 10 229 L 10 178 Z Z" stroke-miterlimit="10" stroke-dasharray=""/></g><g><rect fill="#ffffff" stroke="none" x="324" y="482" width="13" height="16" transform="matrix(1 0 0 1 -134 -294)"/></g><g><path fill="none" stroke="#000000" paint-order="fill stroke markers" d=" M 190 188 L 203 188 L 203 204 L 190 204 L 190 188 Z Z" stroke-miterlimit="10" stroke-dasharray=""/></g><g><rect fill="#ffffff" stroke="none" x="321" y="485" width="7" height="4" transform="matrix(1 0 0 1 -134 -294)"/></g><g><path fill="none" stroke="#000000" paint-order="fill stroke markers" d=" M 187 191 L 194 191 L 194 195 L 187 195 L 187 191 Z Z" stroke-miterlimit="10" stroke-dasharray=""/></g><g><rect fill="#ffffff" stroke="none" x="321" y="491" width="7" height="4" transform="matrix(1 0 0 1 -134 -294)"/></g><g><path fill="none" stroke="#000000" paint-order="fill stroke markers" d=" M 187 197 L 194 197 L 194 201 L 187 201 L 187 197 Z Z" stroke-miterlimit="10" stroke-dasharray=""/></g><g><g><path fill="none" stroke="none"/><text fill="#000000" stroke="none" font-family="Arial" font-size="13px" font-style="normal" font-weight="normal" text-decoration="undefined" x="232" y="483.5" text-anchor="middle" dominant-baseline="central" transform="matrix(1 0 0 1 -134 -294)"></text></g></g><g><g><path fill="none" stroke="none"/><text fill="#000000" stroke="none" font-family="Arial" font-size="13px" font-style="normal" font-weight="bold" text-decoration="undefined" x="232" y="498.5" text-anchor="middle" dominant-baseline="central" transform="matrix(1 0 0 1 -134 -294)">Hephaestus Application</text><text fill="#000000" stroke="none" font-family="Arial" font-size="13px" font-style="normal" font-weight="bold" text-decoration="undefined" x="232" y="511.5" text-anchor="middle" dominant-baseline="central" transform="matrix(1 0 0 1 -134 -294)">Client</text></g></g><g><rect fill="#ffffff" stroke="none" x="480" y="472" width="200" height="51" transform="matrix(1 0 0 1 -134 -294)"/></g><g><path fill="none" stroke="#000000" paint-order="fill stroke markers" d=" M 346 178 L 546 178 L 546 229 L 346 229 L 346 178 Z Z" stroke-miterlimit="10" stroke-dasharray=""/></g><g><rect fill="#ffffff" stroke="none" x="660" y="482" width="13" height="16" transform="matrix(1 0 0 1 -134 -294)"/></g><g><path fill="none" stroke="#000000" paint-order="fill stroke markers" d=" M 526 188 L 539 188 L 539 204 L 526 204 L 526 188 Z Z" stroke-miterlimit="10" stroke-dasharray=""/></g><g><rect fill="#ffffff" stroke="none" x="657" y="485" width="7" height="4" transform="matrix(1 0 0 1 -134 -294)"/></g><g><path fill="none" stroke="#000000" paint-order="fill stroke markers" d=" M 523 191 L 530 191 L 530 195 L 523 195 L 523 191 Z Z" stroke-miterlimit="10" stroke-dasharray=""/></g><g><rect fill="#ffffff" stroke="none" x="657" y="491" width="7" height="4" transform="matrix(1 0 0 1 -134 -294)"/></g><g><path fill="none" stroke="#000000" paint-order="fill stroke markers" d=" M 523 197 L 530 197 L 530 201 L 523 201 L 523 197 Z Z" stroke-miterlimit="10" stroke-dasharray=""/></g><g><g><path fill="none" stroke="none"/><text fill="#000000" stroke="none" font-family="Arial" font-size="13px" font-style="normal" font-weight="normal" text-decoration="undefined" x="568" y="483.5" text-anchor="middle" dominant-baseline="central" transform="matrix(1 0 0 1 -134 -294)"></text></g></g><g><g><path fill="none" stroke="none"/><text fill="#000000" stroke="none" font-family="Arial" font-size="13px" font-style="normal" font-weight="bold" text-decoration="undefined" x="568" y="498.5" text-anchor="middle" dominant-baseline="central" transform="matrix(1 0 0 1 -134 -294)">Hephaestus Application</text><text fill="#000000" stroke="none" font-family="Arial" font-size="13px" font-style="normal" font-weight="bold" text-decoration="undefined" x="568" y="511.5" text-anchor="middle" dominant-baseline="central" transform="matrix(1 0 0 1 -134 -294)">Server</text></g></g><g><rect fill="#ffffff" stroke="none" x="796" y="472" width="200" height="51" transform="matrix(1 0 0 1 -134 -294)"/></g><g><path fill="none" stroke="#000000" paint-order="fill stroke markers" d=" M 662 178 L 862 178 L 862 229 L 662 229 L 662 178 Z Z" stroke-miterlimit="10" stroke-dasharray=""/></g><g><rect fill="#ffffff" stroke="none" x="976" y="482" width="13" height="16" transform="matrix(1 0 0 1 -134 -294)"/></g><g><path fill="none" stroke="#000000" paint-order="fill stroke markers" d=" M 842 188 L 855 188 L 855 204 L 842 204 L 842 188 Z Z" stroke-miterlimit="10" stroke-dasharray=""/></g><g><rect fill="#ffffff" stroke="none" x="973" y="485" width="7" height="4" transform="matrix(1 0 0 1 -134 -294)"/></g><g><path fill="none" stroke="#000000" paint-order="fill stroke markers" d=" M 839 191 L 846 191 L 846 195 L 839 195 L 839 191 Z Z" stroke-miterlimit="10" stroke-dasharray=""/></g><g><rect fill="#ffffff" stroke="none" x="973" y="491" width="7" height="4" transform="matrix(1 0 0 1 -134 -294)"/></g><g><path fill="none" stroke="#000000" paint-order="fill stroke markers" d=" M 839 197 L 846 197 L 846 201 L 839 201 L 839 197 Z Z" stroke-miterlimit="10" stroke-dasharray=""/></g><g><g><path fill="none" stroke="none"/><text fill="#000000" stroke="none" font-family="Arial" font-size="13px" font-style="normal" font-weight="normal" text-decoration="undefined" x="884" y="483.5" text-anchor="middle" dominant-baseline="central" transform="matrix(1 0 0 1 -134 -294)"></text></g></g><g><g><path fill="none" stroke="none"/><text fill="#000000" stroke="none" font-family="Arial" font-size="13px" font-style="normal" font-weight="bold" text-decoration="undefined" x="884" y="498.5" text-anchor="middle" dominant-baseline="central" transform="matrix(1 0 0 1 -134 -294)">Large Language Model</text></g></g><g><rect fill="#ffffff" stroke="none" x="796" y="556" width="200" height="51" transform="matrix(1 0 0 1 -134 -294)"/></g><g><path fill="none" stroke="#000000" paint-order="fill stroke markers" d=" M 662 262 L 862 262 L 862 313 L 662 313 L 662 262 Z Z" stroke-miterlimit="10" stroke-dasharray=""/></g><g><rect fill="#ffffff" stroke="none" x="976" y="566" width="13" height="16" transform="matrix(1 0 0 1 -134 -294)"/></g><g><path fill="none" stroke="#000000" paint-order="fill stroke markers" d=" M 842 272 L 855 272 L 855 288 L 842 288 L 842 272 Z Z" stroke-miterlimit="10" stroke-dasharray=""/></g><g><rect fill="#ffffff" stroke="none" x="973" y="569" width="7" height="4" transform="matrix(1 0 0 1 -134 -294)"/></g><g><path fill="none" stroke="#000000" paint-order="fill stroke markers" d=" M 839 275 L 846 275 L 846 279 L 839 279 L 839 275 Z Z" stroke-miterlimit="10" stroke-dasharray=""/></g><g><rect fill="#ffffff" stroke="none" x="973" y="575" width="7" height="4" transform="matrix(1 0 0 1 -134 -294)"/></g><g><path fill="none" stroke="#000000" paint-order="fill stroke markers" d=" M 839 281 L 846 281 L 846 285 L 839 285 L 839 281 Z Z" stroke-miterlimit="10" stroke-dasharray=""/></g><g><g><path fill="none" stroke="none"/><text fill="#000000" stroke="none" font-family="Arial" font-size="13px" font-style="normal" font-weight="normal" text-decoration="undefined" x="884" y="567.5" text-anchor="middle" dominant-baseline="central" transform="matrix(1 0 0 1 -134 -294)"></text></g></g><g><g><path fill="none" stroke="none"/><text fill="#000000" stroke="none" font-family="Arial" font-size="13px" font-style="normal" font-weight="bold" text-decoration="undefined" x="884" y="582.5" text-anchor="middle" dominant-baseline="central" transform="matrix(1 0 0 1 -134 -294)">LLM Engineering Platform</text></g></g><g><rect fill="#ffffff" stroke="none" x="796" y="388" width="200" height="51" transform="matrix(1 0 0 1 -134 -294)"/></g><g><path fill="none" stroke="#000000" paint-order="fill stroke markers" d=" M 662 94 L 862 94 L 862 145 L 662 145 L 662 94 Z Z" stroke-miterlimit="10" stroke-dasharray=""/></g><g><rect fill="#ffffff" stroke="none" x="976" y="398" width="13" height="16" transform="matrix(1 0 0 1 -134 -294)"/></g><g><path fill="none" stroke="#000000" paint-order="fill stroke markers" d=" M 842 104 L 855 104 L 855 120 L 842 120 L 842 104 Z Z" stroke-miterlimit="10" stroke-dasharray=""/></g><g><rect fill="#ffffff" stroke="none" x="973" y="401" width="7" height="4" transform="matrix(1 0 0 1 -134 -294)"/></g><g><path fill="none" stroke="#000000" paint-order="fill stroke markers" d=" M 839 107 L 846 107 L 846 111 L 839 111 L 839 107 Z Z" stroke-miterlimit="10" stroke-dasharray=""/></g><g><rect fill="#ffffff" stroke="none" x="973" y="407" width="7" height="4" transform="matrix(1 0 0 1 -134 -294)"/></g><g><path fill="none" stroke="#000000" paint-order="fill stroke markers" d=" M 839 113 L 846 113 L 846 117 L 839 117 L 839 113 Z Z" stroke-miterlimit="10" stroke-dasharray=""/></g><g><g><path fill="none" stroke="none"/><text fill="#000000" stroke="none" font-family="Arial" font-size="13px" font-style="normal" font-weight="normal" text-decoration="undefined" x="884" y="399.5" text-anchor="middle" dominant-baseline="central" transform="matrix(1 0 0 1 -134 -294)"></text></g></g><g><g><path fill="none" stroke="none"/><text fill="#000000" stroke="none" font-family="Arial" font-size="13px" font-style="normal" font-weight="bold" text-decoration="undefined" x="884" y="414.5" text-anchor="middle" dominant-baseline="central" transform="matrix(1 0 0 1 -134 -294)">Development Tools</text></g></g><g><path fill="none" stroke="#000000" paint-order="fill stroke markers" d=" M 606 131 A 12 12 0 0 1 606 107" stroke-miterlimit="10" stroke-dasharray=""/></g><g><path fill="#ffffff" stroke="none" paint-order="stroke fill markers" d=" M 597 119 C 597 114.02943679999998 601.0294368 110 606 110 C 610.9705632 110 615 114.02943679999998 615 119 C 615 123.97056320000002 610.9705632 128 606 128 C 601.0294368 128 597 123.97056320000002 597 119 Z"/></g><g><path fill="none" stroke="#000000" paint-order="fill stroke markers" d=" M 597 119 C 597 114.02943679999998 601.0294368 110 606 110 C 610.9705632 110 615 114.02943679999998 615 119 C 615 123.97056320000002 610.9705632 128 606 128 C 601.0294368 128 597 123.97056320000002 597 119 Z" stroke-miterlimit="10" stroke-dasharray=""/></g><g><g><path fill="none" stroke="none"/><text fill="#000000" stroke="none" font-family="Arial" font-size="13px" font-style="normal" font-weight="bold" text-decoration="undefined" x="740.5" y="438.5" text-anchor="middle" dominant-baseline="central" transform="matrix(1 0 0 1 -134 -294)">Development</text><text fill="#000000" stroke="none" font-family="Arial" font-size="13px" font-style="normal" font-weight="bold" text-decoration="undefined" x="740.5" y="451.5" text-anchor="middle" dominant-baseline="central" transform="matrix(1 0 0 1 -134 -294)">Data &amp; Metrics</text></g></g><g><path fill="none" stroke="#000000" paint-order="fill stroke markers" d=" M 662 119 L 618 119" stroke-miterlimit="10" stroke-dasharray=""/></g><g><path fill="none" stroke="#000000" paint-order="fill stroke markers" d=" M 606 218 A 12 12 0 0 1 606 194" stroke-miterlimit="10" stroke-dasharray=""/></g><g><path fill="#ffffff" stroke="none" paint-order="stroke fill markers" d=" M 597.36181640625 206 C 597.36181640625 201.02943679999998 601.39125320625 197 606.36181640625 197 C 611.33237960625 197 615.36181640625 201.02943679999998 615.36181640625 206 C 615.36181640625 210.97056320000002 611.33237960625 215 606.36181640625 215 C 601.39125320625 215 597.36181640625 210.97056320000002 597.36181640625 206 Z"/></g><g><path fill="none" stroke="#000000" paint-order="fill stroke markers" d=" M 597.36181640625 206 C 597.36181640625 201.02943679999998 601.39125320625 197 606.36181640625 197 C 611.33237960625 197 615.36181640625 201.02943679999998 615.36181640625 206 C 615.36181640625 210.97056320000002 611.33237960625 215 606.36181640625 215 C 601.39125320625 215 597.36181640625 210.97056320000002 597.36181640625 206 Z" stroke-miterlimit="10" stroke-dasharray=""/></g><g><g><path fill="none" stroke="none"/><text fill="#000000" stroke="none" font-family="Arial" font-size="13px" font-style="normal" font-weight="bold" text-decoration="undefined" x="740.86181640625" y="525.5" text-anchor="middle" dominant-baseline="central" transform="matrix(1 0 0 1 -134 -294)">Completion</text></g></g><g><path fill="none" stroke="#000000" paint-order="fill stroke markers" d=" M 662 206 L 618.36181640625 206" stroke-miterlimit="10" stroke-dasharray=""/></g><g><path fill="none" stroke="#000000" paint-order="fill stroke markers" d=" M 546 206 L 594.36181640625 206" stroke-miterlimit="10" stroke-dasharray=""/></g><g><path fill="none" stroke="#000000" paint-order="fill stroke markers" d=" M 526 178 L 526 119 L 594 119" stroke-miterlimit="10" stroke-dasharray=""/></g><g><path fill="none" stroke="#000000" paint-order="fill stroke markers" d=" M 594.6158004233938 289.7947331922021 A 12 12 0 0 1 617.3841995766062 282.2052668077979" stroke-miterlimit="10" stroke-dasharray=""/></g><g><path fill="none" stroke="#000000" paint-order="fill stroke markers" d=" M 606 298 A 12 12 0 0 1 606 274" stroke-miterlimit="10" stroke-dasharray=""/></g><g><path fill="#ffffff" stroke="none" paint-order="stroke fill markers" d=" M 597.062255859375 286 C 597.062255859375 281.0294368 601.091692659375 277 606.062255859375 277 C 611.032819059375 277 615.062255859375 281.0294368 615.062255859375 286 C 615.062255859375 290.9705632 611.032819059375 295 606.062255859375 295 C 601.091692659375 295 597.062255859375 290.9705632 597.062255859375 286 Z"/></g><g><path fill="none" stroke="#000000" paint-order="fill stroke markers" d=" M 597.062255859375 286 C 597.062255859375 281.0294368 601.091692659375 277 606.062255859375 277 C 611.032819059375 277 615.062255859375 281.0294368 615.062255859375 286 C 615.062255859375 290.9705632 611.032819059375 295 606.062255859375 295 C 601.091692659375 295 597.062255859375 290.9705632 597.062255859375 286 Z" stroke-miterlimit="10" stroke-dasharray=""/></g><g><g><path fill="none" stroke="none"/><text fill="#000000" stroke="none" font-family="Arial" font-size="13px" font-style="normal" font-weight="bold" text-decoration="undefined" x="740.562255859375" y="605.5" text-anchor="middle" dominant-baseline="central" transform="matrix(1 0 0 1 -134 -294)">LLM Metrics</text></g></g><g><path fill="none" stroke="#000000" paint-order="fill stroke markers" d=" M 662 286 L 618.062255859375 286" stroke-miterlimit="10" stroke-dasharray=""/></g><g><path fill="none" stroke="#000000" paint-order="fill stroke markers" d=" M 528 229 L 528 258 L 602 258 L 602 274" stroke-miterlimit="10" stroke-dasharray=""/></g><g><rect fill="#ffffff" stroke="none" x="796" y="304" width="200" height="51" transform="matrix(1 0 0 1 -134 -294)"/></g><g><path fill="none" stroke="#000000" paint-order="fill stroke markers" d=" M 662 10 L 862 10 L 862 61 L 662 61 L 662 10 Z Z" stroke-miterlimit="10" stroke-dasharray=""/></g><g><rect fill="#ffffff" stroke="none" x="976" y="314" width="13" height="16" transform="matrix(1 0 0 1 -134 -294)"/></g><g><path fill="none" stroke="#000000" paint-order="fill stroke markers" d=" M 842 20 L 855 20 L 855 36 L 842 36 L 842 20 Z Z" stroke-miterlimit="10" stroke-dasharray=""/></g><g><rect fill="#ffffff" stroke="none" x="973" y="317" width="7" height="4" transform="matrix(1 0 0 1 -134 -294)"/></g><g><path fill="none" stroke="#000000" paint-order="fill stroke markers" d=" M 839 23 L 846 23 L 846 27 L 839 27 L 839 23 Z Z" stroke-miterlimit="10" stroke-dasharray=""/></g><g><rect fill="#ffffff" stroke="none" x="973" y="323" width="7" height="4" transform="matrix(1 0 0 1 -134 -294)"/></g><g><path fill="none" stroke="#000000" paint-order="fill stroke markers" d=" M 839 29 L 846 29 L 846 33 L 839 33 L 839 29 Z Z" stroke-miterlimit="10" stroke-dasharray=""/></g><g><g><path fill="none" stroke="none"/><text fill="#000000" stroke="none" font-family="Arial" font-size="13px" font-style="normal" font-weight="normal" text-decoration="undefined" x="884" y="315.5" text-anchor="middle" dominant-baseline="central" transform="matrix(1 0 0 1 -134 -294)"></text></g></g><g><g><path fill="none" stroke="none"/><text fill="#000000" stroke="none" font-family="Arial" font-size="13px" font-style="normal" font-weight="bold" text-decoration="undefined" x="884" y="330.5" text-anchor="middle" dominant-baseline="central" transform="matrix(1 0 0 1 -134 -294)">User Management System</text></g></g><g><path fill="none" stroke="#000000" paint-order="fill stroke markers" d=" M 606 50 A 12 12 0 0 1 606 26" stroke-miterlimit="10" stroke-dasharray=""/></g><g><path fill="#ffffff" stroke="none" paint-order="stroke fill markers" d=" M 597.72998046875 38 C 597.72998046875 33.029436799999985 601.75941726875 29 606.72998046875 29 C 611.70054366875 29 615.72998046875 33.029436799999985 615.72998046875 38 C 615.72998046875 42.970563200000015 611.70054366875 47 606.72998046875 47 C 601.75941726875 47 597.72998046875 42.970563200000015 597.72998046875 38 Z"/></g><g><path fill="none" stroke="#000000" paint-order="fill stroke markers" d=" M 597.72998046875 38 C 597.72998046875 33.029436799999985 601.75941726875 29 606.72998046875 29 C 611.70054366875 29 615.72998046875 33.029436799999985 615.72998046875 38 C 615.72998046875 42.970563200000015 611.70054366875 47 606.72998046875 47 C 601.75941726875 47 597.72998046875 42.970563200000015 597.72998046875 38 Z" stroke-miterlimit="10" stroke-dasharray=""/></g><g><g><path fill="none" stroke="none"/><text fill="#000000" stroke="none" font-family="Arial" font-size="13px" font-style="normal" font-weight="bold" text-decoration="undefined" x="741.22998046875" y="357.5" text-anchor="middle" dominant-baseline="central" transform="matrix(1 0 0 1 -134 -294)">Access</text><text fill="#000000" stroke="none" font-family="Arial" font-size="13px" font-style="normal" font-weight="bold" text-decoration="undefined" x="741.22998046875" y="370.5" text-anchor="middle" dominant-baseline="central" transform="matrix(1 0 0 1 -134 -294)">Management</text></g></g><g><path fill="none" stroke="#000000" paint-order="fill stroke markers" d=" M 662 38 L 618.72998046875 38" stroke-miterlimit="10" stroke-dasharray=""/></g><g><path fill="none" stroke="#000000" paint-order="fill stroke markers" d=" M 498 178 L 498 38 L 594.72998046875 38" stroke-miterlimit="10" stroke-dasharray=""/></g><g><path fill="none" stroke="#000000" paint-order="fill stroke markers" d=" M 282 218 A 12 12 0 0 1 282 194" stroke-miterlimit="10" stroke-dasharray=""/></g><g><path fill="#ffffff" stroke="none" paint-order="stroke fill markers" d=" M 273 206 C 273 201.02943679999998 277.0294368 197 282 197 C 286.9705632 197 291 201.02943679999998 291 206 C 291 210.97056320000002 286.9705632 215 282 215 C 277.0294368 215 273 210.97056320000002 273 206 Z"/></g><g><path fill="none" stroke="#000000" paint-order="fill stroke markers" d=" M 273 206 C 273 201.02943679999998 277.0294368 197 282 197 C 286.9705632 197 291 201.02943679999998 291 206 C 291 210.97056320000002 286.9705632 215 282 215 C 277.0294368 215 273 210.97056320000002 273 206 Z" stroke-miterlimit="10" stroke-dasharray=""/></g><g><g><path fill="none" stroke="none"/><text fill="#000000" stroke="none" font-family="Arial" font-size="13px" font-style="normal" font-weight="bold" text-decoration="undefined" x="416.5" y="525.5" text-anchor="middle" dominant-baseline="central" transform="matrix(1 0 0 1 -134 -294)">Hephaestus</text><text fill="#000000" stroke="none" font-family="Arial" font-size="13px" font-style="normal" font-weight="bold" text-decoration="undefined" x="416.5" y="538.5" text-anchor="middle" dominant-baseline="central" transform="matrix(1 0 0 1 -134 -294)">API</text></g></g><g><path fill="none" stroke="#000000" paint-order="fill stroke markers" d=" M 346 206 L 294 206" stroke-miterlimit="10" stroke-dasharray=""/></g><g><path fill="none" stroke="#000000" paint-order="fill stroke markers" d=" M 210 206 L 270 206" stroke-miterlimit="10" stroke-dasharray=""/></g><g><rect fill="#ffffff" stroke="none" x="568" y="640" width="200" height="51" transform="matrix(1 0 0 1 -134 -294)"/></g><g><path fill="none" stroke="#000000" paint-order="fill stroke markers" d=" M 434 346 L 634 346 L 634 397 L 434 397 L 434 346 Z Z" stroke-miterlimit="10" stroke-dasharray=""/></g><g><rect fill="#ffffff" stroke="none" x="748" y="650" width="13" height="16" transform="matrix(1 0 0 1 -134 -294)"/></g><g><path fill="none" stroke="#000000" paint-order="fill stroke markers" d=" M 614 356 L 627 356 L 627 372 L 614 372 L 614 356 Z Z" stroke-miterlimit="10" stroke-dasharray=""/></g><g><rect fill="#ffffff" stroke="none" x="745" y="653" width="7" height="4" transform="matrix(1 0 0 1 -134 -294)"/></g><g><path fill="none" stroke="#000000" paint-order="fill stroke markers" d=" M 611 359 L 618 359 L 618 363 L 611 363 L 611 359 Z Z" stroke-miterlimit="10" stroke-dasharray=""/></g><g><rect fill="#ffffff" stroke="none" x="745" y="659" width="7" height="4" transform="matrix(1 0 0 1 -134 -294)"/></g><g><path fill="none" stroke="#000000" paint-order="fill stroke markers" d=" M 611 365 L 618 365 L 618 369 L 611 369 L 611 365 Z Z" stroke-miterlimit="10" stroke-dasharray=""/></g><g><g><path fill="none" stroke="none"/><text fill="#000000" stroke="none" font-family="Arial" font-size="13px" font-style="normal" font-weight="normal" text-decoration="undefined" x="656" y="651.5" text-anchor="middle" dominant-baseline="central" transform="matrix(1 0 0 1 -134 -294)"></text></g></g><g><g><path fill="none" stroke="none"/><text fill="#000000" stroke="none" font-family="Arial" font-size="13px" font-style="normal" font-weight="bold" text-decoration="undefined" x="656" y="666.5" text-anchor="middle" dominant-baseline="central" transform="matrix(1 0 0 1 -134 -294)">Analytics Platform</text></g></g><g><path fill="none" stroke="#000000" paint-order="fill stroke markers" d=" M 413.1632729140143 287.97278784766434 A 12 12 0 0 1 436.8367270859857 284.02721215233566" stroke-miterlimit="10" stroke-dasharray=""/></g><g><path fill="none" stroke="#000000" paint-order="fill stroke markers" d=" M 425 298 A 12 12 0 0 1 425 274" stroke-miterlimit="10" stroke-dasharray=""/></g><g><path fill="#ffffff" stroke="none" paint-order="stroke fill markers" d=" M 416.239501953125 286 C 416.239501953125 281.0294368 420.268938753125 277 425.239501953125 277 C 430.210065153125 277 434.239501953125 281.0294368 434.239501953125 286 C 434.239501953125 290.9705632 430.210065153125 295 425.239501953125 295 C 420.268938753125 295 416.239501953125 290.9705632 416.239501953125 286 Z"/></g><g><path fill="none" stroke="#000000" paint-order="fill stroke markers" d=" M 416.239501953125 286 C 416.239501953125 281.0294368 420.268938753125 277 425.239501953125 277 C 430.210065153125 277 434.239501953125 281.0294368 434.239501953125 286 C 434.239501953125 290.9705632 430.210065153125 295 425.239501953125 295 C 420.268938753125 295 416.239501953125 290.9705632 416.239501953125 286 Z" stroke-miterlimit="10" stroke-dasharray=""/></g><g><g><path fill="none" stroke="none"/><text fill="#000000" stroke="none" font-family="Arial" font-size="13px" font-style="normal" font-weight="bold" text-decoration="undefined" x="559.739501953125" y="605.5" text-anchor="middle" dominant-baseline="central" transform="matrix(1 0 0 1 -134 -294)">Event Tracking</text></g></g><g><path fill="none" stroke="#000000" paint-order="fill stroke markers" d=" M 506 346 L 506 286 L 437.239501953125 286" stroke-miterlimit="10" stroke-dasharray=""/></g><g><path fill="none" stroke="#000000" paint-order="fill stroke markers" d=" M 423 229 L 423 274" stroke-miterlimit="10" stroke-dasharray=""/></g><g><path fill="none" stroke="#000000" paint-order="fill stroke markers" d=" M 94 229 L 94 286 L 413.239501953125 286" stroke-miterlimit="10" stroke-dasharray=""/></g><g><path fill="none" stroke="#000000" paint-order="fill stroke markers" d=" M 554 346 L 554 286 L 594.062255859375 286" stroke-miterlimit="10" stroke-dasharray=""/></g><g><rect fill="#ffffff" stroke="none" x="316" y="366" width="200" height="51" transform="matrix(1 0 0 1 -134 -294)"/></g><g><path fill="none" stroke="#000000" paint-order="fill stroke markers" d=" M 182 72 L 382 72 L 382 123 L 182 123 L 182 72 Z Z" stroke-miterlimit="10" stroke-dasharray=""/></g><g><rect fill="#ffffff" stroke="none" x="496" y="376" width="13" height="16" transform="matrix(1 0 0 1 -134 -294)"/></g><g><path fill="none" stroke="#000000" paint-order="fill stroke markers" d=" M 362 82 L 375 82 L 375 98 L 362 98 L 362 82 Z Z" stroke-miterlimit="10" stroke-dasharray=""/></g><g><rect fill="#ffffff" stroke="none" x="493" y="379" width="7" height="4" transform="matrix(1 0 0 1 -134 -294)"/></g><g><path fill="none" stroke="#000000" paint-order="fill stroke markers" d=" M 359 85 L 366 85 L 366 89 L 359 89 L 359 85 Z Z" stroke-miterlimit="10" stroke-dasharray=""/></g><g><rect fill="#ffffff" stroke="none" x="493" y="385" width="7" height="4" transform="matrix(1 0 0 1 -134 -294)"/></g><g><path fill="none" stroke="#000000" paint-order="fill stroke markers" d=" M 359 91 L 366 91 L 366 95 L 359 95 L 359 91 Z Z" stroke-miterlimit="10" stroke-dasharray=""/></g><g><g><path fill="none" stroke="none"/><text fill="#000000" stroke="none" font-family="Arial" font-size="13px" font-style="normal" font-weight="normal" text-decoration="undefined" x="404" y="377.5" text-anchor="middle" dominant-baseline="central" transform="matrix(1 0 0 1 -134 -294)"></text></g></g><g><g><path fill="none" stroke="none"/><text fill="#000000" stroke="none" font-family="Arial" font-size="13px" font-style="normal" font-weight="bold" text-decoration="undefined" x="404" y="392.5" text-anchor="middle" dominant-baseline="central" transform="matrix(1 0 0 1 -134 -294)">Notification Service</text></g></g><g><path fill="none" stroke="#000000" paint-order="fill stroke markers" d=" M 140 110 A 12 12 0 0 1 140 86" stroke-miterlimit="10" stroke-dasharray=""/></g><g><path fill="#ffffff" stroke="none" paint-order="stroke fill markers" d=" M 131.746826171875 98 C 131.746826171875 93.02943679999998 135.77626297187498 89 140.746826171875 89 C 145.71738937187502 89 149.746826171875 93.02943679999998 149.746826171875 98 C 149.746826171875 102.97056320000002 145.71738937187502 107 140.746826171875 107 C 135.77626297187498 107 131.746826171875 102.97056320000002 131.746826171875 98 Z"/></g><g><path fill="none" stroke="#000000" paint-order="fill stroke markers" d=" M 131.746826171875 98 C 131.746826171875 93.02943679999998 135.77626297187498 89 140.746826171875 89 C 145.71738937187502 89 149.746826171875 93.02943679999998 149.746826171875 98 C 149.746826171875 102.97056320000002 145.71738937187502 107 140.746826171875 107 C 135.77626297187498 107 131.746826171875 102.97056320000002 131.746826171875 98 Z" stroke-miterlimit="10" stroke-dasharray=""/></g><g><g><path fill="none" stroke="none"/><text fill="#000000" stroke="none" font-family="Arial" font-size="13px" font-style="normal" font-weight="bold" text-decoration="undefined" x="275.246826171875" y="417.5" text-anchor="middle" dominant-baseline="central" transform="matrix(1 0 0 1 -134 -294)">Notification</text><text fill="#000000" stroke="none" font-family="Arial" font-size="13px" font-style="normal" font-weight="bold" text-decoration="undefined" x="275.246826171875" y="430.5" text-anchor="middle" dominant-baseline="central" transform="matrix(1 0 0 1 -134 -294)">Receiver</text></g></g><g><path fill="none" stroke="#000000" paint-order="fill stroke markers" d=" M 182 98 L 152.746826171875 98" stroke-miterlimit="10" stroke-dasharray=""/></g><g><path fill="none" stroke="#000000" paint-order="fill stroke markers" d=" M 424 86 A 12 12 0 0 1 424 110" stroke-miterlimit="10" stroke-dasharray=""/></g><g><path fill="#ffffff" stroke="none" paint-order="stroke fill markers" d=" M 415.746826171875 98 C 415.746826171875 93.02943679999998 419.776262971875 89 424.746826171875 89 C 429.717389371875 89 433.746826171875 93.02943679999998 433.746826171875 98 C 433.746826171875 102.97056320000002 429.717389371875 107 424.746826171875 107 C 419.776262971875 107 415.746826171875 102.97056320000002 415.746826171875 98 Z"/></g><g><path fill="none" stroke="#000000" paint-order="fill stroke markers" d=" M 415.746826171875 98 C 415.746826171875 93.02943679999998 419.776262971875 89 424.746826171875 89 C 429.717389371875 89 433.746826171875 93.02943679999998 433.746826171875 98 C 433.746826171875 102.97056320000002 429.717389371875 107 424.746826171875 107 C 419.776262971875 107 415.746826171875 102.97056320000002 415.746826171875 98 Z" stroke-miterlimit="10" stroke-dasharray=""/></g><g><g><path fill="none" stroke="none"/><text fill="#000000" stroke="none" font-family="Arial" font-size="13px" font-style="normal" font-weight="bold" text-decoration="undefined" x="559.246826171875" y="417.5" text-anchor="middle" dominant-baseline="central" transform="matrix(1 0 0 1 -134 -294)">Notification</text><text fill="#000000" stroke="none" font-family="Arial" font-size="13px" font-style="normal" font-weight="bold" text-decoration="undefined" x="559.246826171875" y="430.5" text-anchor="middle" dominant-baseline="central" transform="matrix(1 0 0 1 -134 -294)">Sender</text></g></g><g><path fill="none" stroke="#000000" paint-order="fill stroke markers" d=" M 382 98 L 412.746826171875 98" stroke-miterlimit="10" stroke-dasharray=""/></g><g><path fill="none" stroke="#000000" paint-order="fill stroke markers" d=" M 470 178 L 470 98 L 436.746826171875 98" stroke-miterlimit="10" stroke-dasharray=""/></g><g><path fill="none" stroke="#000000" paint-order="fill stroke markers" d=" M 94 178 L 94 98 L 128.746826171875 98" stroke-miterlimit="10" stroke-dasharray=""/></g></g></svg>