<svg version="1.1" xmlns="http://www.w3.org/2000/svg" xmlns:xlink="http://www.w3.org/1999/xlink" width="1164" height="351"><defs/><g><g><rect fill="#FFFFFF" stroke="none" x="144" y="472" width="200" height="51" transform="matrix(1 0 0 1 -134 -294)"/></g><g><path fill="none" stroke="#000000" paint-order="fill stroke markers" d=" M 10 178 L 210 178 L 210 229 L 10 229 L 10 178 Z Z" stroke-miterlimit="10" stroke-dasharray=""/></g><g><rect fill="#FFFFFF" stroke="none" x="324" y="482" width="13" height="16" transform="matrix(1 0 0 1 -134 -294)"/></g><g><path fill="none" stroke="#000000" paint-order="fill stroke markers" d=" M 190 188 L 203 188 L 203 204 L 190 204 L 190 188 Z Z" stroke-miterlimit="10" stroke-dasharray=""/></g><g><rect fill="#FFFFFF" stroke="none" x="321" y="485" width="7" height="4" transform="matrix(1 0 0 1 -134 -294)"/></g><g><path fill="none" stroke="#000000" paint-order="fill stroke markers" d=" M 187 191 L 194 191 L 194 195 L 187 195 L 187 191 Z Z" stroke-miterlimit="10" stroke-dasharray=""/></g><g><rect fill="#FFFFFF" stroke="none" x="321" y="491" width="7" height="4" transform="matrix(1 0 0 1 -134 -294)"/></g><g><path fill="none" stroke="#000000" paint-order="fill stroke markers" d=" M 187 197 L 194 197 L 194 201 L 187 201 L 187 197 Z Z" stroke-miterlimit="10" stroke-dasharray=""/></g><g><g><path fill="none" stroke="none"/><text fill="#000000" stroke="none" font-family="Arial" font-size="13px" font-style="normal" font-weight="normal" text-decoration="undefined" x="232" y="483.5" text-anchor="middle" dominant-baseline="central" transform="matrix(1 0 0 1 -134 -294)"></text></g></g><g><g><path fill="none" stroke="none"/><text fill="#000000" stroke="none" font-family="Arial" font-size="13px" font-style="normal" font-weight="bold" text-decoration="undefined" x="232" y="498.5" text-anchor="middle" dominant-baseline="central" transform="matrix(1 0 0 1 -134 -294)">Hephaestus Application</text><text fill="#000000" stroke="none" font-family="Arial" font-size="13px" font-style="normal" font-weight="bold" text-decoration="undefined" x="232" y="511.5" text-anchor="middle" dominant-baseline="central" transform="matrix(1 0 0 1 -134 -294)">Client</text></g></g><g><rect fill="#FFFFFF" stroke="none" x="480" y="472" width="200" height="51" transform="matrix(1 0 0 1 -134 -294)"/></g><g><path fill="none" stroke="#000000" paint-order="fill stroke markers" d=" M 346 178 L 546 178 L 546 229 L 346 229 L 346 178 Z Z" stroke-miterlimit="10" stroke-dasharray=""/></g><g><rect fill="#FFFFFF" stroke="none" x="660" y="482" width="13" height="16" transform="matrix(1 0 0 1 -134 -294)"/></g><g><path fill="none" stroke="#000000" paint-order="fill stroke markers" d=" M 526 188 L 539 188 L 539 204 L 526 204 L 526 188 Z Z" stroke-miterlimit="10" stroke-dasharray=""/></g><g><rect fill="#FFFFFF" stroke="none" x="657" y="485" width="7" height="4" transform="matrix(1 0 0 1 -134 -294)"/></g><g><path fill="none" stroke="#000000" paint-order="fill stroke markers" d=" M 523 191 L 530 191 L 530 195 L 523 195 L 523 191 Z Z" stroke-miterlimit="10" stroke-dasharray=""/></g><g><rect fill="#FFFFFF" stroke="none" x="657" y="491" width="7" height="4" transform="matrix(1 0 0 1 -134 -294)"/></g><g><path fill="none" stroke="#000000" paint-order="fill stroke markers" d=" M 523 197 L 530 197 L 530 201 L 523 201 L 523 197 Z Z" stroke-miterlimit="10" stroke-dasharray=""/></g><g><g><path fill="none" stroke="none"/><text fill="#000000" stroke="none" font-family="Arial" font-size="13px" font-style="normal" font-weight="normal" text-decoration="undefined" x="568" y="483.5" text-anchor="middle" dominant-baseline="central" transform="matrix(1 0 0 1 -134 -294)"></text></g></g><g><g><path fill="none" stroke="none"/><text fill="#000000" stroke="none" font-family="Arial" font-size="13px" font-style="normal" font-weight="bold" text-decoration="undefined" x="568" y="498.5" text-anchor="middle" dominant-baseline="central" transform="matrix(1 0 0 1 -134 -294)">Hephaestus Application</text><text fill="#000000" stroke="none" font-family="Arial" font-size="13px" font-style="normal" font-weight="bold" text-decoration="undefined" x="568" y="511.5" text-anchor="middle" dominant-baseline="central" transform="matrix(1 0 0 1 -134 -294)">Server</text></g></g><g><rect fill="#FFFFFF" stroke="none" x="1088" y="472" width="200" height="51" transform="matrix(1 0 0 1 -134 -294)"/></g><g><path fill="none" stroke="#000000" paint-order="fill stroke markers" d=" M 954 178 L 1154 178 L 1154 229 L 954 229 L 954 178 Z Z" stroke-miterlimit="10" stroke-dasharray=""/></g><g><rect fill="#FFFFFF" stroke="none" x="1268" y="482" width="13" height="16" transform="matrix(1 0 0 1 -134 -294)"/></g><g><path fill="none" stroke="#000000" paint-order="fill stroke markers" d=" M 1134 188 L 1147 188 L 1147 204 L 1134 204 L 1134 188 Z Z" stroke-miterlimit="10" stroke-dasharray=""/></g><g><rect fill="#FFFFFF" stroke="none" x="1265" y="485" width="7" height="4" transform="matrix(1 0 0 1 -134 -294)"/></g><g><path fill="none" stroke="#000000" paint-order="fill stroke markers" d=" M 1131 191 L 1138 191 L 1138 195 L 1131 195 L 1131 191 Z Z" stroke-miterlimit="10" stroke-dasharray=""/></g><g><rect fill="#FFFFFF" stroke="none" x="1265" y="491" width="7" height="4" transform="matrix(1 0 0 1 -134 -294)"/></g><g><path fill="none" stroke="#000000" paint-order="fill stroke markers" d=" M 1131 197 L 1138 197 L 1138 201 L 1131 201 L 1131 197 Z Z" stroke-miterlimit="10" stroke-dasharray=""/></g><g><g><path fill="none" stroke="none"/><text fill="#000000" stroke="none" font-family="Arial" font-size="13px" font-style="normal" font-weight="normal" text-decoration="undefined" x="1176" y="483.5" text-anchor="middle" dominant-baseline="central" transform="matrix(1 0 0 1 -134 -294)"></text></g></g><g><g><path fill="none" stroke="none"/><text fill="#000000" stroke="none" font-family="Arial" font-size="13px" font-style="normal" font-weight="bold" text-decoration="undefined" x="1176" y="498.5" text-anchor="middle" dominant-baseline="central" transform="matrix(1 0 0 1 -134 -294)">Large Language Model</text></g></g><g><rect fill="#FFFFFF" stroke="none" x="952" y="572" width="200" height="51" transform="matrix(1 0 0 1 -134 -294)"/></g><g><path fill="none" stroke="#000000" paint-order="fill stroke markers" d=" M 818 278 L 1018 278 L 1018 329 L 818 329 L 818 278 Z Z" stroke-miterlimit="10" stroke-dasharray=""/></g><g><rect fill="#FFFFFF" stroke="none" x="1132" y="582" width="13" height="16" transform="matrix(1 0 0 1 -134 -294)"/></g><g><path fill="none" stroke="#000000" paint-order="fill stroke markers" d=" M 998 288 L 1011 288 L 1011 304 L 998 304 L 998 288 Z Z" stroke-miterlimit="10" stroke-dasharray=""/></g><g><rect fill="#FFFFFF" stroke="none" x="1129" y="585" width="7" height="4" transform="matrix(1 0 0 1 -134 -294)"/></g><g><path fill="none" stroke="#000000" paint-order="fill stroke markers" d=" M 995 291 L 1002 291 L 1002 295 L 995 295 L 995 291 Z Z" stroke-miterlimit="10" stroke-dasharray=""/></g><g><rect fill="#FFFFFF" stroke="none" x="1129" y="591" width="7" height="4" transform="matrix(1 0 0 1 -134 -294)"/></g><g><path fill="none" stroke="#000000" paint-order="fill stroke markers" d=" M 995 297 L 1002 297 L 1002 301 L 995 301 L 995 297 Z Z" stroke-miterlimit="10" stroke-dasharray=""/></g><g><g><path fill="none" stroke="none"/><text fill="#000000" stroke="none" font-family="Arial" font-size="13px" font-style="normal" font-weight="normal" text-decoration="undefined" x="1040" y="583.5" text-anchor="middle" dominant-baseline="central" transform="matrix(1 0 0 1 -134 -294)"></text></g></g><g><g><path fill="none" stroke="none"/><text fill="#000000" stroke="none" font-family="Arial" font-size="13px" font-style="normal" font-weight="bold" text-decoration="undefined" x="1040" y="598.5" text-anchor="middle" dominant-baseline="central" transform="matrix(1 0 0 1 -134 -294)">LLM Engineering Platform</text></g></g><g><rect fill="#FFFFFF" stroke="none" x="797" y="388" width="200" height="51" transform="matrix(1 0 0 1 -134 -294)"/></g><g><path fill="none" stroke="#000000" paint-order="fill stroke markers" d=" M 663 94 L 863 94 L 863 145 L 663 145 L 663 94 Z Z" stroke-miterlimit="10" stroke-dasharray=""/></g><g><rect fill="#FFFFFF" stroke="none" x="977" y="398" width="13" height="16" transform="matrix(1 0 0 1 -134 -294)"/></g><g><path fill="none" stroke="#000000" paint-order="fill stroke markers" d=" M 843 104 L 856 104 L 856 120 L 843 120 L 843 104 Z Z" stroke-miterlimit="10" stroke-dasharray=""/></g><g><rect fill="#FFFFFF" stroke="none" x="974" y="401" width="7" height="4" transform="matrix(1 0 0 1 -134 -294)"/></g><g><path fill="none" stroke="#000000" paint-order="fill stroke markers" d=" M 840 107 L 847 107 L 847 111 L 840 111 L 840 107 Z Z" stroke-miterlimit="10" stroke-dasharray=""/></g><g><rect fill="#FFFFFF" stroke="none" x="974" y="407" width="7" height="4" transform="matrix(1 0 0 1 -134 -294)"/></g><g><path fill="none" stroke="#000000" paint-order="fill stroke markers" d=" M 840 113 L 847 113 L 847 117 L 840 117 L 840 113 Z Z" stroke-miterlimit="10" stroke-dasharray=""/></g><g><g><path fill="none" stroke="none"/><text fill="#000000" stroke="none" font-family="Arial" font-size="13px" font-style="normal" font-weight="normal" text-decoration="undefined" x="885" y="399.5" text-anchor="middle" dominant-baseline="central" transform="matrix(1 0 0 1 -134 -294)"></text></g></g><g><g><path fill="none" stroke="none"/><text fill="#000000" stroke="none" font-family="Arial" font-size="13px" font-style="normal" font-weight="bold" text-decoration="undefined" x="885" y="414.5" text-anchor="middle" dominant-baseline="central" transform="matrix(1 0 0 1 -134 -294)">Development Tools</text></g></g><g><path fill="none" stroke="#000000" paint-order="fill stroke markers" d=" M 604 131 A 12 12 0 0 1 604 107" stroke-miterlimit="10" stroke-dasharray=""/></g><g><path fill="#ffffff" stroke="none" paint-order="stroke fill markers" d=" M 595 119 C 595 114.02943679999998 599.0294368 110 604 110 C 608.9705632 110 613 114.02943679999998 613 119 C 613 123.97056320000002 608.9705632 128 604 128 C 599.0294368 128 595 123.97056320000002 595 119 Z"/></g><g><path fill="none" stroke="#000000" paint-order="fill stroke markers" d=" M 595 119 C 595 114.02943679999998 599.0294368 110 604 110 C 608.9705632 110 613 114.02943679999998 613 119 C 613 123.97056320000002 608.9705632 128 604 128 C 599.0294368 128 595 123.97056320000002 595 119 Z" stroke-miterlimit="10" stroke-dasharray=""/></g><g><g><path fill="none" stroke="none"/><text fill="#000000" stroke="none" font-family="Arial" font-size="13px" font-style="normal" font-weight="bold" text-decoration="undefined" x="738.5" y="438.5" text-anchor="middle" dominant-baseline="central" transform="matrix(1 0 0 1 -134 -294)">Development</text><text fill="#000000" stroke="none" font-family="Arial" font-size="13px" font-style="normal" font-weight="bold" text-decoration="undefined" x="738.5" y="451.5" text-anchor="middle" dominant-baseline="central" transform="matrix(1 0 0 1 -134 -294)">Data &amp; Metrics</text></g></g><g><path fill="none" stroke="#000000" paint-order="fill stroke markers" d=" M 663 119 L 616 119" stroke-miterlimit="10" stroke-dasharray=""/></g><g><path fill="none" stroke="#000000" paint-order="fill stroke markers" d=" M 908 218 A 12 12 0 0 1 908 194" stroke-miterlimit="10" stroke-dasharray=""/></g><g><path fill="#ffffff" stroke="none" paint-order="stroke fill markers" d=" M 899.36181640625 206 C 899.36181640625 201.02943679999998 903.39125320625 197 908.36181640625 197 C 913.33237960625 197 917.36181640625 201.02943679999998 917.36181640625 206 C 917.36181640625 210.97056320000002 913.33237960625 215 908.36181640625 215 C 903.39125320625 215 899.36181640625 210.97056320000002 899.36181640625 206 Z"/></g><g><path fill="none" stroke="#000000" paint-order="fill stroke markers" d=" M 899.36181640625 206 C 899.36181640625 201.02943679999998 903.39125320625 197 908.36181640625 197 C 913.33237960625 197 917.36181640625 201.02943679999998 917.36181640625 206 C 917.36181640625 210.97056320000002 913.33237960625 215 908.36181640625 215 C 903.39125320625 215 899.36181640625 210.97056320000002 899.36181640625 206 Z" stroke-miterlimit="10" stroke-dasharray=""/></g><g><g><path fill="none" stroke="none"/><text fill="#000000" stroke="none" font-family="Arial" font-size="13px" font-style="normal" font-weight="bold" text-decoration="undefined" x="1042.86181640625" y="525.5" text-anchor="middle" dominant-baseline="central" transform="matrix(1 0 0 1 -134 -294)">Completion</text></g></g><g><path fill="none" stroke="#000000" paint-order="fill stroke markers" d=" M 954 206 L 920.36181640625 206" stroke-miterlimit="10" stroke-dasharray=""/></g><g><path fill="none" stroke="#000000" paint-order="fill stroke markers" d=" M 863 206 L 896.36181640625 206" stroke-miterlimit="10" stroke-dasharray=""/></g><g><path fill="none" stroke="#000000" paint-order="fill stroke markers" d=" M 526 178 L 526 119 L 592 119" stroke-miterlimit="10" stroke-dasharray=""/></g><g><path fill="none" stroke="#000000" paint-order="fill stroke markers" d=" M 747.358289998256 306.91042750043596 A 12 12 0 0 1 770.641710001744 301.08957249956404" stroke-miterlimit="10" stroke-dasharray=""/></g><g><path fill="none" stroke="#000000" paint-order="fill stroke markers" d=" M 759 316 A 12 12 0 0 1 759 292" stroke-miterlimit="10" stroke-dasharray=""/></g><g><path fill="#ffffff" stroke="none" paint-order="stroke fill markers" d=" M 750.062255859375 304 C 750.062255859375 299.0294368 754.091692659375 295 759.062255859375 295 C 764.032819059375 295 768.062255859375 299.0294368 768.062255859375 304 C 768.062255859375 308.9705632 764.032819059375 313 759.062255859375 313 C 754.091692659375 313 750.062255859375 308.9705632 750.062255859375 304 Z"/></g><g><path fill="none" stroke="#000000" paint-order="fill stroke markers" d=" M 750.062255859375 304 C 750.062255859375 299.0294368 754.091692659375 295 759.062255859375 295 C 764.032819059375 295 768.062255859375 299.0294368 768.062255859375 304 C 768.062255859375 308.9705632 764.032819059375 313 759.062255859375 313 C 754.091692659375 313 750.062255859375 308.9705632 750.062255859375 304 Z" stroke-miterlimit="10" stroke-dasharray=""/></g><g><g><path fill="none" stroke="none"/><text fill="#000000" stroke="none" font-family="Arial" font-size="13px" font-style="normal" font-weight="bold" text-decoration="undefined" x="893.562255859375" y="623.5" text-anchor="middle" dominant-baseline="central" transform="matrix(1 0 0 1 -134 -294)">LLM Metrics</text></g></g><g><path fill="none" stroke="#000000" paint-order="fill stroke markers" d=" M 818 304 L 771.062255859375 304" stroke-miterlimit="10" stroke-dasharray=""/></g><g><path fill="none" stroke="#000000" paint-order="fill stroke markers" d=" M 756 229 L 756 292" stroke-miterlimit="10" stroke-dasharray=""/></g><g><rect fill="#FFFFFF" stroke="none" x="797" y="304" width="200" height="51" transform="matrix(1 0 0 1 -134 -294)"/></g><g><path fill="none" stroke="#000000" paint-order="fill stroke markers" d=" M 663 10 L 863 10 L 863 61 L 663 61 L 663 10 Z Z" stroke-miterlimit="10" stroke-dasharray=""/></g><g><rect fill="#FFFFFF" stroke="none" x="977" y="314" width="13" height="16" transform="matrix(1 0 0 1 -134 -294)"/></g><g><path fill="none" stroke="#000000" paint-order="fill stroke markers" d=" M 843 20 L 856 20 L 856 36 L 843 36 L 843 20 Z Z" stroke-miterlimit="10" stroke-dasharray=""/></g><g><rect fill="#FFFFFF" stroke="none" x="974" y="317" width="7" height="4" transform="matrix(1 0 0 1 -134 -294)"/></g><g><path fill="none" stroke="#000000" paint-order="fill stroke markers" d=" M 840 23 L 847 23 L 847 27 L 840 27 L 840 23 Z Z" stroke-miterlimit="10" stroke-dasharray=""/></g><g><rect fill="#FFFFFF" stroke="none" x="974" y="323" width="7" height="4" transform="matrix(1 0 0 1 -134 -294)"/></g><g><path fill="none" stroke="#000000" paint-order="fill stroke markers" d=" M 840 29 L 847 29 L 847 33 L 840 33 L 840 29 Z Z" stroke-miterlimit="10" stroke-dasharray=""/></g><g><g><path fill="none" stroke="none"/><text fill="#000000" stroke="none" font-family="Arial" font-size="13px" font-style="normal" font-weight="normal" text-decoration="undefined" x="885" y="315.5" text-anchor="middle" dominant-baseline="central" transform="matrix(1 0 0 1 -134 -294)"></text></g></g><g><g><path fill="none" stroke="none"/><text fill="#000000" stroke="none" font-family="Arial" font-size="13px" font-style="normal" font-weight="bold" text-decoration="undefined" x="885" y="330.5" text-anchor="middle" dominant-baseline="central" transform="matrix(1 0 0 1 -134 -294)">User Management System</text></g></g><g><path fill="none" stroke="#000000" paint-order="fill stroke markers" d=" M 603 50 A 12 12 0 0 1 603 26" stroke-miterlimit="10" stroke-dasharray=""/></g><g><path fill="#ffffff" stroke="none" paint-order="stroke fill markers" d=" M 594.72998046875 38 C 594.72998046875 33.029436799999985 598.75941726875 29 603.72998046875 29 C 608.70054366875 29 612.72998046875 33.029436799999985 612.72998046875 38 C 612.72998046875 42.970563200000015 608.70054366875 47 603.72998046875 47 C 598.75941726875 47 594.72998046875 42.970563200000015 594.72998046875 38 Z"/></g><g><path fill="none" stroke="#000000" paint-order="fill stroke markers" d=" M 594.72998046875 38 C 594.72998046875 33.029436799999985 598.75941726875 29 603.72998046875 29 C 608.70054366875 29 612.72998046875 33.029436799999985 612.72998046875 38 C 612.72998046875 42.970563200000015 608.70054366875 47 603.72998046875 47 C 598.75941726875 47 594.72998046875 42.970563200000015 594.72998046875 38 Z" stroke-miterlimit="10" stroke-dasharray=""/></g><g><g><path fill="none" stroke="none"/><text fill="#000000" stroke="none" font-family="Arial" font-size="13px" font-style="normal" font-weight="bold" text-decoration="undefined" x="738.22998046875" y="357.5" text-anchor="middle" dominant-baseline="central" transform="matrix(1 0 0 1 -134 -294)">Access</text><text fill="#000000" stroke="none" font-family="Arial" font-size="13px" font-style="normal" font-weight="bold" text-decoration="undefined" x="738.22998046875" y="370.5" text-anchor="middle" dominant-baseline="central" transform="matrix(1 0 0 1 -134 -294)">Management</text></g></g><g><path fill="none" stroke="#000000" paint-order="fill stroke markers" d=" M 663 38 L 615.72998046875 38" stroke-miterlimit="10" stroke-dasharray=""/></g><g><path fill="none" stroke="#000000" paint-order="fill stroke markers" d=" M 498 178 L 498 38 L 591.72998046875 38" stroke-miterlimit="10" stroke-dasharray=""/></g><g><path fill="none" stroke="#000000" paint-order="fill stroke markers" d=" M 282 218 A 12 12 0 0 1 282 194" stroke-miterlimit="10" stroke-dasharray=""/></g><g><path fill="#ffffff" stroke="none" paint-order="stroke fill markers" d=" M 273 206 C 273 201.02943679999998 277.0294368 197 282 197 C 286.9705632 197 291 201.02943679999998 291 206 C 291 210.97056320000002 286.9705632 215 282 215 C 277.0294368 215 273 210.97056320000002 273 206 Z"/></g><g><path fill="none" stroke="#000000" paint-order="fill stroke markers" d=" M 273 206 C 273 201.02943679999998 277.0294368 197 282 197 C 286.9705632 197 291 201.02943679999998 291 206 C 291 210.97056320000002 286.9705632 215 282 215 C 277.0294368 215 273 210.97056320000002 273 206 Z" stroke-miterlimit="10" stroke-dasharray=""/></g><g><g><path fill="none" stroke="none"/><text fill="#000000" stroke="none" font-family="Arial" font-size="13px" font-style="normal" font-weight="bold" text-decoration="undefined" x="416.5" y="525.5" text-anchor="middle" dominant-baseline="central" transform="matrix(1 0 0 1 -134 -294)">Hephaestus</text><text fill="#000000" stroke="none" font-family="Arial" font-size="13px" font-style="normal" font-weight="bold" text-decoration="undefined" x="416.5" y="538.5" text-anchor="middle" dominant-baseline="central" transform="matrix(1 0 0 1 -134 -294)">API</text></g></g><g><path fill="none" stroke="#000000" paint-order="fill stroke markers" d=" M 346 206 L 294 206" stroke-miterlimit="10" stroke-dasharray=""/></g><g><path fill="none" stroke="#000000" paint-order="fill stroke markers" d=" M 210 206 L 270 206" stroke-miterlimit="10" stroke-dasharray=""/></g><g><rect fill="#FFFFFF" stroke="none" x="638" y="572" width="200" height="51" transform="matrix(1 0 0 1 -134 -294)"/></g><g><path fill="none" stroke="#000000" paint-order="fill stroke markers" d=" M 504 278 L 704 278 L 704 329 L 504 329 L 504 278 Z Z" stroke-miterlimit="10" stroke-dasharray=""/></g><g><rect fill="#FFFFFF" stroke="none" x="818" y="582" width="13" height="16" transform="matrix(1 0 0 1 -134 -294)"/></g><g><path fill="none" stroke="#000000" paint-order="fill stroke markers" d=" M 684 288 L 697 288 L 697 304 L 684 304 L 684 288 Z Z" stroke-miterlimit="10" stroke-dasharray=""/></g><g><rect fill="#FFFFFF" stroke="none" x="815" y="585" width="7" height="4" transform="matrix(1 0 0 1 -134 -294)"/></g><g><path fill="none" stroke="#000000" paint-order="fill stroke markers" d=" M 681 291 L 688 291 L 688 295 L 681 295 L 681 291 Z Z" stroke-miterlimit="10" stroke-dasharray=""/></g><g><rect fill="#FFFFFF" stroke="none" x="815" y="591" width="7" height="4" transform="matrix(1 0 0 1 -134 -294)"/></g><g><path fill="none" stroke="#000000" paint-order="fill stroke markers" d=" M 681 297 L 688 297 L 688 301 L 681 301 L 681 297 Z Z" stroke-miterlimit="10" stroke-dasharray=""/></g><g><g><path fill="none" stroke="none"/><text fill="#000000" stroke="none" font-family="Arial" font-size="13px" font-style="normal" font-weight="normal" text-decoration="undefined" x="726" y="583.5" text-anchor="middle" dominant-baseline="central" transform="matrix(1 0 0 1 -134 -294)"></text></g></g><g><g><path fill="none" stroke="none"/><text fill="#000000" stroke="none" font-family="Arial" font-size="13px" font-style="normal" font-weight="bold" text-decoration="undefined" x="726" y="598.5" text-anchor="middle" dominant-baseline="central" transform="matrix(1 0 0 1 -134 -294)">Analytics Platform</text></g></g><g><path fill="none" stroke="#000000" paint-order="fill stroke markers" d=" M 413.1632729140143 304.97278784766434 A 12 12 0 0 1 436.8367270859857 301.02721215233566" stroke-miterlimit="10" stroke-dasharray=""/></g><g><path fill="none" stroke="#000000" paint-order="fill stroke markers" d=" M 425 315 A 12 12 0 0 1 425 291" stroke-miterlimit="10" stroke-dasharray=""/></g><g><path fill="#ffffff" stroke="none" paint-order="stroke fill markers" d=" M 416.239501953125 303 C 416.239501953125 298.0294368 420.268938753125 294 425.239501953125 294 C 430.210065153125 294 434.239501953125 298.0294368 434.239501953125 303 C 434.239501953125 307.9705632 430.210065153125 312 425.239501953125 312 C 420.268938753125 312 416.239501953125 307.9705632 416.239501953125 303 Z"/></g><g><path fill="none" stroke="#000000" paint-order="fill stroke markers" d=" M 416.239501953125 303 C 416.239501953125 298.0294368 420.268938753125 294 425.239501953125 294 C 430.210065153125 294 434.239501953125 298.0294368 434.239501953125 303 C 434.239501953125 307.9705632 430.210065153125 312 425.239501953125 312 C 420.268938753125 312 416.239501953125 307.9705632 416.239501953125 303 Z" stroke-miterlimit="10" stroke-dasharray=""/></g><g><g><path fill="none" stroke="none"/><text fill="#000000" stroke="none" font-family="Arial" font-size="13px" font-style="normal" font-weight="bold" text-decoration="undefined" x="559.739501953125" y="622.5" text-anchor="middle" dominant-baseline="central" transform="matrix(1 0 0 1 -134 -294)">Event Tracking</text></g></g><g><path fill="none" stroke="#000000" paint-order="fill stroke markers" d=" M 504 303 L 437.239501953125 303" stroke-miterlimit="10" stroke-dasharray=""/></g><g><path fill="none" stroke="#000000" paint-order="fill stroke markers" d=" M 423 229 L 423 291" stroke-miterlimit="10" stroke-dasharray=""/></g><g><path fill="none" stroke="#000000" paint-order="fill stroke markers" d=" M 94 229 L 94 303 L 413.239501953125 303" stroke-miterlimit="10" stroke-dasharray=""/></g><g><path fill="none" stroke="#000000" paint-order="fill stroke markers" d=" M 704 304 L 747.062255859375 304" stroke-miterlimit="10" stroke-dasharray=""/></g><g><rect fill="#FFFFFF" stroke="none" x="316" y="366" width="200" height="51" transform="matrix(1 0 0 1 -134 -294)"/></g><g><path fill="none" stroke="#000000" paint-order="fill stroke markers" d=" M 182 72 L 382 72 L 382 123 L 182 123 L 182 72 Z Z" stroke-miterlimit="10" stroke-dasharray=""/></g><g><rect fill="#FFFFFF" stroke="none" x="496" y="376" width="13" height="16" transform="matrix(1 0 0 1 -134 -294)"/></g><g><path fill="none" stroke="#000000" paint-order="fill stroke markers" d=" M 362 82 L 375 82 L 375 98 L 362 98 L 362 82 Z Z" stroke-miterlimit="10" stroke-dasharray=""/></g><g><rect fill="#FFFFFF" stroke="none" x="493" y="379" width="7" height="4" transform="matrix(1 0 0 1 -134 -294)"/></g><g><path fill="none" stroke="#000000" paint-order="fill stroke markers" d=" M 359 85 L 366 85 L 366 89 L 359 89 L 359 85 Z Z" stroke-miterlimit="10" stroke-dasharray=""/></g><g><rect fill="#FFFFFF" stroke="none" x="493" y="385" width="7" height="4" transform="matrix(1 0 0 1 -134 -294)"/></g><g><path fill="none" stroke="#000000" paint-order="fill stroke markers" d=" M 359 91 L 366 91 L 366 95 L 359 95 L 359 91 Z Z" stroke-miterlimit="10" stroke-dasharray=""/></g><g><g><path fill="none" stroke="none"/><text fill="#000000" stroke="none" font-family="Arial" font-size="13px" font-style="normal" font-weight="normal" text-decoration="undefined" x="404" y="377.5" text-anchor="middle" dominant-baseline="central" transform="matrix(1 0 0 1 -134 -294)"></text></g></g><g><g><path fill="none" stroke="none"/><text fill="#000000" stroke="none" font-family="Arial" font-size="13px" font-style="normal" font-weight="bold" text-decoration="undefined" x="404" y="392.5" text-anchor="middle" dominant-baseline="central" transform="matrix(1 0 0 1 -134 -294)">Notification Service</text></g></g><g><path fill="none" stroke="#000000" paint-order="fill stroke markers" d=" M 140 110 A 12 12 0 0 1 140 86" stroke-miterlimit="10" stroke-dasharray=""/></g><g><path fill="#ffffff" stroke="none" paint-order="stroke fill markers" d=" M 131.746826171875 98 C 131.746826171875 93.02943679999998 135.77626297187498 89 140.746826171875 89 C 145.71738937187502 89 149.746826171875 93.02943679999998 149.746826171875 98 C 149.746826171875 102.97056320000002 145.71738937187502 107 140.746826171875 107 C 135.77626297187498 107 131.746826171875 102.97056320000002 131.746826171875 98 Z"/></g><g><path fill="none" stroke="#000000" paint-order="fill stroke markers" d=" M 131.746826171875 98 C 131.746826171875 93.02943679999998 135.77626297187498 89 140.746826171875 89 C 145.71738937187502 89 149.746826171875 93.02943679999998 149.746826171875 98 C 149.746826171875 102.97056320000002 145.71738937187502 107 140.746826171875 107 C 135.77626297187498 107 131.746826171875 102.97056320000002 131.746826171875 98 Z" stroke-miterlimit="10" stroke-dasharray=""/></g><g><g><path fill="none" stroke="none"/><text fill="#000000" stroke="none" font-family="Arial" font-size="13px" font-style="normal" font-weight="bold" text-decoration="undefined" x="275.246826171875" y="417.5" text-anchor="middle" dominant-baseline="central" transform="matrix(1 0 0 1 -134 -294)">Notification</text><text fill="#000000" stroke="none" font-family="Arial" font-size="13px" font-style="normal" font-weight="bold" text-decoration="undefined" x="275.246826171875" y="430.5" text-anchor="middle" dominant-baseline="central" transform="matrix(1 0 0 1 -134 -294)">Receiver</text></g></g><g><path fill="none" stroke="#000000" paint-order="fill stroke markers" d=" M 182 98 L 152.746826171875 98" stroke-miterlimit="10" stroke-dasharray=""/></g><g><path fill="none" stroke="#000000" paint-order="fill stroke markers" d=" M 424 86 A 12 12 0 0 1 424 110" stroke-miterlimit="10" stroke-dasharray=""/></g><g><path fill="#ffffff" stroke="none" paint-order="stroke fill markers" d=" M 415.746826171875 98 C 415.746826171875 93.02943679999998 419.776262971875 89 424.746826171875 89 C 429.717389371875 89 433.746826171875 93.02943679999998 433.746826171875 98 C 433.746826171875 102.97056320000002 429.717389371875 107 424.746826171875 107 C 419.776262971875 107 415.746826171875 102.97056320000002 415.746826171875 98 Z"/></g><g><path fill="none" stroke="#000000" paint-order="fill stroke markers" d=" M 415.746826171875 98 C 415.746826171875 93.02943679999998 419.776262971875 89 424.746826171875 89 C 429.717389371875 89 433.746826171875 93.02943679999998 433.746826171875 98 C 433.746826171875 102.97056320000002 429.717389371875 107 424.746826171875 107 C 419.776262971875 107 415.746826171875 102.97056320000002 415.746826171875 98 Z" stroke-miterlimit="10" stroke-dasharray=""/></g><g><g><path fill="none" stroke="none"/><text fill="#000000" stroke="none" font-family="Arial" font-size="13px" font-style="normal" font-weight="bold" text-decoration="undefined" x="559.246826171875" y="417.5" text-anchor="middle" dominant-baseline="central" transform="matrix(1 0 0 1 -134 -294)">Notification</text><text fill="#000000" stroke="none" font-family="Arial" font-size="13px" font-style="normal" font-weight="bold" text-decoration="undefined" x="559.246826171875" y="430.5" text-anchor="middle" dominant-baseline="central" transform="matrix(1 0 0 1 -134 -294)">Sender</text></g></g><g><path fill="none" stroke="#000000" paint-order="fill stroke markers" d=" M 382 98 L 412.746826171875 98" stroke-miterlimit="10" stroke-dasharray=""/></g><g><path fill="none" stroke="#000000" paint-order="fill stroke markers" d=" M 470 178 L 470 98 L 436.746826171875 98" stroke-miterlimit="10" stroke-dasharray=""/></g><g><path fill="none" stroke="#000000" paint-order="fill stroke markers" d=" M 94 178 L 94 98 L 128.746826171875 98" stroke-miterlimit="10" stroke-dasharray=""/></g><g><rect fill="#FFFFFF" stroke="none" x="797" y="472" width="200" height="51" transform="matrix(1 0 0 1 -134 -294)"/></g><g><path fill="none" stroke="#000000" paint-order="fill stroke markers" d=" M 663 178 L 863 178 L 863 229 L 663 229 L 663 178 Z Z" stroke-miterlimit="10" stroke-dasharray=""/></g><g><rect fill="#FFFFFF" stroke="none" x="977" y="482" width="13" height="16" transform="matrix(1 0 0 1 -134 -294)"/></g><g><path fill="none" stroke="#000000" paint-order="fill stroke markers" d=" M 843 188 L 856 188 L 856 204 L 843 204 L 843 188 Z Z" stroke-miterlimit="10" stroke-dasharray=""/></g><g><rect fill="#FFFFFF" stroke="none" x="974" y="485" width="7" height="4" transform="matrix(1 0 0 1 -134 -294)"/></g><g><path fill="none" stroke="#000000" paint-order="fill stroke markers" d=" M 840 191 L 847 191 L 847 195 L 840 195 L 840 191 Z Z" stroke-miterlimit="10" stroke-dasharray=""/></g><g><rect fill="#FFFFFF" stroke="none" x="974" y="491" width="7" height="4" transform="matrix(1 0 0 1 -134 -294)"/></g><g><path fill="none" stroke="#000000" paint-order="fill stroke markers" d=" M 840 197 L 847 197 L 847 201 L 840 201 L 840 197 Z Z" stroke-miterlimit="10" stroke-dasharray=""/></g><g><g><path fill="none" stroke="none"/><text fill="#000000" stroke="none" font-family="Arial" font-size="13px" font-style="normal" font-weight="normal" text-decoration="undefined" x="885" y="483.5" text-anchor="middle" dominant-baseline="central" transform="matrix(1 0 0 1 -134 -294)"></text></g></g><g><g><path fill="none" stroke="none"/><text fill="#000000" stroke="none" font-family="Arial" font-size="13px" font-style="normal" font-weight="bold" text-decoration="undefined" x="885" y="498.5" text-anchor="middle" dominant-baseline="central" transform="matrix(1 0 0 1 -134 -294)">Hephaestus Intelligence</text><text fill="#000000" stroke="none" font-family="Arial" font-size="13px" font-style="normal" font-weight="bold" text-decoration="undefined" x="885" y="511.5" text-anchor="middle" dominant-baseline="central" transform="matrix(1 0 0 1 -134 -294)">Service</text></g></g><g><path fill="none" stroke="#000000" paint-order="fill stroke markers" d=" M 603 218 A 12 12 0 0 1 603 194" stroke-miterlimit="10" stroke-dasharray=""/></g><g><path fill="#ffffff" stroke="none" paint-order="stroke fill markers" d=" M 594.759521484375 206 C 594.759521484375 201.02943679999998 598.788958284375 197 603.759521484375 197 C 608.730084684375 197 612.759521484375 201.02943679999998 612.759521484375 206 C 612.759521484375 210.97056320000002 608.730084684375 215 603.759521484375 215 C 598.788958284375 215 594.759521484375 210.97056320000002 594.759521484375 206 Z"/></g><g><path fill="none" stroke="#000000" paint-order="fill stroke markers" d=" M 594.759521484375 206 C 594.759521484375 201.02943679999998 598.788958284375 197 603.759521484375 197 C 608.730084684375 197 612.759521484375 201.02943679999998 612.759521484375 206 C 612.759521484375 210.97056320000002 608.730084684375 215 603.759521484375 215 C 598.788958284375 215 594.759521484375 210.97056320000002 594.759521484375 206 Z" stroke-miterlimit="10" stroke-dasharray=""/></g><g><g><path fill="none" stroke="none"/><text fill="#000000" stroke="none" font-family="Arial" font-size="13px" font-style="normal" font-weight="bold" text-decoration="undefined" x="738.259521484375" y="525.5" text-anchor="middle" dominant-baseline="central" transform="matrix(1 0 0 1 -134 -294)">Intelligence</text><text fill="#000000" stroke="none" font-family="Arial" font-size="13px" font-style="normal" font-weight="bold" text-decoration="undefined" x="738.259521484375" y="538.5" text-anchor="middle" dominant-baseline="central" transform="matrix(1 0 0 1 -134 -294)">API</text></g></g><g><path fill="none" stroke="#000000" paint-order="fill stroke markers" d=" M 663 206 L 615.759521484375 206" stroke-miterlimit="10" stroke-dasharray=""/></g><g><path fill="none" stroke="#000000" paint-order="fill stroke markers" d=" M 546 206 L 591.759521484375 206" stroke-miterlimit="10" stroke-dasharray=""/></g></g></svg>