<?xml version="1.0" encoding="UTF-8" standalone="no"?>
<!-- Created with Inkscape (http://www.inkscape.org/) -->

<svg
   width="50pt"
   height="45pt"
   viewBox="0 0 200 180"
   version="1.1"
   id="svg1"
   inkscape:version="1.3.2 (091e20e, 2023-11-25)"
   sodipodi:docname="hammer.svg"
   xmlns:inkscape="http://www.inkscape.org/namespaces/inkscape"
   xmlns:sodipodi="http://sodipodi.sourceforge.net/DTD/sodipodi-0.dtd"
   xmlns="http://www.w3.org/2000/svg"
   xmlns:svg="http://www.w3.org/2000/svg">
  <sodipodi:namedview
     id="namedview1"
     pagecolor="#ffffff"
     bordercolor="#000000"
     borderopacity="0.25"
     inkscape:showpageshadow="2"
     inkscape:pageopacity="0.0"
     inkscape:pagecheckerboard="0"
     inkscape:deskcolor="#d1d1d1"
     inkscape:document-units="mm"
     inkscape:zoom="4.905276"
     inkscape:cx="82.156437"
     inkscape:cy="41.587874"
     inkscape:window-width="1512"
     inkscape:window-height="883"
     inkscape:window-x="0"
     inkscape:window-y="38"
     inkscape:window-maximized="0"
     inkscape:current-layer="layer1" />
  <defs
     id="defs1" />
  <g
     inkscape:label="Layer 1"
     inkscape:groupmode="layer"
     id="layer1"
     transform="translate(-12.435426,-69.849992)">
    <g
       id="g12"
       transform="translate(345.8896,-224.45805)">
      <path
         style="fill:#dbeafe;fill-opacity:1;stroke-width:0.264583"
         d="m -288.76248,439.06472 2.13905,-18.98406 41.71143,-29.6793 21.3905,-22.7274 -21.92525,-24.33168 31.0162,-34.22478 22.99478,23.79692 13.36905,1.06953 14.17119,14.17119 1.87167,14.97334 15.77549,15.24073 -10.96262,21.39049 -22.72739,11.76476 -28.60979,-22.46001 -35.02692,30.74883 -30.48145,30.74882 z"
         id="path12" />
      <path
         style="display:inline;fill:#60a5fa;fill-opacity:1"
         d="m -146.76814,386.83917 c -11.23259,8.28083 -22.46518,16.56167 -33.69777,24.8425 -1.73925,-4.93694 -8.265,-11.39172 -8.81076,-14.80857 3.0025,-0.0724 6.12329,0.35033 9.05523,-0.0174 7.93567,-4.19621 15.87134,-8.39243 23.80701,-12.58864 m -126.50089,48.9507 c 3.31728,-6.12346 9.37465,-10.04209 14.53411,-14.50791 13.53028,-10.62819 27.14818,-21.195 39.93482,-32.71553 3.4312,-3.08351 6.31465,-6.66609 9.71064,-9.77615 2.76343,2.32302 5.52686,4.64605 8.29029,6.96907 l -67.42191,65.00106 c -2.04428,-3.38243 -5.39845,-6.31358 -6.18666,-10.22224 z m 86.49463,-58.68891 c -11.10285,-9.20138 -23.19216,-17.41104 -33.07682,-27.96021 -0.98252,-1.61762 2.64054,-4.70537 3.80644,-6.02556 3.60736,-4.08476 5.69516,-6.67105 10.67778,-8.89701 3.31586,-1.48135 6.59625,2.21332 9.39226,4.10581 8.9377,7.42546 16.36773,16.40999 24.238,24.9105 -5.01255,4.62216 -10.02511,9.24431 -15.03766,13.86647 z"
         id="path11"
         sodipodi:nodetypes="cccccccccccccccssccc" />
      <path
         style="display:inline;fill:#2563eb;fill-opacity:1"
         d="m -287.29023,446.2752 c -5.34103,-8.31337 -7.56509,-16.40942 -2.3102,-25.05047 6.17977,-10.26993 17.57132,-15.2699 27.01551,-22.08972 12.37498,-8.43565 26.56745,-19.39587 34.18605,-32.76786 -5.64009,-5.99358 -12.87354,-11.24242 -18.13109,-17.54174 -4.06588,-4.71304 -0.76984,-10.42244 3.85574,-13.94271 11.89916,-7.39819 16.81059,-15.57731 26.17793,-24.40509 4.01232,-2.75497 4.73452,-0.67936 7.37095,2.66731 5.66956,5.93568 13.6228,10.91123 19.09774,17.02471 7.05388,-1.67794 12.55955,-0.34087 17.47306,4.99578 5.70861,5.69984 11.73741,11.30738 11.10403,20.26215 0.73575,2.50528 -0.39432,8.41518 2.9823,9.5633 5.52653,4.38775 11.75114,7.71451 15.8064,13.53811 2.26333,3.44358 -1.69725,5.35134 -3.87785,8.59414 -6.30354,12.47706 -13.66065,19.71326 -26.63612,25.03766 -4.27747,1.38678 -7.39975,2.37798 -11.68724,0.82488 -5.43441,-3.06385 -7.60822,-7.41204 -12.00656,-11.727 -2.39443,-2.48561 -6.5464,-6.54824 -9.08098,-8.72118 -14.03255,5.79033 -25.59719,19.42793 -35.65641,30.18195 -7.27739,7.85655 -14.49914,16.97094 -22.68046,23.93442 -7.51366,3.00069 -15.28595,0.58428 -23.0028,-0.37864 z m 12.18315,-9.00839 c 4.46269,-6.49748 10.97384,-11.40021 16.578,-16.9266 12.8025,-11.61753 25.38807,-24.6468 40.00089,-34.03645 1.3301,-2.57756 2.40701,-7.42415 -0.56856,-9.31873 -1.61392,-0.90895 -4.31705,-7.54695 -5.6896,-5.76986 -12.86804,16.66262 -34.67787,29.79988 -51.34554,42.14006 -5.95677,4.31907 -11.99051,11.13609 -11.98486,19.24918 -0.10079,1.87009 3.37334,5.66974 4.50976,1.46795 1.93541,-3.70194 0.40763,2.59545 2.01758,4.33098 0.99008,1.39766 5.75313,4.74375 5.68416,1.68849 0.008,-1.04465 0.21284,-1.94531 0.79817,-2.82502 z m 100.31999,-33.82402 c 5.85296,-2.48392 11.2599,-6.79704 14.53362,-12.27607 2.50777,-3.58817 -0.94741,-4.15612 -3.43299,-2.20954 -6.36945,3.62184 -12.55857,10.23319 -16.79733,16.07119 1.47789,-0.20778 4.32733,-0.9538 5.6967,-1.58558 z m 4.88355,-15.71816 c 6.01346,-4.48651 16.55917,-6.45227 24.01659,-5.77564 -3.93666,-3.44056 -7.3818,-9.46258 -11.78251,-13.07261 -14.3846,-10.98232 -30.73698,-25.44999 -42.10627,-39.45155 -4.38257,-5.1606 -10.34135,-11.41708 -14.73401,-16.56927 -8.98315,9.74346 -21.00551,20.95281 -30.30289,30.40558 3.93438,2.22941 11.89958,0.9504 15.77924,2.9761 8.77774,7.05762 17.00601,19.56371 28.91468,20.72002 5.65062,0.0902 11.55802,-0.40468 11.83009,-6.54274 1.49833,-0.59415 2.83934,5.75703 4.69663,7.04024 4.88066,5.51279 8.83357,2.30465 11.86008,9.19 0.62269,6.03977 -5.66946,13.67816 -8.82074,17.99147 -0.0991,0.38129 9.28788,-6.27815 10.64911,-6.9116 z m 1.67306,-35.57213 c 2.22686,-1.84862 -2.64366,-5.08093 -3.66128,-7.03689 -3.16439,-3.12169 -5.21591,-7.75532 -8.73122,-10.19274 -4.71067,-0.97613 -6.28546,2.42499 -4.04067,4.53602 4.03627,4.34858 10.16581,10.49227 14.45579,14.42084 0.52789,0.0708 1.5391,-1.51612 1.97738,-1.72723 z"
         id="path10"
         sodipodi:nodetypes="cccccccccccccccccccccccccccccccccccccccccccccccccccccccc" />
      <path
         style="display:inline;fill:#172554;fill-opacity:1"
         d="m -261.50204,462.86438 c -11.15604,-1.04555 -22.93294,-5.42784 -29.13387,-15.32176 -3.99439,-6.35791 -5.36993,-14.1791 -3.71996,-21.48138 3.08313,-11.97918 14.35438,-18.751 23.88939,-25.31764 13.62438,-9.53189 29.07245,-17.86195 38.2773,-32.21118 2.14501,-2.8119 -2.31063,-5.54635 -4.17185,-7.26094 -4.34137,-3.99934 -9.01113,-7.87855 -12.66003,-12.734 -3.36095,-4.47229 -1.20298,-10.5166 2.72577,-14.15395 9.52582,-8.81932 18.18768,-18.62701 27.56256,-27.55049 4.11168,-3.03155 9.17771,-0.15306 11.84885,3.41705 5.59456,5.96429 11.08395,12.02419 16.49497,18.15533 6.36777,-1.68381 13.42134,0.12553 18.28145,4.64093 5.56893,5.81056 13.47465,11.23832 14.00955,19.98313 0.58071,2.61865 -1,5.64761 -0.75809,7.78458 6.00643,4.57608 12.39192,9.15827 16.84885,15.28273 1.6976,2.35619 1.42529,5.70284 0.72587,8.31838 -3.72271,8.02319 -9.04119,15.1976 -15.66227,21.05982 -6.30387,5.37299 -13.67234,10.63043 -22.14478,11.35913 -3.7151,0.16887 -7.5817,0.23342 -10.37798,-2.9006 -5.46977,-6.13042 -10.90816,-12.27532 -16.47344,-18.31439 -5.75897,1.58985 -10.7954,5.66932 -15.42597,9.46731 -12.29045,11.77635 -23.03056,25.00945 -33.97718,38.00057 -3.82353,4.6104 -8.82268,8.54621 -14.8906,9.46498 11.05933,1.70946 22.08622,-2.55251 31.96908,-7.16791 14.85694,-6.96675 28.16453,-16.7789 40.95898,-26.92783 2.95871,-2.5864 7.08409,2.35239 3.72273,4.63914 -9.45425,9.27927 -20.6062,16.75237 -31.99033,23.47513 -5.61513,3.40259 -11.63539,6.0159 -17.67296,8.55244 14.49404,-1.41406 28.27908,-7.09671 41.01669,-13.93589 7.09001,-3.67597 13.37599,-8.65939 19.83857,-13.25589 2.99901,-2.07804 5.94708,2.46192 3.59521,4.88226 -16.30432,13.99891 -36.19012,23.88433 -57.19581,28.40802 -8.37182,2.02911 -16.96272,2.01468 -25.5107,1.64292 z m -10.59433,-20.06376 c 7.33821,-1.86817 10.62557,-9.52584 15.08347,-14.92329 10.50944,-12.72443 21.2234,-25.66519 34.74221,-35.30701 3.16858,-2.25988 6.62574,-3.95765 10.12115,-5.6177 -3.78349,-4.24822 -7.67158,-8.83223 -11.51995,-12.75186 -12.70975,16.85182 -31.48944,27.36858 -48.21351,39.6932 -6.04844,4.52999 -13.61242,9.68651 -13.82853,18.17961 -0.15755,6.19166 4.9791,11.81064 11.30201,11.12195 0.80883,-0.0881 1.54323,-0.22875 2.31315,-0.3949 z m 93.10613,-35.72587 c 10.72273,-2.92559 19.93233,-10.77046 25.0483,-20.57105 -5.33181,0.43162 -10.58335,3.6877 -14.93212,6.98713 -4.76391,4.07601 -9.19748,8.82229 -12.59153,13.99617 0.86163,0.10368 1.65066,-0.22557 2.47535,-0.41225 z m -17.71192,-17.6011 c -2.04833,-13.51063 -13.18385,-22.65561 -22.21904,-31.86061 -4.49174,-4.10211 -8.76628,-8.49514 -13.72671,-12.03854 4.08469,-0.81871 6.39753,3.54437 9.49567,5.44404 6.80514,5.69634 14.01862,12.95511 23.40658,13.07379 5.80348,0.42102 12.10795,-3.8582 12.50591,-9.91859 6.24741,6.73073 13.54338,12.58967 18.96714,20.01589 2.62075,3.85293 -0.16293,8.24967 -3.24671,10.83917 -2.21421,2.4046 -4.46047,4.7799 -6.63898,7.21712 6.98173,-6.98036 16.17527,-12.70054 26.40268,-12.06358 4.07253,0.2319 -2.58883,-3.12886 -3.59206,-4.6709 -11.75596,-9.96795 -24.13547,-19.36767 -34.05505,-31.27583 -8.46622,-9.57958 -16.46497,-19.80576 -25.10588,-29.08791 -9.00192,9.66084 -18.43889,18.9884 -27.49154,28.55072 3.10527,1.61361 6.13768,4.94368 8.94677,7.54818 12.25938,13.11592 24.22032,26.52873 35.99818,40.07273 1.42275,2.36987 0.34073,-1.27855 0.35304,-1.84568 z m 30.13492,-35.77935 c 0.42221,-3.27139 -4.02398,-6.41888 -6.07496,-8.63119 -3.02192,-3.25962 -5.64806,-6.34942 -9.17744,-8.75962 -4.78494,-0.99593 -2.65408,1.60167 -0.39824,3.74729 4.78822,5.17195 9.85703,10.42825 15.00365,15.04878 0.7108,0.13034 0.58655,-0.93699 0.64699,-1.40526 z m -132.37334,98.97165 c -9.53667,-7.79747 -16.64057,-19.8148 -15.73175,-32.43613 -0.42892,-9.65963 4.14658,-18.86744 9.75323,-26.47773 11.9129,-14.57223 28.64055,-24.00074 45.00424,-32.72969 3.89685,-2.63022 9.12438,2.30466 6.73151,6.32974 -2.10343,3.05255 -6.41534,3.60779 -9.43712,5.62189 -15.6231,8.09692 -31.69683,17.87708 -40.52185,33.66922 -3.58098,6.48773 -5.58039,13.83453 -4.91154,21.26712 0.47433,9.75698 5.25246,18.89911 11.29855,26.40787 -0.79394,-0.25512 -1.46255,-1.18541 -2.18527,-1.65229 z m -20.37292,-24.27687 c 0.24645,-1.17013 0.26755,1.11326 0,0 z m -1.06331,-3.62708 c -4.64282,-14.66278 -0.90323,-31.08117 8.13431,-43.2989 12.30655,-17.27754 31.05673,-28.25922 49.00676,-38.82018 2.42042,-1.67298 6.07277,-0.76245 6.30076,2.49335 -0.80231,4.22584 -5.94454,4.9236 -8.88583,7.31898 -18.54196,10.89751 -37.11737,23.90459 -47.78973,43.10732 -5.38213,9.68496 -7.39539,21.13352 -5.64678,32.06419 -0.64122,0.4978 -0.72715,-2.27944 -1.11949,-2.86476 z m 111.26227,-5.55465 c -3.85924,-0.90682 -3.35493,-6.919 0.56618,-7.34035 3.83908,-0.80704 5.81611,5.17625 2.37425,6.93524 -0.85776,0.4095 -2.02071,0.64475 -2.94043,0.40511 z m -117.05642,-19.79014 c -0.0622,-18.8291 10.46113,-36.07496 24.05863,-48.42671 14.47124,-13.80077 31.88652,-23.87095 49.07234,-33.8587 2.79342,-0.63142 5.74405,0.6911 5.96735,3.79635 -0.20627,4.81548 -5.97548,5.2391 -9.22867,7.41045 -15.11473,7.82048 -29.68805,17.06166 -42.18966,28.66047 -7.92834,7.45437 -15.34278,15.58427 -20.42114,25.29699 -3.4268,5.96661 -5.71991,12.54067 -7.24223,19.23781 -0.006,-0.70555 -0.0111,-1.41111 -0.0166,-2.11666 z m 26.88245,-60.72634 c -4.55435,-1.02573 -4.42685,-8.15943 0.0925,-9.14643 4.82769,-1.53193 8.31665,5.92359 3.85364,8.4963 -1.01826,0.75473 -2.72637,1.19094 -3.94614,0.65013 z m 19.08598,-18.52302 c -2.53658,-1.81026 2.09683,-5.01971 3.11349,-2.06473 1.39724,1.66008 -2.07794,4.20488 -3.11349,2.06473 z"
         id="path9"
         sodipodi:nodetypes="cccccsssccccccccccscccccccccccccccsscccsscccccccccccccccccccccccsscccsccccccccccccccccccccccccscccccccssccccccc" />
    </g>
  </g>
</svg>
