<svg width="128" height="128" viewBox="0 0 128 128" fill="none" xmlns="http://www.w3.org/2000/svg">
<rect width="128" height="128" rx="21" fill="white"/>
<path fill-rule="evenodd" clip-rule="evenodd" d="M64.9341 46.9582C66.7198 48.7439 66.7198 51.6392 64.9341 53.4249L26.6471 91.7119C25.6855 92.6734 25.1453 93.9776 25.1453 95.3375C25.1453 96.6974 25.6855 98.0016 26.6471 98.9631C27.6087 99.9247 28.9129 100.465 30.2728 100.465C31.6326 100.465 32.9368 99.9247 33.8984 98.9631L72.1853 60.6762C73.9711 58.8905 76.8663 58.8905 78.652 60.6762C80.4378 62.4619 80.4378 65.3572 78.652 67.1429L40.3651 105.43C37.6885 108.107 34.0581 109.61 30.2728 109.61C26.4874 109.61 22.8571 108.107 20.1804 105.43C17.5037 102.753 16 99.1229 16 95.3375C16 91.5521 17.5037 87.9218 20.1804 85.2451L58.4673 46.9582C60.2531 45.1725 63.1483 45.1725 64.9341 46.9582Z" fill="black"/>
<path fill-rule="evenodd" clip-rule="evenodd" d="M110.661 56.1035C112.446 57.8893 112.446 60.7845 110.661 62.5703L92.37 80.8609C90.5843 82.6467 87.689 82.6467 85.9033 80.8609C84.1176 79.0752 84.1176 76.1799 85.9033 74.3942L104.194 56.1035C105.98 54.3178 108.875 54.3178 110.661 56.1035Z" fill="black"/>
<path fill-rule="evenodd" clip-rule="evenodd" d="M43.7152 20.9303C44.3987 19.1542 46.1107 17.9872 48.0137 18.0001L64.1908 18.1098C64.1912 18.1098 64.1905 18.1098 64.1908 18.1098C72.6035 18.1654 80.657 21.5306 86.6076 27.4777L96.9427 37.8129C97.8003 38.6704 98.282 39.8335 98.282 41.0462V46.4044C98.282 46.4047 98.282 46.4041 98.282 46.4044C98.2825 47.6167 98.7644 48.7802 99.6218 49.6373L108.374 58.3899C110.16 60.1756 110.16 63.0709 108.374 64.8566C106.589 66.6423 103.693 66.6423 101.908 64.8566L93.1561 56.105C93.1559 56.1048 93.1562 56.1052 93.1561 56.105C90.5836 53.533 89.1375 50.0441 89.1367 46.4064V42.9403L80.1427 33.9463C80.1424 33.946 80.143 33.9466 80.1427 33.9463C75.8923 29.6988 70.1396 27.2944 64.1308 27.255L59.2888 27.2221C60.9154 29.2989 62.2903 31.5698 63.3792 33.9884C65.2839 38.219 66.2703 42.8053 66.2734 47.4449V52.8702L72.7401 59.3369H76.2052C79.8429 59.3377 83.3323 60.7833 85.9043 63.3558C85.9045 63.3559 85.9041 63.3556 85.9043 63.3558L94.6564 72.1079C96.4421 73.8936 96.4421 76.7889 94.6564 78.5746C92.8707 80.3603 89.9754 80.3603 88.1897 78.5746L79.4376 69.8225C78.5805 68.9651 77.4175 68.4827 76.2052 68.4822C76.2049 68.4822 76.2055 68.4822 76.2052 68.4822H70.846C69.6333 68.4822 68.4702 68.0005 67.6127 67.1429L58.4673 57.9976C57.6098 57.1401 57.128 55.977 57.128 54.7642L57.128 47.451C57.128 47.4505 57.128 47.4515 57.128 47.451C57.1256 44.1043 56.414 40.7945 55.04 37.7428C53.6659 34.6906 51.6604 31.9644 49.1559 29.7437L49.147 29.7358L44.9402 25.9862C43.5195 24.72 43.0316 22.7063 43.7152 20.9303Z" fill="black"/>
</svg>
