<?xml version="1.0" encoding="UTF-8" standalone="no"?>
<!-- Uploaded to: SVG Repo, www.svgrepo.com, Generator: SVG Repo Mixer Tools -->

<svg
   width="800"
   height="160"
   viewBox="0 -204.5 512 102.4"
   version="1.1"
   preserveAspectRatio="xMidYMid"
   id="svg3"
   sodipodi:docname="storybook.svg"
   inkscape:version="1.3.2 (091e20e, 2023-11-25)"
   xmlns:inkscape="http://www.inkscape.org/namespaces/inkscape"
   xmlns:sodipodi="http://sodipodi.sourceforge.net/DTD/sodipodi-0.dtd"
   xmlns:xlink="http://www.w3.org/1999/xlink"
   xmlns="http://www.w3.org/2000/svg"
   xmlns:svg="http://www.w3.org/2000/svg">
  <sodipodi:namedview
     id="namedview3"
     pagecolor="#ffffff"
     bordercolor="#000000"
     borderopacity="0.25"
     inkscape:showpageshadow="2"
     inkscape:pageopacity="0.0"
     inkscape:pagecheckerboard="0"
     inkscape:deskcolor="#d1d1d1"
     inkscape:zoom="0.99647495"
     inkscape:cx="314.10724"
     inkscape:cy="-55.194564"
     inkscape:window-width="2064"
     inkscape:window-height="1173"
     inkscape:window-x="0"
     inkscape:window-y="25"
     inkscape:window-maximized="0"
     inkscape:current-layer="svg3" />
  <defs
     id="defs1">
    <path
       d="M 3.1758298,94.358209 0.00368689,9.8349694 C -0.10107656,7.0434983 2.0393235,4.6777591 4.8273198,4.5035093 L 76.720256,0.01020083 c 2.837848,-0.17736545 5.282161,1.97938127 5.459526,4.81722867 0.0067,0.1069192 0.01003,0.2140208 0.01003,0.3211486 V 97.251597 c 0,2.843383 -2.305019,5.148403 -5.148403,5.148403 -0.07703,0 -0.154048,-0.002 -0.230999,-0.005 L 8.0896129,99.308345 C 5.4132097,99.18814 3.2763053,97.035426 3.1758298,94.358209 Z"
       id="path-1" />
  </defs>
  <g
     id="g3"
     transform="translate(0,-204.5)">
    <path
       d="m 136.3968,81.05728 c -4.36909,0 -8.57427,-0.587087 -12.61568,-1.76128 -4.04141,-1.174193 -7.40009,-2.798923 -10.07616,-4.87424 l 4.096,-9.09312 c 5.57059,3.877566 11.82375,5.81632 18.75968,5.81632 3.6045,0 6.3761,-0.587087 8.31488,-1.76128 1.93878,-1.174193 2.90816,-2.798923 2.90816,-4.87424 0,-1.856863 -0.88746,-3.304101 -2.6624,-4.34176 -1.77494,-1.037659 -4.92883,-2.047995 -9.46176,-3.03104 -5.07907,-1.037659 -9.13407,-2.293753 -12.16512,-3.76832 -3.03105,-1.474567 -5.24287,-3.290443 -6.63552,-5.44768 -1.39265,-2.157238 -2.08896,-4.819611 -2.08896,-7.9872 0,-3.495271 0.96938,-6.6082 2.90816,-9.33888 1.93878,-2.73068 4.65577,-4.874232 8.15104,-6.43072 3.49527,-1.556488 7.53662,-2.33472 12.12416,-2.33472 4.09602,0 8.04179,0.600741 11.83744,1.80224 3.79565,1.201499 6.813,2.812576 9.05216,4.83328 l -4.096,9.09312 c -5.29752,-3.877566 -10.86802,-5.81632 -16.71168,-5.81632 -3.33143,0 -5.95284,0.6417 -7.86432,1.92512 -1.91148,1.28342 -2.8672,3.044682 -2.8672,5.28384 0,1.310727 0.36864,2.389329 1.10592,3.23584 0.73728,0.846511 1.96607,1.597437 3.6864,2.2528 1.72033,0.655363 4.16425,1.338023 7.33184,2.048 7.42745,1.638408 12.76585,3.741 16.01536,6.30784 3.24951,2.56684 4.87424,6.116671 4.87424,10.6496 0,5.461361 -2.10259,9.762118 -6.30784,12.9024 -4.20525,3.140282 -10.07612,4.7104 -17.6128,4.7104 z m 53.57568,-9.17504 c 1.25611,0 2.56682,-0.08192 3.93216,-0.24576 l -0.65536,9.0112 c -1.5838,0.218454 -3.16757,0.32768 -4.75136,0.32768 -6.11672,0 -10.58132,-1.338013 -13.39392,-4.01408 -2.8126,-2.676067 -4.21888,-6.744719 -4.21888,-12.20608 V 49.35424 h -7.61856 v -9.25696 h 7.61856 V 28.3008 h 12.36992 v 11.79648 h 10.07616 v 9.25696 h -10.07616 v 15.31904 c 0,4.805997 2.23912,7.20896 6.71744,7.20896 z m 28.75392,9.09312 c -4.25986,0 -8.00084,-0.860151 -11.22304,-2.58048 -3.2222,-1.720329 -5.70709,-4.150598 -7.45472,-7.29088 -1.74764,-3.140282 -2.62144,-6.840299 -2.62144,-11.10016 0,-4.259861 0.8738,-7.959878 2.62144,-11.10016 1.74763,-3.140282 4.23252,-5.556898 7.45472,-7.24992 3.2222,-1.693022 6.96318,-2.53952 11.22304,-2.53952 4.25986,0 8.00084,0.846498 11.22304,2.53952 3.2222,1.693022 5.70708,4.109638 7.45472,7.24992 1.74763,3.140282 2.62144,6.840299 2.62144,11.10016 0,4.259861 -0.87381,7.959878 -2.62144,11.10016 -1.74764,3.140282 -4.23252,5.570551 -7.45472,7.29088 -3.2222,1.720329 -6.96318,2.58048 -11.22304,2.58048 z m 0,-9.4208 c 6.0075,0 9.0112,-3.850202 9.0112,-11.55072 0,-3.877566 -0.77823,-6.772044 -2.33472,-8.68352 -1.55649,-1.911476 -3.78196,-2.8672 -6.67648,-2.8672 -6.0075,0 -9.0112,3.850202 -9.0112,11.55072 0,7.700518 3.0037,11.55072 9.0112,11.55072 z m 55.54176,-22.28224 -6.9632,0.73728 c -3.44066,0.327682 -5.87093,1.297059 -7.29088,2.90816 -1.41995,1.611101 -2.12992,3.754653 -2.12992,6.43072 V 80.32 H 245.51424 V 40.09728 h 11.8784 v 6.79936 c 2.0207,-4.642157 6.19858,-7.181651 12.53376,-7.61856 l 3.60448,-0.24576 z m 35.9424,-9.09312 h 12.12416 L 298.0864,95.0656 H 285.55264 L 293.25312,78.10816 276.70528,40.1792 h 12.86144 l 10.15808,25.55904 z m 40.79616,-1.06496 c 3.49527,0 6.58089,0.846498 9.25696,2.53952 2.67607,1.693022 4.765,4.109638 6.26688,7.24992 1.50188,3.140282 2.2528,6.785686 2.2528,10.93632 0,4.150634 -0.75092,7.823344 -2.2528,11.01824 -1.50188,3.194896 -3.60447,5.679778 -6.30784,7.45472 -2.70337,1.774942 -5.77534,2.6624 -9.216,2.6624 -2.78529,0 -5.29748,-0.587087 -7.53664,-1.76128 -2.23916,-1.174193 -3.95946,-2.798923 -5.16096,-4.87424 V 80.32 H 326.10304 V 22.5664 h 12.36992 V 45.504 c 1.2015,-2.020703 2.90815,-3.590821 5.12,-4.7104 2.21185,-1.119579 4.68308,-1.67936 7.41376,-1.67936 z m -3.60448,32.44032 c 2.89452,0 5.13364,-1.02399 6.71744,-3.072 1.5838,-2.04801 2.37568,-4.928835 2.37568,-8.64256 0,-3.659112 -0.79188,-6.458017 -2.37568,-8.3968 -1.5838,-1.938783 -3.82292,-2.90816 -6.71744,-2.90816 -2.89452,0 -5.13365,0.996683 -6.71744,2.99008 -1.5838,1.993397 -2.37568,4.819608 -2.37568,8.47872 0,3.713725 0.79188,6.567243 2.37568,8.56064 1.58379,1.993397 3.82292,2.99008 6.71744,2.99008 z m 48.25088,9.4208 c -4.25986,0 -8.00084,-0.860151 -11.22304,-2.58048 -3.2222,-1.720329 -5.70708,-4.150598 -7.45472,-7.29088 -1.74763,-3.140282 -2.62144,-6.840299 -2.62144,-11.10016 0,-4.259861 0.87381,-7.959878 2.62144,-11.10016 1.74764,-3.140282 4.23252,-5.556898 7.45472,-7.24992 3.2222,-1.693022 6.96318,-2.53952 11.22304,-2.53952 4.25986,0 8.00084,0.846498 11.22304,2.53952 3.2222,1.693022 5.70708,4.109638 7.45472,7.24992 1.74763,3.140282 2.62144,6.840299 2.62144,11.10016 0,4.259861 -0.87381,7.959878 -2.62144,11.10016 -1.74764,3.140282 -4.23252,5.570551 -7.45472,7.29088 -3.2222,1.720329 -6.96318,2.58048 -11.22304,2.58048 z m 0,-9.4208 c 6.0075,0 9.0112,-3.850202 9.0112,-11.55072 0,-3.877566 -0.77823,-6.772044 -2.33472,-8.68352 -1.55649,-1.911476 -3.78196,-2.8672 -6.67648,-2.8672 -6.0075,0 -9.0112,3.850202 -9.0112,11.55072 0,7.700518 3.0037,11.55072 9.0112,11.55072 z m 46.12096,9.4208 c -4.25986,0 -8.00084,-0.860151 -11.22304,-2.58048 -3.2222,-1.720329 -5.70709,-4.150598 -7.45472,-7.29088 -1.74764,-3.140282 -2.62144,-6.840299 -2.62144,-11.10016 0,-4.259861 0.8738,-7.959878 2.62144,-11.10016 1.74763,-3.140282 4.23252,-5.556898 7.45472,-7.24992 3.2222,-1.693022 6.96318,-2.53952 11.22304,-2.53952 4.25986,0 8.00084,0.846498 11.22304,2.53952 3.2222,1.693022 5.70708,4.109638 7.45472,7.24992 1.74763,3.140282 2.62144,6.840299 2.62144,11.10016 0,4.259861 -0.87381,7.959878 -2.62144,11.10016 -1.74764,3.140282 -4.23252,5.570551 -7.45472,7.29088 -3.2222,1.720329 -6.96318,2.58048 -11.22304,2.58048 z m 0,-9.4208 c 6.0075,0 9.0112,-3.850202 9.0112,-11.55072 0,-3.877566 -0.77823,-6.772044 -2.33472,-8.68352 -1.55649,-1.911476 -3.78196,-2.8672 -6.67648,-2.8672 -6.0075,0 -9.0112,3.850202 -9.0112,11.55072 0,7.700518 3.0037,11.55072 9.0112,11.55072 z M 512,80.32 H 496.8448 L 481.44384,62.37952 V 80.32 H 469.07392 V 22.5664 h 12.36992 V 57.30048 L 496.27136,40.1792 h 14.7456 l -16.87552,19.16928 z"
       fill="#333333"
       fill-rule="nonzero"
       id="path1" />
    <g
       id="g2">
      <mask
         id="mask-2"
         fill="#ffffff">
        <use
           xlink:href="#path-1"
           id="use1" />
      </mask>
      <use
         fill="#ff4785"
         fill-rule="nonzero"
         xlink:href="#path-1"
         id="use2" />
      <path
         d="M 60.690965,12.586591 61.182033,0.77574057 71.055094,0 l 0.42534,12.180122 c 0.0148,0.423896 -0.316833,0.779532 -0.740729,0.794335 -0.181507,0.0063 -0.359388,-0.05185 -0.502055,-0.164241 L 66.43028,9.8109057 61.922448,13.230372 c -0.33793,0.25634 -0.819682,0.190199 -1.076022,-0.147731 -0.107907,-0.142252 -0.162878,-0.317656 -0.155461,-0.49605 z m -12.6267,26.00937 c 0,2.00303 13.492138,1.04303 15.303339,-0.363961 0,-13.640156 -7.318989,-20.807844 -20.721291,-20.807844 -13.402302,0 -20.911394,7.279207 -20.911394,18.198023 0,19.016937 25.663983,19.380898 25.663983,29.753773 0,2.911685 -1.425776,4.640497 -4.562485,4.640497 -4.087227,0 -5.703108,-2.087375 -5.513004,-9.184605 0,-1.539652 -15.588494,-2.019651 -16.063753,0 -1.210202,17.199115 9.505179,22.16 21.76686,22.16 11.881474,0 21.196549,-6.333115 21.196549,-17.797872 0,-20.38179 -26.04419,-19.835849 -26.04419,-29.935754 0,-4.094556 3.041657,-4.640496 4.847641,-4.640496 1.901036,0 5.3229,0.335068 5.037745,7.978239 z"
         fill="#ffffff"
         fill-rule="nonzero"
         mask="url(#mask-2)"
         id="path2" />
    </g>
  </g>
</svg>
